<svg width="400" height="65" viewBox="0 0 400 65" fill="none" xmlns="http://www.w3.org/2000/svg">
<g clip-path="url(#clip0_269_930)">
<path fill-rule="evenodd" clip-rule="evenodd" d="M156.919 5.52552C157.676 5.52552 158.541 5.63385 159.46 5.79635C160.541 6.01302 162.27 6.44635 164.216 7.63802H153.352V11.3214C153.946 11.7547 154.541 12.0797 155.135 12.3505C161.406 15.1672 168.595 10.9422 170.487 9.75052C170.433 9.42552 170.325 8.93802 170.108 8.39635C168.865 4.98385 165.676 3.35885 164.811 2.92552C164.054 2.49219 162.216 1.67969 159.784 1.67969C158.379 1.67969 157.243 2.00469 156.703 2.16719C154.919 2.70885 154.379 3.25052 153.352 3.73802V5.52552C154.216 5.52552 155.46 5.41719 156.919 5.52552Z" fill="#D08910"/>
<path fill-rule="evenodd" clip-rule="evenodd" d="M122.001 27.0824V34.5574H135.785C135.785 37.2658 135.73 40.5158 135.73 42.7908C135.028 42.7908 134.812 42.7908 134.325 42.7908C127.352 42.8449 120.433 42.7908 113.46 42.7908C112.974 42.7908 112.433 42.7908 111.73 42.7908V4.16992H135.514C135.514 7.14909 135.514 9.64076 135.514 12.2949H122.001V18.9574H133.947V27.0824H121.947H122.001Z" fill="#FBF9F6"/>
<path fill-rule="evenodd" clip-rule="evenodd" d="M164.704 18.8508C162.812 18.8508 158.974 18.8508 157.082 18.8508H153.352V11.2674V3.73828C153.082 3.84661 152.758 3.95495 152.379 4.06328C151.514 4.27995 151.19 4.22578 148.163 4.17161C147.028 4.17161 145.244 4.17161 143.082 4.17161V42.9549C146.433 42.9549 149.839 42.9549 153.244 42.9549V27.0299H164.65C164.65 26.4341 164.65 25.9466 164.65 25.5133C164.65 23.9966 164.65 22.4258 164.65 20.9091C164.65 19.6633 164.65 20.3133 164.65 18.9049L164.704 18.8508Z" fill="#FBF9F6"/>
<path fill-rule="evenodd" clip-rule="evenodd" d="M76.1621 4.16992H86.2162C86.2162 4.54909 86.2702 4.92826 86.2702 5.30742C86.2702 21.3949 86.2702 37.4283 86.2702 53.5158C86.2702 56.8741 83.5675 60.5033 80.5945 61.7491C79.1891 62.3449 77.8378 62.8324 76.1621 63.4824V4.16992Z" fill="#FBF9F6"/>
<path d="M104.271 4.16992H94.3789V42.6283H104.271V4.16992Z" fill="#FBF9F6"/>
<path fill-rule="evenodd" clip-rule="evenodd" d="M60.3236 40.9492C62.3236 41.7617 64.3236 42.5201 66.2695 43.3867C69.0263 44.6867 71.3506 46.6367 73.0803 49.1284C75.2965 52.4325 76.7019 55.9534 74.1614 60.2325C73.4046 59.8534 72.3776 59.6367 71.783 58.9867C69.729 56.9284 67.783 54.7617 65.8911 52.5409C65.1884 51.7284 64.81 50.5909 64.3236 49.6701C63.2425 51.6201 65.9452 57.1451 70.5938 62.3451C69.783 62.9409 65.2965 61.2075 63.1344 59.4742C57.6749 54.9242 56.4317 49.3992 60.3236 40.9492Z" fill="#FBF9F6"/>
<path fill-rule="evenodd" clip-rule="evenodd" d="M26.3238 62.4005C26.8644 61.6422 27.513 60.8839 27.9455 60.0714C28.8103 58.4464 29.6211 56.8214 30.2698 55.1422C30.6482 54.113 30.9184 52.9755 30.9184 51.8922C30.9184 50.4297 30.5941 49.0214 30.3238 47.5589C29.9455 45.5005 28.8103 43.8755 27.1887 42.5755C25.7293 41.3839 24.1076 40.5714 22.1617 40.6797C21.9455 40.6797 21.7293 40.6797 21.459 40.3547C22.2157 40.0839 22.9184 39.6505 23.6752 39.488C25.513 39.163 27.2968 39.4339 29.0265 40.0839C31.1347 40.8964 35.6211 41.3839 37.2428 39.0005C38.0536 37.7547 38.8103 36.3464 39.0806 34.8839C39.459 32.9339 39.4049 30.8755 39.459 28.8714C39.459 27.9505 39.2968 27.0297 39.1887 26.1089C39.1887 25.838 39.2428 25.5672 39.513 25.2422C39.9455 26.6505 40.5941 28.0589 40.7563 29.5214C41.0806 32.6089 41.2428 35.6964 41.1887 38.7839C41.1887 42.0339 40.3779 45.1755 38.8644 48.0464C37.513 50.6464 36.1076 53.2464 34.3779 55.6297C32.3779 58.338 29.8374 60.5589 26.9184 62.3464C26.7563 62.4547 26.5401 62.4005 26.3779 62.4547L26.3238 62.4005Z" fill="#FBF9F6"/>
<path fill-rule="evenodd" clip-rule="evenodd" d="M43.2438 45.1747C43.2438 46.9081 43.0817 48.6414 43.2438 50.3747C43.5141 52.5956 43.7844 54.8164 44.4871 56.9289C45.5141 59.7997 47.406 62.0747 50.3249 63.3206L50.2168 63.6997H30.2168C33.406 61.4789 36.2709 58.9872 38.433 55.6831C40.5411 52.4331 41.6222 48.8039 42.5411 45.0664C42.7573 45.0664 42.9195 45.1747 43.1357 45.2289L43.2438 45.1747Z" fill="#FBF9F6"/>
<path fill-rule="evenodd" clip-rule="evenodd" d="M6.37876 18.0371C9.45984 18.9579 12.4328 20.0954 14.4869 22.7496C16.1085 24.8079 16.1085 27.2454 15.7301 29.8996C14.0004 29.5746 12.8652 28.4371 11.7842 27.2996C10.7031 26.1621 9.78417 24.9163 8.70309 23.5079C8.64903 25.2413 9.29768 26.5954 10.1625 27.8413C11.0274 29.0329 12.0544 30.1704 12.9734 31.3079C11.7842 31.7413 8.00038 30.1704 6.2166 27.7871C4.37876 25.2954 4.86525 20.5288 6.37876 18.0913V18.0371Z" fill="#FBF9F6"/>
<path fill-rule="evenodd" clip-rule="evenodd" d="M44.6478 37.1043C44.7559 36.6168 44.9721 35.9668 45.4046 35.2626C46.7019 33.2043 48.81 32.4459 49.5667 32.2293C51.6748 31.5251 53.4586 32.0668 55.5127 32.2293C56.5938 32.3376 57.6208 32.8251 58.7019 33.1501C59.2965 34.3959 57.0262 38.1876 54.9181 39.5418C51.891 41.5459 46.9181 40.7334 45.4586 39.1084C48.5937 39.1084 51.4586 38.6209 53.4586 35.9668C53.0802 35.9668 52.4856 36.0751 51.7829 36.2918C50.7019 36.6168 50.0532 37.1584 49.7289 37.3751C48.9181 37.9168 47.4586 38.1876 44.5938 37.1584L44.6478 37.1043Z" fill="#FBF9F6"/>
<path fill-rule="evenodd" clip-rule="evenodd" d="M48.2163 21.8842C48.7028 19.3384 49.7838 17.0092 48.5946 14.4634C47.946 17.0634 47.946 19.7176 45.8379 21.5592C42.7028 18.0926 44.0541 13.4884 48.5946 9.64258C50.1082 10.6717 50.973 12.2426 51.5136 13.9759C52.3784 16.7384 51.1352 19.7717 48.2163 21.9384V21.8842Z" fill="#FBF9F6"/>
<path fill-rule="evenodd" clip-rule="evenodd" d="M4.81055 34.7756C6.8646 33.6381 8.97271 33.259 11.1889 33.3673C13.6214 33.4756 15.0268 34.9381 16.3241 36.9965C15.1889 37.8631 13.8916 37.484 12.7024 37.4298C11.4592 37.4298 10.27 36.9965 9.08082 36.7798C9.02676 36.8881 8.97271 36.9965 8.8646 37.1048C9.78352 37.6465 10.7024 38.3506 11.6754 38.7298C12.7024 39.109 13.8916 39.2173 14.9727 39.5965C12.5943 40.734 10.1619 41.3298 7.89163 39.759C6.21595 38.6215 5.02676 36.9965 4.81055 34.8298V34.7756Z" fill="#FBF9F6"/>
<path fill-rule="evenodd" clip-rule="evenodd" d="M43.8383 11.4833C41.622 7.52917 41.1896 6.9875 40.0004 6.55417C40.8112 8.39583 41.568 10.1833 42.4869 12.2958C41.8923 12.4042 41.4599 12.6208 41.1356 12.5125C38.8653 11.8625 37.6761 10.1833 37.1356 8.07083C36.8653 6.87917 36.8112 5.6875 36.7031 4.44167C36.7031 4.0625 36.8653 3.68333 36.9734 3.25C39.4058 3.35833 41.5139 3.9 42.9734 5.79583C44.2166 7.42083 44.0545 9.37083 43.7842 11.5375L43.8383 11.4833Z" fill="#FBF9F6"/>
<path fill-rule="evenodd" clip-rule="evenodd" d="M24.5402 23.7793C25.1348 24.8085 25.5131 25.7293 26.1618 26.4335C27.8915 28.2751 29.7294 29.9543 31.4591 31.7418C32.5942 32.9335 33.6753 34.1793 34.9726 35.6418C32.0537 36.2376 29.8915 35.371 27.9996 33.8001C25.6212 31.7418 23.5672 26.1626 24.5402 23.7793Z" fill="#FBF9F6"/>
<path fill-rule="evenodd" clip-rule="evenodd" d="M35.0275 16.0336C34.9193 16.4669 34.8653 16.9544 34.9193 17.4961C34.9734 19.5003 35.9464 20.9628 36.4869 21.6669C36.0004 21.5586 34.595 21.0711 33.568 19.7169C32.6491 18.4711 32.541 17.1711 32.4869 16.5211C32.4869 16.1419 32.4329 15.7086 32.4869 15.1669C32.7031 13.8669 33.4599 13.0003 33.8923 12.6211C36.7572 13.9211 38.4869 15.8711 38.9734 17.2253C39.3518 18.2544 39.2437 19.9336 39.1896 20.2586C39.1896 20.3669 39.1356 20.4753 39.1356 20.4753C39.0275 20.8003 38.9734 20.9628 38.9193 21.0169C38.7031 21.2336 37.1896 20.5836 36.3248 19.1753C36.0545 18.6878 35.7842 18.0919 35.3518 16.9544C35.2437 16.5753 35.1356 16.3044 35.0275 16.0878V16.0336Z" fill="#FBF9F6"/>
<path fill-rule="evenodd" clip-rule="evenodd" d="M25.5666 23.9414C27.8369 24.9706 30.2153 25.8914 32.4856 27.0289C34.918 28.2747 36.4315 31.1997 35.8369 34.1247C35.0261 34.3956 25.5126 24.8081 25.5666 23.9414Z" fill="#FBF9F6"/>
<path fill-rule="evenodd" clip-rule="evenodd" d="M25.7299 0.000457494C26.0542 0.0546242 25.4055 1.95046 26.3785 4.82129C26.8109 6.06712 27.1353 6.33796 27.7839 7.74629C28.2704 8.82963 28.919 10.4546 29.2974 12.6755C28.5947 12.4588 27.5136 12.0255 26.3785 11.1046C26.1623 10.9421 24.9731 9.91296 24.3244 8.50463C22.5407 4.71296 25.2434 -0.0537092 25.7299 0.000457494Z" fill="#FBF9F6"/>
<path fill-rule="evenodd" clip-rule="evenodd" d="M16.324 7.5293C16.1619 8.23346 16.0538 9.26263 16.27 10.4543C16.5402 11.9168 17.243 12.7293 17.8916 14.0293C18.4321 15.0585 19.0267 16.5751 19.3511 18.7418L19.0808 18.9585C18.9727 19.0126 18.8646 19.121 18.8105 19.1751C17.8375 18.3626 16.6484 17.7668 15.9997 16.7376C15.297 15.6543 15.0267 14.6793 14.9186 14.0835C14.324 11.1043 16.1619 7.90846 16.3781 7.5293H16.324Z" fill="#FBF9F6"/>
<path fill-rule="evenodd" clip-rule="evenodd" d="M48.8637 28.4383C48.4313 26.7049 49.188 25.5674 50.0529 24.7549C51.134 23.7799 52.215 23.1841 52.9718 22.8591C55.4583 21.8841 57.8367 22.2633 58.9718 22.4799C57.0258 22.8591 55.7285 23.6174 54.9177 24.2133C53.8907 25.0258 53.5664 25.6216 52.4853 26.4883C51.134 27.5716 49.7826 28.1133 48.8096 28.4383H48.8637Z" fill="#FBF9F6"/>
<path fill-rule="evenodd" clip-rule="evenodd" d="M30.4317 12.0792C29.9452 10.3458 29.4047 8.99167 28.9182 7.9625C28.1074 6.22917 27.5668 5.63333 27.0263 4.17083C26.4317 2.54583 26.3236 1.08333 26.2695 0C26.5939 0.541667 27.1884 1.40833 27.9452 2.38333C29.0803 3.79167 29.4587 3.9 30.1614 4.92917C30.9182 6.0125 31.6209 7.25833 31.5128 8.72083C31.5128 9.47917 31.2425 10.2917 30.756 11.1042C30.6479 11.2667 30.6479 11.4292 30.4317 12.0792Z" fill="#FBF9F6"/>
<path fill-rule="evenodd" clip-rule="evenodd" d="M20.3231 18.2542C19.188 15.0583 18.0528 11.9708 16.9718 8.88333C16.9177 8.66667 17.0258 8.39583 17.0799 8.125C18.3772 9.69583 19.6745 11.1042 20.8096 12.6208C21.9447 14.1375 21.7285 16.9 20.3231 18.2542Z" fill="#FBF9F6"/>
<path fill-rule="evenodd" clip-rule="evenodd" d="M59.2425 22.8047C59.2425 22.8047 57.9452 27.138 54.9722 28.5464C53.4587 29.2505 51.9993 29.2505 51.9993 29.2505C51.2425 29.2505 50.6479 29.1422 50.2695 29.0339C50.9722 28.8172 52.0533 28.3839 53.1884 27.5172C54.4857 26.5422 54.8101 25.7297 56.1614 24.6464C56.8101 24.1589 57.783 23.4547 59.2966 22.8589L59.2425 22.8047Z" fill="#FBF9F6"/>
<path fill-rule="evenodd" clip-rule="evenodd" d="M26.3246 62.4004C26.1611 62.4546 26.2701 62.4004 26.3246 62.4004V62.4004Z" fill="#FBF9F6"/>
<path d="M181.759 4.71289V45.121H178.676V4.71289H181.759Z" fill="#FBF9F6"/>
<path fill-rule="evenodd" clip-rule="evenodd" d="M187.567 20.0423L188.919 19.8257C188.919 20.7465 189.135 21.3423 189.405 21.6673C189.675 21.9923 190.108 22.1548 190.594 22.1548C190.973 22.1548 191.297 22.0465 191.567 21.884C191.838 21.7215 192.054 21.4507 192.162 21.1798C192.27 20.8548 192.324 20.3673 192.324 19.7173V11.6465H193.838V19.609C193.838 20.584 193.729 21.3423 193.513 21.884C193.297 22.4257 192.919 22.8048 192.432 23.1298C191.946 23.4007 191.351 23.5632 190.648 23.5632C189.621 23.5632 188.865 23.2923 188.324 22.6965C187.784 22.1007 187.513 21.234 187.567 20.0423ZM201.675 22.2632C201.135 22.6965 200.648 23.0215 200.162 23.2382C199.675 23.4007 199.135 23.509 198.594 23.509C197.675 23.509 196.973 23.2923 196.486 22.8048C196 22.3715 195.729 21.7757 195.729 21.0715C195.729 20.6382 195.838 20.259 196 19.934C196.162 19.609 196.432 19.3382 196.757 19.1215C197.081 18.9048 197.405 18.7423 197.784 18.634C198.054 18.5798 198.486 18.4715 199.027 18.4173C200.162 18.309 201.027 18.0923 201.567 17.9298C201.567 17.7132 201.567 17.6048 201.567 17.5507C201.567 16.9548 201.459 16.5757 201.189 16.3048C200.811 15.9798 200.27 15.8173 199.567 15.8173C198.919 15.8173 198.432 15.9257 198.108 16.1965C197.784 16.4132 197.567 16.8465 197.405 17.4423L196 17.2257C196.108 16.6298 196.324 16.1423 196.594 15.7632C196.865 15.384 197.297 15.1132 197.838 14.8965C198.378 14.6798 199.027 14.5715 199.729 14.5715C200.432 14.5715 201.027 14.6798 201.459 14.8423C201.892 15.0048 202.216 15.2215 202.432 15.4923C202.648 15.7632 202.811 16.0882 202.865 16.4673C202.865 16.7382 202.919 17.1715 202.919 17.7673V19.6632C202.919 21.0173 202.919 21.8298 203.027 22.209C203.081 22.5882 203.189 22.9132 203.351 23.2382H201.892C201.729 22.9132 201.675 22.5882 201.621 22.1548L201.675 22.2632ZM201.567 19.1215C201.027 19.3382 200.27 19.5007 199.243 19.6632C198.648 19.7715 198.27 19.8257 198 19.934C197.784 20.0423 197.567 20.2048 197.459 20.4215C197.351 20.6382 197.243 20.8548 197.243 21.1257C197.243 21.5048 197.405 21.8298 197.675 22.1007C197.946 22.3715 198.378 22.4798 198.919 22.4798C199.459 22.4798 199.946 22.3715 200.378 22.1007C200.811 21.884 201.135 21.559 201.297 21.1257C201.459 20.8007 201.513 20.3132 201.513 19.7173V19.1757L201.567 19.1215ZM205.189 26.5965V14.8423H206.486V15.9798C206.811 15.5465 207.135 15.2215 207.513 15.0048C207.892 14.7882 208.378 14.6798 208.919 14.6798C209.621 14.6798 210.27 14.8423 210.811 15.2215C211.351 15.6007 211.784 16.1423 212.054 16.7923C212.324 17.4965 212.486 18.2007 212.486 19.0132C212.486 19.8798 212.324 20.6382 212.054 21.3423C211.729 22.0465 211.297 22.5882 210.702 22.9132C210.108 23.2923 209.513 23.4548 208.865 23.4548C208.378 23.4548 207.946 23.3465 207.621 23.1298C207.243 22.9132 206.919 22.6965 206.702 22.3715V26.4882H205.297L205.189 26.5965ZM206.486 19.1757C206.486 20.259 206.702 21.0715 207.135 21.559C207.567 22.1007 208.108 22.3173 208.702 22.3173C209.297 22.3173 209.838 22.0465 210.324 21.5048C210.757 20.9632 210.973 20.1507 210.973 19.0132C210.973 17.8757 210.757 17.1173 210.324 16.5757C209.892 16.034 209.351 15.7632 208.757 15.7632C208.162 15.7632 207.621 16.034 207.189 16.6298C206.702 17.2257 206.486 18.0382 206.486 19.1215V19.1757ZM219.621 22.2632C219.081 22.6965 218.594 23.0215 218.108 23.2382C217.621 23.4007 217.081 23.509 216.54 23.509C215.621 23.509 214.919 23.2923 214.432 22.8048C213.946 22.3715 213.675 21.7757 213.675 21.0715C213.675 20.6382 213.784 20.259 213.946 19.934C214.108 19.609 214.378 19.3382 214.702 19.1215C215.027 18.9048 215.351 18.7423 215.729 18.634C216 18.5798 216.432 18.4715 216.973 18.4173C218.108 18.309 218.973 18.0923 219.513 17.9298C219.513 17.7132 219.513 17.6048 219.513 17.5507C219.513 16.9548 219.405 16.5757 219.135 16.3048C218.757 15.9798 218.216 15.8173 217.513 15.8173C216.865 15.8173 216.378 15.9257 216.054 16.1965C215.73 16.4132 215.513 16.8465 215.351 17.4423L213.946 17.2257C214.054 16.6298 214.27 16.1423 214.594 15.7632C214.865 15.384 215.297 15.1132 215.838 14.8965C216.378 14.6798 217.027 14.5715 217.729 14.5715C218.432 14.5715 219.027 14.6798 219.459 14.8423C219.892 15.0048 220.216 15.2215 220.432 15.4923C220.648 15.7632 220.811 16.0882 220.865 16.4673C220.865 16.7382 220.919 17.1715 220.919 17.7673V19.6632C220.919 21.0173 220.919 21.8298 221.027 22.209C221.081 22.5882 221.189 22.9132 221.351 23.2382H219.892C219.729 22.9132 219.675 22.5882 219.621 22.1548V22.2632ZM219.513 19.1215C219.027 19.3382 218.216 19.5007 217.189 19.6632C216.594 19.7715 216.216 19.8257 215.946 19.934C215.729 20.0423 215.513 20.2048 215.405 20.4215C215.297 20.6382 215.189 20.8548 215.189 21.1257C215.189 21.5048 215.351 21.8298 215.621 22.1007C215.892 22.3715 216.324 22.4798 216.865 22.4798C217.405 22.4798 217.892 22.3715 218.324 22.1007C218.757 21.884 219.081 21.559 219.243 21.1257C219.405 20.8007 219.459 20.3132 219.459 19.7173V19.1757L219.513 19.1215ZM223.189 23.3465V14.8423H224.486V16.034C225.081 15.1132 226 14.6257 227.135 14.6257C227.621 14.6257 228.108 14.734 228.54 14.8965C228.973 15.059 229.297 15.3298 229.513 15.6007C229.729 15.9257 229.892 16.2507 229.946 16.684C229.946 16.9548 230 17.4423 230 18.0923V23.2923H228.594V18.1465C228.594 17.5507 228.594 17.1173 228.432 16.8465C228.324 16.5757 228.108 16.3048 227.838 16.1423C227.567 15.9798 227.243 15.8715 226.865 15.8715C226.27 15.8715 225.729 16.0882 225.297 16.4673C224.865 16.8465 224.648 17.6048 224.648 18.6882V23.2923H223.243L223.189 23.3465ZM237.027 23.3465V11.6465H238.54V23.3465H237.027ZM241.081 23.3465V14.8423H242.378V16.034C242.973 15.1132 243.892 14.6257 245.027 14.6257C245.513 14.6257 246 14.734 246.432 14.8965C246.865 15.059 247.189 15.3298 247.405 15.6007C247.621 15.9257 247.784 16.2507 247.838 16.684C247.838 16.9548 247.892 17.4423 247.892 18.0923V23.2923H246.486V18.1465C246.486 17.5507 246.486 17.1173 246.324 16.8465C246.216 16.5757 246 16.3048 245.729 16.1423C245.459 15.9798 245.135 15.8715 244.757 15.8715C244.162 15.8715 243.621 16.0882 243.189 16.4673C242.757 16.8465 242.54 17.6048 242.54 18.6882V23.2923H241.135L241.081 23.3465ZM253.135 22.0465L253.351 23.2923C252.973 23.4007 252.594 23.4007 252.27 23.4007C251.784 23.4007 251.351 23.2923 251.081 23.1298C250.811 22.9673 250.594 22.7507 250.486 22.4798C250.378 22.209 250.324 21.6673 250.324 20.8007V15.9257H249.297V14.7882H250.324V12.6757L251.729 11.809V14.7882H253.135V15.9257H251.729V20.909C251.729 21.3423 251.73 21.559 251.784 21.7215C251.784 21.8298 251.892 21.9382 252 21.9923C252.108 22.0465 252.27 22.1007 252.486 22.1007C252.648 22.1007 252.865 22.1007 253.081 22.0465H253.135ZM260.27 20.584L261.729 20.8007C261.513 21.6673 261.081 22.3173 260.432 22.8048C259.784 23.2923 259.027 23.509 258.054 23.509C256.865 23.509 255.892 23.1298 255.135 22.3715C254.432 21.6132 254.054 20.5298 254.054 19.1757C254.054 17.8215 254.432 16.6298 255.135 15.8715C255.838 15.059 256.811 14.6798 257.946 14.6798C259.081 14.6798 259.946 15.059 260.648 15.8173C261.351 16.5757 261.729 17.659 261.729 19.0673C261.729 19.1757 261.729 19.284 261.729 19.4465H255.513C255.513 20.3673 255.838 21.0715 256.27 21.559C256.757 22.0465 257.297 22.3173 258 22.3173C258.54 22.3173 258.973 22.1548 259.297 21.884C259.675 21.6132 259.946 21.1798 260.162 20.5298L260.27 20.584ZM255.621 18.309H260.27C260.216 17.6048 260.054 17.0632 259.729 16.684C259.297 16.1423 258.702 15.8715 258 15.8715C257.351 15.8715 256.811 16.0882 256.378 16.5215C255.946 16.9548 255.675 17.5507 255.621 18.309ZM263.513 23.3465V14.8423H264.757V16.1423C265.081 15.5465 265.405 15.1673 265.675 14.9507C265.946 14.734 266.27 14.6798 266.594 14.6798C267.081 14.6798 267.567 14.8423 268.054 15.1132L267.567 16.4132C267.243 16.1965 266.865 16.1423 266.54 16.1423C266.216 16.1423 265.946 16.2507 265.729 16.4132C265.459 16.5757 265.297 16.8465 265.189 17.2257C265.027 17.7132 264.973 18.309 264.973 18.9048V23.3465H263.567H263.513ZM268.973 23.3465V14.8423H270.27V16.034C270.865 15.1132 271.784 14.6257 272.919 14.6257C273.405 14.6257 273.892 14.734 274.324 14.8965C274.757 15.059 275.081 15.3298 275.243 15.6007C275.459 15.9257 275.621 16.2507 275.675 16.684C275.675 16.9548 275.729 17.4423 275.729 18.0923V23.2923H274.324V18.1465C274.324 17.5507 274.324 17.1173 274.162 16.8465C274.054 16.5757 273.838 16.3048 273.567 16.1423C273.297 15.9798 272.973 15.8715 272.594 15.8715C272 15.8715 271.459 16.0882 271.027 16.4673C270.594 16.8465 270.378 17.6048 270.378 18.6882V23.2923H268.973V23.3465ZM283.351 22.2632C282.811 22.6965 282.324 23.0215 281.838 23.2382C281.351 23.4007 280.811 23.509 280.27 23.509C279.351 23.509 278.648 23.2923 278.162 22.8048C277.675 22.3715 277.405 21.7757 277.405 21.0715C277.405 20.6382 277.513 20.259 277.675 19.934C277.838 19.609 278.108 19.3382 278.432 19.1215C278.757 18.9048 279.081 18.7423 279.459 18.634C279.729 18.5798 280.162 18.4715 280.702 18.4173C281.838 18.309 282.702 18.0923 283.243 17.9298C283.243 17.7132 283.243 17.6048 283.243 17.5507C283.243 16.9548 283.135 16.5757 282.865 16.3048C282.486 15.9798 281.946 15.8173 281.243 15.8173C280.594 15.8173 280.108 15.9257 279.784 16.1965C279.459 16.4132 279.243 16.8465 279.081 17.4423L277.675 17.2257C277.784 16.6298 278 16.1423 278.27 15.7632C278.54 15.384 278.973 15.1132 279.513 14.8965C280.054 14.6798 280.702 14.5715 281.405 14.5715C282.108 14.5715 282.702 14.6798 283.135 14.8423C283.567 15.0048 283.892 15.2215 284.108 15.4923C284.324 15.7632 284.486 16.0882 284.54 16.4673C284.54 16.7382 284.594 17.1715 284.594 17.7673V19.6632C284.594 21.0173 284.594 21.8298 284.702 22.209C284.757 22.5882 284.865 22.9132 285.027 23.2382H283.567C283.405 22.9132 283.351 22.5882 283.297 22.1548L283.351 22.2632ZM283.243 19.1215C282.702 19.3382 281.946 19.5007 280.919 19.6632C280.324 19.7715 279.946 19.8257 279.675 19.934C279.459 20.0423 279.243 20.2048 279.135 20.4215C279.027 20.6382 278.919 20.8548 278.919 21.1257C278.919 21.5048 279.081 21.8298 279.351 22.1007C279.621 22.3715 280.054 22.4798 280.594 22.4798C281.135 22.4798 281.621 22.3715 282.054 22.1007C282.486 21.884 282.811 21.559 282.973 21.1257C283.135 20.8007 283.189 20.3132 283.189 19.7173V19.1757L283.243 19.1215ZM290 22.0465L290.216 23.2923C289.838 23.4007 289.459 23.4007 289.135 23.4007C288.648 23.4007 288.216 23.2923 287.946 23.1298C287.675 22.9673 287.459 22.7507 287.351 22.4798C287.243 22.209 287.189 21.6673 287.189 20.8007V15.9257H286.162V14.7882H287.189V12.6757L288.594 11.809V14.7882H290V15.9257H288.594V20.909C288.594 21.3423 288.594 21.559 288.648 21.7215C288.648 21.8298 288.757 21.9382 288.865 21.9923C288.973 22.0465 289.135 22.1007 289.351 22.1007C289.513 22.1007 289.729 22.1007 289.946 22.0465H290ZM291.405 13.2715V11.6465H292.811V13.2715H291.405ZM291.405 23.3465V14.8423H292.811V23.3465H291.405ZM294.486 19.1215C294.486 17.5507 294.919 16.4132 295.784 15.6548C296.486 15.0048 297.351 14.734 298.378 14.734C299.513 14.734 300.432 15.1132 301.189 15.8715C301.892 16.6298 302.27 17.659 302.27 19.0132C302.27 20.0965 302.108 20.9632 301.784 21.559C301.459 22.209 300.973 22.6423 300.378 23.0215C299.784 23.3465 299.081 23.5632 298.378 23.5632C297.189 23.5632 296.27 23.184 295.567 22.4257C294.865 21.6673 294.486 20.584 294.486 19.1215ZM295.946 19.1215C295.946 20.2048 296.162 21.0173 296.648 21.559C297.135 22.1007 297.729 22.3715 298.432 22.3715C299.135 22.3715 299.729 22.1007 300.162 21.559C300.648 21.0173 300.865 20.2048 300.865 19.0673C300.865 18.0382 300.648 17.2257 300.162 16.684C299.675 16.1423 299.135 15.8715 298.432 15.8715C297.729 15.8715 297.135 16.1423 296.648 16.684C296.162 17.2257 295.946 18.0382 295.946 19.1215ZM304 23.3465V14.8423H305.243V16.034C305.838 15.1132 306.757 14.6257 307.892 14.6257C308.378 14.6257 308.865 14.734 309.297 14.8965C309.729 15.059 310.054 15.3298 310.216 15.6007C310.432 15.9257 310.594 16.2507 310.648 16.684C310.648 16.9548 310.702 17.4423 310.702 18.0923V23.2923H309.297V18.1465C309.297 17.5507 309.297 17.1173 309.135 16.8465C309.027 16.5757 308.811 16.3048 308.54 16.1423C308.27 15.9798 307.946 15.8715 307.567 15.8715C306.973 15.8715 306.432 16.0882 306 16.4673C305.567 16.8465 305.351 17.6048 305.351 18.6882V23.2923H303.946L304 23.3465ZM318.432 22.2632C317.892 22.6965 317.405 23.0215 316.919 23.2382C316.432 23.4007 315.892 23.509 315.351 23.509C314.432 23.509 313.729 23.2923 313.243 22.8048C312.757 22.3715 312.486 21.7757 312.486 21.0715C312.486 20.6382 312.594 20.259 312.757 19.934C312.919 19.609 313.189 19.3382 313.513 19.1215C313.838 18.9048 314.162 18.7423 314.54 18.634C314.811 18.5798 315.243 18.4715 315.784 18.4173C316.919 18.309 317.784 18.0923 318.324 17.9298C318.324 17.7132 318.324 17.6048 318.324 17.5507C318.324 16.9548 318.216 16.5757 317.946 16.3048C317.567 15.9798 317.027 15.8173 316.324 15.8173C315.675 15.8173 315.189 15.9257 314.865 16.1965C314.54 16.4132 314.324 16.8465 314.162 17.4423L312.757 17.2257C312.865 16.6298 313.081 16.1423 313.405 15.7632C313.675 15.384 314.108 15.1132 314.648 14.8965C315.189 14.6798 315.838 14.5715 316.54 14.5715C317.243 14.5715 317.838 14.6798 318.27 14.8423C318.702 15.0048 319.027 15.2215 319.243 15.4923C319.459 15.7632 319.621 16.0882 319.675 16.4673C319.675 16.7382 319.73 17.1715 319.73 17.7673V19.6632C319.73 21.0173 319.729 21.8298 319.838 22.209C319.892 22.5882 320 22.9132 320.162 23.2382H318.702C318.54 22.9132 318.486 22.5882 318.432 22.1548V22.2632ZM318.324 19.1215C317.784 19.3382 317.027 19.5007 316 19.6632C315.405 19.7715 315.027 19.8257 314.757 19.934C314.54 20.0423 314.324 20.2048 314.216 20.4215C314.108 20.6382 314 20.8548 314 21.1257C314 21.5048 314.162 21.8298 314.432 22.1007C314.702 22.3715 315.135 22.4798 315.675 22.4798C316.216 22.4798 316.702 22.3715 317.135 22.1007C317.567 21.884 317.892 21.559 318.054 21.1257C318.216 20.8007 318.27 20.3132 318.27 19.7173V19.1757L318.324 19.1215ZM321.946 23.3465V11.6465H323.351V23.3465H321.946ZM188.378 41.6007V29.9007H196.702V31.2548H189.946V34.8298H196.27V36.184H189.946V40.1923H196.973V41.5465H188.378V41.6007ZM198.919 41.6007V33.0965H200.162V34.2882C200.757 33.3673 201.675 32.8798 202.811 32.8798C203.297 32.8798 203.784 32.9882 204.216 33.1507C204.648 33.3132 204.973 33.584 205.135 33.8548C205.351 34.1257 205.513 34.5048 205.567 34.9382C205.567 35.209 205.621 35.6965 205.621 36.3465V41.5465H204.216V36.4007C204.216 35.8048 204.216 35.3715 204.054 35.1007C203.946 34.8298 203.729 34.559 203.459 34.3965C203.189 34.234 202.865 34.1257 202.486 34.1257C201.892 34.1257 201.351 34.3423 200.919 34.7215C200.486 35.1007 200.27 35.859 200.27 36.9423V41.5465H198.865L198.919 41.6007ZM210.973 40.3548L211.189 41.6007C210.811 41.709 210.432 41.709 210.108 41.709C209.621 41.709 209.189 41.6007 208.919 41.4382C208.648 41.2757 208.432 41.059 208.324 40.7882C208.216 40.5173 208.162 39.9757 208.162 39.109V34.234H207.135V33.0965H208.162V30.984L209.567 30.1173V33.0965H210.973V34.234H209.567V39.2173C209.567 39.6507 209.567 39.8673 209.621 40.0298C209.621 40.1382 209.729 40.2465 209.838 40.3007C209.946 40.3548 210.108 40.409 210.324 40.409C210.486 40.409 210.702 40.409 210.919 40.3548H210.973ZM212.378 41.6007V33.0965H213.675V34.3965C214 33.8007 214.324 33.4215 214.594 33.2048C214.865 32.9882 215.189 32.934 215.513 32.934C216 32.934 216.486 33.0965 216.973 33.3673L216.486 34.6673C216.162 34.4507 215.784 34.3965 215.459 34.3965C215.135 34.3965 214.865 34.5048 214.648 34.6673C214.378 34.8298 214.216 35.1007 214.108 35.4257C213.946 35.9132 213.892 36.509 213.892 37.1048V41.5465H212.486L212.378 41.6007ZM223.513 38.8923L224.973 39.109C224.757 39.9757 224.324 40.6257 223.675 41.1132C223.081 41.6007 222.27 41.8173 221.297 41.8173C220.108 41.8173 219.135 41.4382 218.432 40.6798C217.729 39.9215 217.351 38.8382 217.351 37.484C217.351 36.1298 217.729 34.9382 218.432 34.1798C219.135 33.3673 220.108 32.9882 221.243 32.9882C222.378 32.9882 223.243 33.3673 223.946 34.1257C224.648 34.884 225.027 35.9673 225.027 37.3757C225.027 37.484 225.027 37.5923 225.027 37.7548H218.811C218.811 38.6757 219.135 39.3798 219.567 39.8673C220.054 40.3548 220.594 40.6257 221.297 40.6257C221.838 40.6257 222.27 40.4632 222.594 40.1923C222.973 39.9215 223.243 39.4882 223.459 38.8382L223.513 38.8923ZM218.865 36.5632H223.513C223.459 35.859 223.297 35.3173 222.973 34.9382C222.54 34.3965 221.946 34.1257 221.243 34.1257C220.594 34.1257 220.054 34.3423 219.621 34.7757C219.189 35.209 218.919 35.8048 218.865 36.5632ZM226.757 44.8507V33.0965H228.054V34.234C228.378 33.8007 228.702 33.4757 229.081 33.259C229.459 33.0423 229.946 32.934 230.486 32.934C231.189 32.934 231.838 33.0965 232.378 33.4757C232.919 33.8548 233.351 34.3965 233.621 35.0465C233.892 35.7507 234.054 36.4548 234.054 37.2673C234.054 38.134 233.892 38.8923 233.621 39.5965C233.297 40.3007 232.865 40.8423 232.27 41.1673C231.675 41.5465 231.081 41.709 230.432 41.709C229.946 41.709 229.513 41.6007 229.189 41.384C228.811 41.1673 228.486 40.9507 228.27 40.6257V44.7423H226.865L226.757 44.8507ZM228.054 37.4298C228.054 38.5132 228.27 39.3257 228.702 39.8132C229.135 40.3548 229.675 40.5715 230.27 40.5715C230.865 40.5715 231.459 40.3007 231.892 39.759C232.324 39.2173 232.54 38.4048 232.54 37.2673C232.54 36.1298 232.324 35.3715 231.892 34.8298C231.459 34.2882 230.919 34.0173 230.324 34.0173C229.729 34.0173 229.189 34.2882 228.757 34.884C228.27 35.4798 228.054 36.2923 228.054 37.3757V37.4298ZM235.729 41.6007V33.0965H236.973V34.3965C237.297 33.8007 237.621 33.4215 237.892 33.2048C238.162 32.9882 238.486 32.934 238.811 32.934C239.297 32.934 239.784 33.0965 240.27 33.3673L239.784 34.6673C239.459 34.4507 239.081 34.3965 238.757 34.3965C238.432 34.3965 238.162 34.5048 237.946 34.6673C237.675 34.8298 237.513 35.1007 237.405 35.4257C237.243 35.9132 237.189 36.509 237.189 37.1048V41.5465H235.784L235.729 41.6007ZM246.865 38.8923L248.324 39.109C248.108 39.9757 247.675 40.6257 247.027 41.1132C246.432 41.6007 245.621 41.8173 244.648 41.8173C243.459 41.8173 242.486 41.4382 241.73 40.6798C241.027 39.9215 240.648 38.8382 240.648 37.484C240.648 36.1298 241.027 34.9382 241.73 34.1798C242.432 33.3673 243.405 32.9882 244.54 32.9882C245.675 32.9882 246.54 33.3673 247.243 34.1257C247.946 34.884 248.324 35.9673 248.324 37.3757C248.324 37.484 248.324 37.5923 248.324 37.7548H242.108C242.108 38.6757 242.432 39.3798 242.865 39.8673C243.351 40.3548 243.892 40.6257 244.594 40.6257C245.135 40.6257 245.567 40.4632 245.892 40.1923C246.27 39.9215 246.54 39.4882 246.757 38.8382L246.865 38.8923ZM242.216 36.5632H246.865C246.811 35.859 246.648 35.3173 246.324 34.9382C245.892 34.3965 245.297 34.1257 244.594 34.1257C243.946 34.1257 243.405 34.3423 242.973 34.7757C242.54 35.209 242.27 35.8048 242.216 36.5632ZM250.162 41.6007V33.0965H251.405V34.2882C252 33.3673 252.919 32.8798 254.054 32.8798C254.54 32.8798 255.027 32.9882 255.459 33.1507C255.892 33.3132 256.216 33.584 256.378 33.8548C256.594 34.1257 256.757 34.5048 256.811 34.9382C256.811 35.209 256.865 35.6965 256.865 36.3465V41.5465H255.459V36.4007C255.459 35.8048 255.459 35.3715 255.297 35.1007C255.189 34.8298 254.973 34.559 254.702 34.3965C254.432 34.234 254.108 34.1257 253.729 34.1257C253.135 34.1257 252.594 34.3423 252.162 34.7215C251.73 35.1007 251.513 35.859 251.513 36.9423V41.5465H250.108L250.162 41.6007ZM264.811 38.8923L266.27 39.109C266.054 39.9757 265.621 40.6257 264.973 41.1132C264.324 41.6007 263.567 41.8173 262.594 41.8173C261.405 41.8173 260.432 41.4382 259.729 40.6798C259.027 39.9215 258.648 38.8382 258.648 37.484C258.648 36.1298 259.027 34.9382 259.729 34.1798C260.432 33.3673 261.405 32.9882 262.54 32.9882C263.675 32.9882 264.54 33.3673 265.243 34.1257C265.946 34.884 266.324 35.9673 266.324 37.3757C266.324 37.484 266.324 37.5923 266.324 37.7548H260.108C260.108 38.6757 260.432 39.3798 260.865 39.8673C261.351 40.3548 261.892 40.6257 262.594 40.6257C263.135 40.6257 263.567 40.4632 263.892 40.1923C264.27 39.9215 264.54 39.4882 264.757 38.8382L264.811 38.8923ZM260.162 36.5632H264.811C264.757 35.859 264.594 35.3173 264.27 34.9382C263.838 34.3965 263.243 34.1257 262.54 34.1257C261.892 34.1257 261.351 34.3423 260.919 34.7757C260.486 35.209 260.216 35.8048 260.162 36.5632ZM273.567 41.6007V40.3548C272.919 41.3298 272.054 41.8173 270.919 41.8173C270.432 41.8173 269.946 41.709 269.567 41.5465C269.135 41.3298 268.811 41.1132 268.594 40.8423C268.378 40.5715 268.216 40.1923 268.162 39.759C268.108 39.4882 268.054 39.0548 268.054 38.4048V33.1507H269.459V37.8632C269.459 38.6215 269.459 39.109 269.567 39.3798C269.675 39.759 269.838 40.0298 270.108 40.2465C270.378 40.4632 270.757 40.5715 271.189 40.5715C271.621 40.5715 272 40.4632 272.378 40.2465C272.757 40.0298 273.027 39.7048 273.189 39.3257C273.351 38.9465 273.405 38.4048 273.405 37.6465V33.0965H274.811V41.6007H273.567ZM277.081 41.6007V33.0965H278.324V34.3965C278.648 33.8007 278.973 33.4215 279.243 33.2048C279.513 32.9882 279.838 32.934 280.162 32.934C280.648 32.934 281.135 33.0965 281.621 33.3673L281.135 34.6673C280.811 34.4507 280.432 34.3965 280.108 34.3965C279.784 34.3965 279.513 34.5048 279.297 34.6673C279.027 34.8298 278.865 35.1007 278.757 35.4257C278.594 35.9132 278.54 36.509 278.54 37.1048V41.5465H277.135L277.081 41.6007ZM281.892 39.0548L283.297 38.8382C283.351 39.434 283.621 39.8673 283.946 40.1382C284.324 40.4632 284.811 40.5715 285.459 40.5715C286.108 40.5715 286.594 40.4632 286.919 40.1923C287.243 39.9215 287.405 39.5965 287.405 39.2715C287.405 38.9465 287.243 38.6757 286.973 38.5132C286.757 38.4048 286.27 38.2423 285.513 38.0257C284.486 37.7548 283.784 37.5382 283.351 37.3215C282.973 37.1048 282.648 36.834 282.432 36.509C282.216 36.184 282.108 35.8048 282.108 35.3715C282.108 34.9923 282.216 34.6673 282.378 34.3423C282.54 34.0173 282.757 33.7465 283.081 33.5298C283.297 33.3673 283.621 33.2048 284 33.0965C284.378 32.9882 284.757 32.934 285.243 32.934C285.892 32.934 286.486 33.0423 286.973 33.2048C287.459 33.4215 287.838 33.6382 288.054 33.9632C288.27 34.2882 288.432 34.7215 288.54 35.2632L287.135 35.4798C287.081 35.0465 286.919 34.6673 286.594 34.4507C286.27 34.1798 285.892 34.0715 285.297 34.0715C284.648 34.0715 284.216 34.1798 283.892 34.3965C283.621 34.6132 283.459 34.884 283.459 35.1548C283.459 35.3173 283.513 35.534 283.621 35.6423C283.729 35.8048 283.892 35.9132 284.162 36.0215C284.324 36.0215 284.702 36.184 285.405 36.4007C286.378 36.6715 287.081 36.8882 287.513 37.0507C287.892 37.2132 288.216 37.484 288.432 37.809C288.648 38.134 288.757 38.5673 288.757 39.0548C288.757 39.5423 288.594 39.9757 288.324 40.409C288.054 40.8423 287.675 41.1673 287.135 41.384C286.594 41.6007 286.054 41.709 285.351 41.709C284.27 41.709 283.459 41.4923 282.865 41.0048C282.324 40.5715 281.946 39.8673 281.784 39.0007L281.892 39.0548ZM290.54 41.6007V29.9007H291.946V34.1257C292.594 33.3673 293.405 32.934 294.432 32.934C295.027 32.934 295.567 33.0423 296.054 33.3132C296.486 33.584 296.811 33.909 297.027 34.3423C297.243 34.7757 297.297 35.4257 297.297 36.2382V41.6007H295.892V36.2382C295.892 35.534 295.729 34.9923 295.459 34.6673C295.135 34.3423 294.702 34.1798 294.162 34.1798C293.729 34.1798 293.351 34.2882 292.973 34.5048C292.594 34.7215 292.324 35.0465 292.162 35.4257C292 35.8048 291.946 36.3465 291.946 36.9965V41.6007H290.54ZM299.513 31.5257V29.9007H300.919V31.5257H299.513ZM299.513 41.6007V33.0965H300.919V41.6007H299.513ZM303.135 44.8507V33.0965H304.432V34.234C304.757 33.8007 305.081 33.4757 305.459 33.259C305.838 33.0423 306.324 32.934 306.865 32.934C307.567 32.934 308.216 33.0965 308.757 33.4757C309.297 33.8548 309.729 34.3965 310 35.0465C310.27 35.7507 310.432 36.4548 310.432 37.2673C310.432 38.134 310.27 38.8923 310 39.5965C309.675 40.3007 309.243 40.8423 308.648 41.1673C308.054 41.5465 307.459 41.709 306.811 41.709C306.324 41.709 305.892 41.6007 305.567 41.384C305.189 41.1673 304.865 40.9507 304.648 40.6257V44.7423H303.243L303.135 44.8507ZM304.432 37.4298C304.432 38.5132 304.648 39.3257 305.081 39.8132C305.513 40.3548 306.054 40.5715 306.648 40.5715C307.243 40.5715 307.838 40.3007 308.27 39.759C308.702 39.2173 308.919 38.4048 308.919 37.2673C308.919 36.1298 308.702 35.3715 308.27 34.8298C307.838 34.2882 307.297 34.0173 306.702 34.0173C306.108 34.0173 305.567 34.2882 305.135 34.884C304.648 35.4798 304.432 36.2923 304.432 37.3757V37.4298ZM316.811 41.6007V29.9007H324.594V31.2548H318.378V34.884H323.784V36.2382H318.378V41.5465H316.865L316.811 41.6007ZM325.892 37.3757C325.892 35.8048 326.324 34.6673 327.189 33.909C327.892 33.259 328.757 32.9882 329.838 32.9882C330.973 32.9882 331.892 33.3673 332.648 34.1257C333.351 34.884 333.73 35.9132 333.73 37.2673C333.73 38.3507 333.567 39.2173 333.243 39.8132C332.919 40.4632 332.432 40.8965 331.838 41.2757C331.243 41.6007 330.54 41.8173 329.838 41.8173C328.648 41.8173 327.729 41.4382 327.027 40.6798C326.324 39.9215 325.946 38.8382 325.946 37.3757H325.892ZM327.297 37.3757C327.297 38.459 327.513 39.2715 328 39.8132C328.486 40.3548 329.081 40.6257 329.784 40.6257C330.486 40.6257 331.081 40.3548 331.513 39.8132C332 39.2715 332.216 38.459 332.216 37.3215C332.216 36.2923 332 35.4798 331.513 34.9382C331.027 34.3965 330.486 34.1257 329.784 34.1257C329.081 34.1257 328.486 34.3965 328 34.9382C327.513 35.4798 327.297 36.2923 327.297 37.3757ZM340.811 41.6007V40.3548C340.162 41.3298 339.297 41.8173 338.162 41.8173C337.675 41.8173 337.189 41.709 336.811 41.5465C336.378 41.3298 336.054 41.1132 335.838 40.8423C335.621 40.5715 335.513 40.1923 335.405 39.759C335.351 39.4882 335.297 39.0548 335.297 38.4048V33.1507H336.702V37.8632C336.702 38.6215 336.702 39.109 336.811 39.3798C336.919 39.759 337.081 40.0298 337.351 40.2465C337.621 40.4632 338 40.5715 338.432 40.5715C338.865 40.5715 339.243 40.4632 339.621 40.2465C340 40.0298 340.27 39.7048 340.432 39.3257C340.594 38.9465 340.648 38.4048 340.648 37.6465V33.0965H342.054V41.6007H340.811ZM344.378 41.6007V33.0965H345.621V34.2882C346.216 33.3673 347.135 32.8798 348.27 32.8798C348.757 32.8798 349.243 32.9882 349.675 33.1507C350.108 33.3132 350.432 33.584 350.594 33.8548C350.811 34.1257 350.973 34.5048 351.027 34.9382C351.027 35.209 351.081 35.6965 351.081 36.3465V41.5465H349.675V36.4007C349.675 35.8048 349.675 35.3715 349.513 35.1007C349.405 34.8298 349.189 34.559 348.919 34.3965C348.648 34.234 348.324 34.1257 347.946 34.1257C347.351 34.1257 346.811 34.3423 346.378 34.7215C345.946 35.1007 345.729 35.859 345.729 36.9423V41.5465H344.324L344.378 41.6007Z" fill="#FBF9F6"/>
<path fill-rule="evenodd" clip-rule="evenodd" d="M358.702 41.6004V40.5171C358.162 41.3296 357.405 41.7629 356.378 41.7629C355.729 41.7629 355.081 41.6004 354.54 41.2212C354 40.8421 353.567 40.3546 353.243 39.6504C352.919 39.0004 352.811 38.2421 352.811 37.3754C352.811 36.5087 352.973 35.7504 353.243 35.1004C353.513 34.3962 353.946 33.9087 354.486 33.5296C355.027 33.1504 355.675 32.9879 356.324 32.9879C356.811 32.9879 357.297 33.0962 357.675 33.3129C358.054 33.5296 358.378 33.8004 358.648 34.1796V29.9546H360.054V41.6546H358.757L358.702 41.6004ZM354.27 37.3754C354.27 38.4587 354.486 39.2712 354.973 39.8129C355.405 40.3546 355.946 40.6254 356.594 40.6254C357.243 40.6254 357.729 40.3546 358.162 39.8671C358.594 39.3796 358.811 38.5671 358.811 37.5379C358.811 36.4004 358.594 35.5337 358.162 34.9921C357.729 34.4504 357.189 34.1796 356.54 34.1796C355.892 34.1796 355.405 34.4504 354.973 34.9379C354.54 35.4796 354.324 36.2921 354.324 37.3754H354.27ZM367.784 40.5712C367.243 41.0046 366.757 41.3296 366.27 41.5462C365.784 41.7087 365.243 41.8171 364.702 41.8171C363.784 41.8171 363.081 41.6004 362.594 41.1129C362.108 40.6796 361.838 40.0837 361.838 39.3796C361.838 38.9462 361.946 38.5671 362.108 38.2421C362.27 37.9171 362.54 37.6462 362.865 37.4296C363.189 37.2129 363.513 37.0504 363.892 36.9421C364.162 36.8879 364.594 36.7796 365.135 36.7254C366.27 36.5629 367.135 36.4004 367.675 36.2379C367.675 36.0212 367.675 35.9129 367.675 35.8587C367.675 35.2629 367.567 34.8837 367.297 34.6129C366.919 34.2879 366.378 34.1254 365.675 34.1254C365.027 34.1254 364.54 34.2337 364.216 34.5046C363.892 34.7212 363.675 35.1546 363.513 35.7504L362.108 35.5337C362.216 34.9379 362.432 34.4504 362.757 34.0712C363.027 33.6921 363.459 33.4212 364 33.2046C364.54 32.9879 365.189 32.8796 365.892 32.8796C366.594 32.8796 367.189 32.9879 367.621 33.1504C368.054 33.3129 368.378 33.5296 368.594 33.8004C368.811 34.0712 368.973 34.3962 369.027 34.7754C369.027 35.0462 369.081 35.4796 369.081 36.0754V37.9712C369.081 39.3254 369.081 40.1379 369.189 40.5171C369.243 40.8962 369.351 41.2212 369.513 41.5462H368.054C367.892 41.2212 367.838 40.8962 367.784 40.4629V40.5712ZM367.675 37.3754C367.135 37.5921 366.378 37.7546 365.351 37.9171C364.756 38.0254 364.378 38.0796 364.108 38.1879C363.838 38.2962 363.675 38.4587 363.567 38.6754C363.459 38.8921 363.351 39.1087 363.351 39.3796C363.351 39.7587 363.513 40.0837 363.784 40.3546C364.054 40.6254 364.486 40.7337 365.027 40.7337C365.567 40.7337 366.054 40.6254 366.486 40.3546C366.919 40.1379 367.243 39.8129 367.405 39.3796C367.567 39.0546 367.621 38.5671 367.621 37.9712V37.4296L367.675 37.3754ZM374.378 40.3546L374.594 41.6004C374.216 41.7087 373.838 41.7087 373.513 41.7087C373.027 41.7087 372.594 41.6004 372.324 41.4379C372.054 41.2754 371.838 41.0587 371.729 40.7879C371.621 40.5171 371.567 39.9754 371.567 39.1087V34.2337H370.54V33.0962H371.567V30.9837L372.973 30.1171V33.0962H374.378V34.2337H372.973V39.2171C372.973 39.6504 372.973 39.8671 373.027 40.0296C373.027 40.1379 373.135 40.2462 373.243 40.3004C373.351 40.3546 373.513 40.4087 373.729 40.4087C373.892 40.4087 374.108 40.4087 374.324 40.3546H374.378ZM375.838 31.5254V29.9004H377.243V31.5254H375.838ZM375.838 41.6004V33.0962H377.243V41.6004H375.838ZM378.919 37.3754C378.919 35.8046 379.351 34.6671 380.216 33.9087C380.919 33.2587 381.784 32.9879 382.865 32.9879C384 32.9879 384.919 33.3671 385.675 34.1254C386.378 34.8837 386.757 35.9129 386.757 37.2671C386.757 38.3504 386.594 39.2171 386.27 39.8129C385.946 40.4629 385.459 40.8962 384.865 41.2754C384.27 41.6004 383.567 41.8171 382.865 41.8171C381.675 41.8171 380.757 41.4379 380.054 40.6796C379.351 39.9212 378.973 38.8379 378.973 37.3754H378.919ZM380.324 37.3754C380.324 38.4587 380.54 39.2712 381.027 39.8129C381.513 40.3546 382.108 40.6254 382.811 40.6254C383.513 40.6254 384.108 40.3546 384.54 39.8129C385.027 39.2712 385.243 38.4587 385.243 37.3212C385.243 36.2921 385.027 35.4796 384.54 34.9379C384.054 34.3962 383.513 34.1254 382.811 34.1254C382.108 34.1254 381.513 34.3962 381.027 34.9379C380.54 35.4796 380.324 36.2921 380.324 37.3754ZM388.432 41.6004V33.0962H389.675V34.2879C390.27 33.3671 391.189 32.8796 392.324 32.8796C392.811 32.8796 393.297 32.9879 393.729 33.1504C394.162 33.3129 394.486 33.5837 394.648 33.8546C394.865 34.1254 395.027 34.5046 395.081 34.9379C395.081 35.2087 395.135 35.6962 395.135 36.3462V41.5462H393.729V36.4004C393.729 35.8046 393.675 35.3712 393.567 35.1004C393.459 34.8296 393.243 34.5587 392.973 34.3962C392.702 34.2337 392.378 34.1254 392 34.1254C391.405 34.1254 390.865 34.3421 390.432 34.7212C390 35.1004 389.784 35.8587 389.784 36.9421V41.5462H388.378L388.432 41.6004Z" fill="#FBF9F6"/>
<path fill-rule="evenodd" clip-rule="evenodd" d="M91.2434 58.2299C90.7029 57.7965 90.6488 57.634 91.0813 57.634C91.5137 57.634 92.3786 57.634 93.6218 57.5257C94.865 57.4174 96.2164 57.2549 97.6218 57.0382C99.0272 56.8215 100.27 56.6049 101.406 56.4424C102.487 56.2257 103.406 56.334 104 56.659C104.649 56.984 104.919 57.2549 104.865 57.4715C104.811 57.6882 104.487 57.7965 104 57.7424C103.46 57.7424 102.649 57.6882 101.622 57.6882C100.595 57.6882 99.4056 57.6882 98.2164 57.8507C97.0272 57.959 96.0002 58.0674 95.1353 58.2299C94.3245 58.3924 93.6218 58.5007 93.0272 58.6632C92.4326 58.7715 91.8921 58.6632 91.2975 58.284L91.2434 58.2299ZM107.784 58.3382C108.649 58.0132 109.243 57.8507 109.622 57.7424C109.622 60.0715 109.622 61.4799 109.622 61.9132C109.622 62.3465 109.46 62.5632 109.243 62.5632C109.027 62.5632 108.703 62.4549 108.27 62.2924C107.838 62.1299 107.784 62.2382 108.162 62.509C108.487 62.7799 108.757 63.0507 108.919 63.3215C109.081 63.5382 109.189 63.809 109.297 64.0257C109.406 64.2424 109.568 64.1882 109.892 63.8632C110.162 63.5382 110.325 63.159 110.433 62.834C110.541 62.509 110.541 61.9674 110.541 61.2632C110.541 60.559 110.541 59.584 110.487 58.3924C110.487 57.2007 110.487 56.334 110.487 55.7924C110.487 55.2507 110.487 54.8715 110.541 54.709C110.541 54.5465 110.703 54.384 110.865 54.2215C111.027 54.059 110.973 53.8965 110.703 53.6799C110.433 53.4632 110.216 53.3549 110.054 53.3007C109.892 53.3007 109.73 53.3007 109.568 53.409C109.406 53.5174 108.919 53.6799 108.054 53.8965C109.135 52.5965 109.946 51.8382 110.325 51.5674C110.757 51.2965 110.649 51.0257 109.946 50.7007C109.352 50.4299 109.081 50.4299 109.135 50.6465C109.189 50.8632 109.135 51.134 109.081 51.459C108.973 51.784 108.487 52.5965 107.622 53.8965C107.243 53.8965 106.973 53.8965 106.811 53.8965C106.649 53.8965 106.595 54.0049 106.757 54.2215C106.865 54.4382 106.973 54.709 107.027 54.9257C107.027 55.1424 107.081 55.5215 107.135 55.9549C107.135 56.4424 107.135 57.0924 107.135 58.0132C105.838 58.3382 104.919 58.5549 104.541 58.609C104.108 58.609 104 58.7715 104.162 58.934C104.325 59.0965 104.541 59.259 104.757 59.3674C104.973 59.4757 105.189 59.4757 105.352 59.3674C105.514 59.259 106.108 59.0424 107.135 58.7174C107.027 59.4757 106.811 60.234 106.541 60.9382C106.27 61.6424 106.054 62.184 105.784 62.509C105.514 62.834 105.297 63.159 105.081 63.484C104.865 63.7549 104.811 63.9174 104.865 63.9174C104.919 63.9174 105.081 63.809 105.297 63.6465C105.514 63.484 105.784 63.2132 106.162 62.7799C106.541 62.4007 106.919 61.7507 107.297 60.884C107.676 60.0174 107.838 59.2049 107.892 58.3382H107.784ZM114.703 61.1007C115.189 61.6424 115.676 62.0757 116.27 62.4007C116.865 62.6715 117.73 62.9965 118.811 63.2674C119.243 63.3757 119.297 63.4299 119.081 63.5382C118.811 63.6465 118.487 63.7007 118.108 63.7549C117.73 63.809 117.297 63.8632 116.865 63.9174C116.433 63.9174 116.054 63.7549 115.622 63.3757C115.243 62.9965 114.757 62.4549 114.216 61.8049C113.784 62.2924 113.352 62.7257 112.865 63.0507C112.379 63.3757 112 63.5924 111.568 63.7007C111.189 63.809 110.811 63.8632 110.487 63.8632C110.162 63.8632 110.162 63.809 110.487 63.6465C110.811 63.484 111.352 63.2674 111.946 62.834C112.541 62.4549 113.135 61.859 113.622 61.1549C113.352 60.8299 113.081 60.5049 112.703 60.1799C112.325 59.8007 112 59.584 111.676 59.4215C111.352 59.259 111.243 59.1507 111.46 59.0965C111.676 59.0424 111.838 58.9882 112 59.0424C112.162 59.0424 112.433 59.259 112.811 59.584L113.946 60.6132C114.216 60.1257 114.379 59.5299 114.433 58.934C114.541 58.3382 114.433 58.0132 114.324 58.0132C114.216 58.0132 113.946 58.0132 113.622 58.1757C113.352 58.284 113.081 58.3924 112.811 58.4465C112.595 58.5007 112.324 58.4465 112.108 58.2299C111.892 58.0132 111.892 57.9049 112.216 57.9049C112.541 57.9049 112.919 57.7965 113.297 57.6882C113.676 57.5799 114 57.4174 114.216 57.309C114.433 57.2007 114.649 57.1465 114.865 57.2007C115.135 57.2549 115.352 57.3632 115.622 57.4715C115.838 57.5799 115.892 57.7424 115.73 57.959C115.568 58.1757 115.406 58.6632 115.243 59.3132C115.081 59.9632 114.919 60.6132 114.649 61.209L114.703 61.1007ZM113.027 53.2465C113.676 53.084 114.054 52.9757 114.216 52.9757C114.379 52.9757 114.433 53.2465 114.433 53.7882C114.433 54.3299 114.433 54.9257 114.433 55.5215C114.433 56.1174 114.811 56.4424 115.46 56.5507C116.487 56.5507 117.135 56.3882 117.46 56.2257C117.784 56.0632 117.784 55.9007 117.568 55.684C117.297 55.4674 117.027 55.4674 116.757 55.5757C116.487 55.684 116.108 55.7382 115.676 55.7382C115.243 55.7382 115.027 55.4132 115.081 54.8715C115.081 54.3299 115.135 53.8965 115.243 53.6257C115.352 53.3549 115.46 53.1382 115.676 52.9757C115.892 52.8132 115.838 52.7049 115.568 52.5424C115.297 52.3799 115.081 52.2715 114.919 52.2174C114.757 52.1632 114.541 52.2174 114.324 52.3257C114.108 52.434 113.838 52.5965 113.46 52.6507C113.081 52.759 112.811 52.8132 112.595 52.759C112.379 52.759 112.216 52.759 112 52.759C111.784 52.759 111.784 52.8674 111.892 53.0299C112 53.1924 112.108 53.409 112.162 53.6257C112.216 53.8424 112.216 54.2757 112.162 54.9257C112.108 55.5757 112 56.0632 111.838 56.4424C111.676 56.8215 111.46 57.1465 111.243 57.4174C111.027 57.6882 111.081 57.7424 111.46 57.5799C111.784 57.4174 112.108 57.1465 112.325 56.8215C112.541 56.4965 112.703 56.0632 112.811 55.4674C112.919 54.8715 112.973 54.1674 113.027 53.2465ZM109.676 57.309C109.352 57.4174 108.703 57.5257 107.838 57.7424V54.2757C108.325 54.1674 108.757 54.059 109.027 54.0049C109.297 54.0049 109.514 54.0049 109.568 54.2757C109.622 54.4924 109.676 55.4674 109.676 57.2549V57.309ZM108.757 59.2049C109.243 59.4215 109.352 59.7465 109.189 60.1799C108.973 60.6132 108.757 60.4507 108.379 59.6924C107.892 58.9882 108 58.8257 108.757 59.2049ZM108.325 55.9007C108.325 55.9007 108.108 55.5757 108.054 55.4132C108 55.2507 108.216 55.2507 108.649 55.4132C109.135 55.5215 109.297 55.8465 109.243 56.2799C109.189 56.7132 108.865 56.6049 108.379 55.9549L108.325 55.9007ZM123.135 58.8257C123.135 59.3132 123.189 59.6382 123.297 59.8007C123.406 59.9632 123.514 59.909 123.622 59.6924C123.73 59.4215 123.838 59.1507 123.892 58.8799C123.892 58.609 123.892 58.284 123.892 57.959C123.892 57.634 123.892 57.0382 123.892 56.0632C123.892 55.1424 123.946 54.4924 124 54.1674C124.054 53.8424 124.162 53.5715 124.27 53.409C124.379 53.2465 124.379 53.084 124.162 52.9215C123.946 52.759 123.73 52.5965 123.46 52.434C123.189 52.2715 122.919 52.2715 122.649 52.434C122.379 52.5965 121.892 52.759 121.243 52.8674C120.595 52.9757 120.054 53.0299 119.73 52.9757C119.352 52.9215 119.243 52.9757 119.406 53.2465C119.568 53.5174 119.676 53.8965 119.676 54.384C119.676 54.8715 119.73 55.5757 119.73 56.4424C119.73 57.309 119.73 57.9049 119.568 58.284C119.46 58.6632 119.514 59.0965 119.676 59.584C119.892 60.0715 120.054 59.909 120.27 59.1507C120.811 59.1507 121.243 59.0424 121.568 59.0424C121.892 59.0424 122.379 58.934 123.081 58.7715L123.135 58.8257ZM129.297 55.034C130.108 54.8715 130.703 54.7632 131.027 54.709C131.352 54.6549 131.676 54.6549 131.946 54.709C132.216 54.709 132.379 54.8715 132.487 54.9799C132.595 55.1424 132.487 55.2507 132.216 55.359C131.946 55.4674 130.973 55.6299 129.297 55.9549C129.297 58.0674 129.297 59.6924 129.406 60.8299C129.514 61.9674 129.406 62.7799 129.189 63.3757C128.973 63.9174 128.757 64.2965 128.595 64.4049C128.379 64.5674 128.216 64.4049 127.946 64.0257C127.73 63.6465 127.297 63.2132 126.757 62.834C126.216 62.4549 126.27 62.2924 126.973 62.4007C127.676 62.509 128.108 62.509 128.216 62.509C128.379 62.509 128.487 62.184 128.487 61.4799C128.487 60.7757 128.487 59.4757 128.487 57.4715C127.784 58.3924 127.135 59.1507 126.433 59.7465C125.73 60.3424 125.189 60.7215 124.703 60.9382C124.216 61.1549 124.108 61.1007 124.433 60.8299C124.757 60.559 125.135 60.1799 125.568 59.7465C126 59.3132 126.487 58.7174 127.081 57.9049C127.676 57.1465 128 56.5507 128.216 56.0632C127.243 56.2799 126.487 56.3882 126 56.4424C125.514 56.4424 125.135 56.4424 124.811 56.334C124.487 56.2257 124.487 56.1174 124.703 56.0632C124.973 56.009 125.297 55.9549 125.676 55.8465C126.054 55.7924 127.027 55.5757 128.541 55.2507C128.541 54.1674 128.541 53.409 128.487 52.8674C128.487 52.3257 128.325 51.8924 128.108 51.5132C127.892 51.134 128 51.0257 128.487 51.134C128.919 51.2424 129.297 51.4049 129.568 51.5674C129.838 51.784 129.892 51.9465 129.676 52.1632C129.46 52.3799 129.352 52.759 129.352 53.3007C129.352 53.8424 129.297 54.4382 129.297 55.034ZM120.379 55.034V53.3549C120.379 53.3549 120.973 53.3549 121.406 53.2465C121.838 53.1382 122.162 53.1382 122.433 53.1382C122.703 53.1382 122.865 53.2465 122.973 53.409C123.081 53.5715 123.081 53.8424 123.081 54.1674V58.3382C122.757 58.2299 122.27 58.2299 121.676 58.4465C121.081 58.6632 120.595 58.7715 120.27 58.7715V57.2549C120.703 57.2549 121.135 57.2007 121.622 57.0382C122.108 56.9299 122.325 56.7132 122.216 56.5507C122.108 56.334 121.838 56.334 121.46 56.4965C121.027 56.659 120.703 56.7674 120.325 56.8215V55.4674C121.081 55.4674 121.622 55.4132 121.946 55.2507C122.27 55.1424 122.325 54.9799 122.162 54.8715C121.946 54.7632 121.676 54.709 121.297 54.8715C120.919 54.9799 120.595 55.034 120.379 55.034ZM120.865 59.909C120.541 59.8007 120.433 59.909 120.433 60.1257C120.433 60.3424 120.379 60.6674 120.162 61.0465C119.946 61.4257 119.73 61.8049 119.406 62.184C119.081 62.5632 118.811 62.8882 118.541 63.159C118.27 63.4299 118.27 63.5382 118.433 63.5382C118.649 63.5382 118.973 63.3215 119.46 62.9424C119.946 62.5632 120.379 62.1299 120.811 61.6424C121.189 61.1549 121.514 60.884 121.676 60.7757C121.838 60.6674 121.838 60.5049 121.676 60.3424C121.514 60.1799 121.243 60.0174 120.865 59.909ZM122.541 60.0174C122.919 60.1257 123.297 60.3424 123.568 60.6132C123.892 60.884 124.054 61.1549 124.108 61.4257C124.108 61.6965 124.108 61.9674 124 62.184C123.892 62.4007 123.73 62.4549 123.568 62.3465C123.406 62.2382 123.189 61.9674 122.919 61.5882C122.649 61.209 122.433 60.8299 122.216 60.3965C122 59.9632 122.108 59.8007 122.487 59.9632L122.541 60.0174ZM134.649 62.9965C134.433 64.0799 134.162 64.3507 133.892 63.809C133.568 63.2132 133.568 62.6715 133.73 62.1299C133.946 61.5882 134.054 60.6132 134.162 59.1507C134.27 57.6882 134.27 56.2257 134.27 54.8174C134.27 53.409 134.162 52.5424 134 52.2174C133.838 51.8924 133.892 51.784 134.216 51.8924C134.541 52.0007 134.865 52.109 135.189 52.1632C135.514 52.2174 136.703 52.1632 138.703 51.8924C140.703 51.6215 141.892 51.459 142.216 51.2965C142.541 51.134 142.919 51.134 143.243 51.2965C143.622 51.4049 143.946 51.6215 144.216 51.8924C144.541 52.1632 144.541 52.3799 144.325 52.5965C144.108 52.8132 144 53.409 144 54.384C144 55.359 144 56.4424 144.108 57.5257C144.162 58.6632 144.27 59.7465 144.325 60.884C144.433 61.9674 144.379 62.8882 144.325 63.484C144.216 64.134 144.054 64.5674 143.784 64.8924C143.514 65.2174 143.297 65.109 143.135 64.5674L142.757 63.4299C142.757 63.4299 142.433 62.9965 142.054 62.9424C141.676 62.8882 140.919 62.8882 139.784 62.9424L134.649 63.159V62.9965ZM134.649 62.4549C138.054 62.2924 140.162 62.1299 141.027 62.0215C141.892 61.9132 142.433 62.0215 142.703 62.2382C142.973 62.509 143.135 62.4549 143.189 62.1299C143.297 61.8049 143.297 60.884 143.297 59.4215C143.297 57.959 143.243 56.4965 143.135 55.0882C143.027 53.6799 142.973 52.759 142.919 52.434C142.865 52.109 142.433 51.9465 141.622 52.0549C140.811 52.1632 139.622 52.2715 138.054 52.3799C136.487 52.5424 135.46 52.5965 135.081 52.5965C134.973 56.2257 134.865 59.4757 134.703 62.4549H134.649ZM140.325 55.3049C140.325 54.5465 140.433 54.059 140.541 53.8965C140.649 53.734 140.541 53.5715 140.27 53.409C139.946 53.2465 139.676 53.1382 139.297 53.084C138.973 53.0299 138.919 53.1924 139.135 53.5715C139.352 53.9507 139.514 54.6007 139.514 55.4674C138.649 55.5757 137.946 55.684 137.352 55.7382C136.757 55.7924 136.27 55.8465 135.838 55.7924C135.46 55.7924 135.406 55.9007 135.73 56.1715C136.054 56.4424 136.379 56.4965 136.703 56.4424C137.027 56.3882 138 56.2257 139.514 56.009C139.514 57.9049 139.514 59.0424 139.406 59.4215C139.297 59.8007 139.135 60.0174 138.919 60.0174C138.703 60.0174 138.379 59.9632 137.946 59.8549C137.514 59.7465 137.568 59.8549 138.108 60.2882C138.649 60.6674 138.973 61.0465 139.027 61.534C139.135 62.0215 139.406 61.9674 139.838 61.4257C140.325 60.884 140.487 60.1799 140.433 59.3674C140.379 58.5549 140.325 57.4174 140.325 56.009C141.027 55.9007 141.73 55.9007 142.325 55.9007C142.919 55.9007 143.081 55.7924 142.757 55.4674C142.433 55.1424 142.162 55.034 141.838 55.1424C141.514 55.2507 141.027 55.3049 140.325 55.4132V55.3049ZM136.919 57.4715C137.189 57.959 137.514 58.3382 137.73 58.609C138 58.8799 138.162 58.8799 138.325 58.6632C138.433 58.4465 138.487 58.1757 138.325 57.8507C138.216 57.5257 137.892 57.2549 137.352 57.0924C136.811 56.8757 136.649 57.0924 136.919 57.5257V57.4715ZM155.027 54.6549C155.622 54.5465 156.108 54.384 156.487 54.3299C156.865 54.2215 157.189 54.3299 157.46 54.4924C157.73 54.709 157.622 54.9257 157.027 55.0882C156.487 55.3049 155.784 55.4132 154.973 55.5757V57.7965C156.649 57.5257 157.784 57.3632 158.325 57.309C158.865 57.2007 159.297 57.2549 159.676 57.309C160.054 57.4174 160.27 57.5799 160.433 57.8507C160.595 58.1215 160.433 58.2299 159.838 58.1757C159.297 58.1757 158.595 58.1757 157.73 58.2299C156.865 58.284 155.622 58.3924 154.054 58.609C154.541 59.0965 154.649 59.3674 154.487 59.4757C154.325 59.584 154.054 59.8549 153.73 60.234C153.406 60.6132 153.135 60.884 152.973 61.1549C152.757 61.4257 152.811 61.534 153.081 61.4799C153.352 61.4799 154.541 61.3174 156.541 61.1007C156.27 60.6132 156.054 60.234 155.892 59.909C155.676 59.584 155.73 59.4757 156.054 59.584C156.325 59.6924 156.703 59.909 157.081 60.234C157.46 60.559 157.784 60.9924 158.108 61.4257C158.433 61.9132 158.487 62.3465 158.379 62.8882C158.27 63.3757 158.054 63.484 157.784 63.2132C157.514 62.9424 157.189 62.4007 156.757 61.5882C154.595 61.9674 153.189 62.2924 152.487 62.509C151.784 62.7257 151.297 62.9965 150.973 63.2132C150.649 63.4299 150.487 63.3215 150.487 62.7799C150.487 62.2382 150.649 61.9132 150.973 61.8049C151.297 61.6965 151.568 61.5882 151.784 61.3715C152 61.209 152.325 60.884 152.757 60.3965C153.135 59.909 153.406 59.3674 153.514 58.7174C152.595 58.8799 151.946 59.0424 151.514 59.1507C151.135 59.259 150.757 59.1507 150.379 58.8799C150 58.609 150.054 58.4465 150.595 58.4465C151.135 58.4465 152.325 58.2299 154.108 57.8507V55.7382C153.406 55.8465 152.865 55.7382 152.487 55.6299C152.108 55.4674 152.108 55.3049 152.487 55.2507C152.919 55.1424 153.46 55.034 154.054 54.8715C154.054 54.1132 154.054 53.409 154.054 52.759C154.054 52.109 153.946 51.5674 153.73 51.2424C153.514 50.8632 153.622 50.7549 154 50.809C154.379 50.8632 154.757 51.0257 155.081 51.2424C155.406 51.459 155.514 51.7299 155.297 52.0549C155.081 52.3799 154.973 53.2465 154.973 54.709L155.027 54.6549ZM149.406 59.2049C150.216 57.5257 150.27 57.1465 149.622 58.1757C148.919 59.1507 148.433 59.8549 148.108 60.234C147.784 60.6132 147.514 60.8299 147.243 60.9382C146.973 61.0465 146.919 61.2632 147.081 61.6965C147.243 62.0757 147.46 62.4549 147.73 62.834C148 63.159 148.216 62.9965 148.325 62.3465C148.433 61.6424 148.757 60.6674 149.352 59.259L149.406 59.2049ZM149.784 53.8965C150.325 54.4382 150.649 54.4924 150.703 54.0049C150.757 53.5174 150.649 53.1382 150.27 52.8674C149.946 52.5965 149.568 52.434 149.243 52.3799C148.865 52.3799 148.757 52.5424 148.919 52.8674C149.081 53.1924 149.352 53.5715 149.784 53.8965ZM147.676 56.6049C147.406 56.2799 147.189 55.9549 147.081 55.684C146.973 55.4132 147.189 55.359 147.73 55.4674C148.27 55.5757 148.595 55.7924 148.757 56.1174C148.919 56.3882 148.919 56.7132 148.757 56.984C148.595 57.2549 148.216 57.1465 147.622 56.6049H147.676ZM166.27 55.9549C166.541 55.359 166.757 54.8174 167.027 54.2757C167.243 53.734 167.46 53.3549 167.676 53.1382C167.892 52.9215 167.892 52.7049 167.622 52.4882C167.352 52.2715 167.027 52.0549 166.541 51.8382C166.054 51.6215 165.892 51.7299 166.054 52.2174C166.216 52.7049 166.162 53.3007 165.892 54.059C165.622 54.8174 165.189 55.7382 164.595 56.9299C164 58.1215 163.297 59.1507 162.541 60.0715C161.784 60.9924 161.027 61.7507 160.27 62.3465C159.514 62.9424 159.46 63.1049 160.162 62.834C160.865 62.5632 161.514 62.184 162.108 61.6965C162.703 61.209 163.352 60.5049 164 59.6382C164.649 58.7715 165.352 57.6882 166.108 56.334C166.811 57.4174 167.622 58.5007 168.541 59.6924C169.406 60.884 170.054 61.6965 170.379 62.1299C170.703 62.5632 171.189 62.834 171.784 62.8882C172.379 62.9424 173.135 62.8882 174.054 62.834C174.919 62.7257 174.973 62.509 174.108 62.2382C173.243 61.9674 172.487 61.6424 171.784 61.209C171.081 60.8299 170.162 60.0715 169.081 58.9882C168 57.9049 167.081 56.9299 166.325 56.009L166.27 55.9549ZM204.703 53.7882C205.784 53.5715 206.541 53.409 207.027 53.1924C207.514 53.0299 208 53.084 208.433 53.409C208.865 53.734 208.757 53.8965 208.054 54.0049C207.352 54.1132 206.216 54.2757 204.703 54.5465V55.6299C205.406 56.4965 206.162 57.2549 206.811 57.9049C207.514 58.609 208.27 59.1507 209.081 59.6382C209.892 60.1257 210.595 60.4507 211.243 60.6674C211.892 60.884 212.054 60.9924 211.838 61.0465C211.568 61.1007 211.135 61.1549 210.433 61.2632C209.73 61.3174 209.243 61.2632 208.919 61.2632C208.595 61.2632 208.27 60.9924 208 60.6132C207.73 60.2882 207.352 59.7465 206.865 59.0965C206.379 58.4465 205.676 57.4715 204.757 56.2799V60.559C205.514 60.4507 206 60.3424 206.27 60.234C206.487 60.1257 206.811 60.234 207.189 60.559C207.568 60.884 207.406 61.1007 206.703 61.1549C206 61.1549 205.352 61.2632 204.703 61.3715C204.703 62.509 204.703 63.484 204.595 64.2965C204.487 65.109 204.325 65.2174 204 64.7299C203.676 64.2424 203.568 63.809 203.73 63.4299C203.838 63.1049 203.946 62.4549 204 61.534C203.352 61.6424 202.865 61.6965 202.487 61.8049C202.108 61.9132 201.784 61.8049 201.406 61.534C201.027 61.2632 201.081 61.1007 201.514 61.1007C201.946 61.1007 202.757 60.9924 204 60.7757C204 59.259 204.054 57.7424 204.054 56.2257C203.568 57.2549 203.027 58.1757 202.487 58.9882C201.946 59.8007 201.352 60.559 200.649 61.2632C200 61.9674 199.352 62.4549 198.649 62.7799C198 63.1049 198.054 62.8882 198.865 62.184C199.676 61.4799 200.487 60.5049 201.352 59.259C202.216 58.0132 202.973 56.5507 203.568 54.9257C202.541 55.1965 201.892 55.4132 201.568 55.4132C201.297 55.4132 200.865 55.359 200.379 55.034C199.892 54.7632 200 54.6007 200.649 54.5465C201.297 54.5465 202.433 54.3299 204 53.9507C204 52.3799 203.838 51.3507 203.46 50.9715C203.081 50.5382 203.46 50.484 204.487 50.7549C204.973 50.9174 205.189 51.134 205.027 51.4049C204.865 51.6757 204.811 52.4882 204.811 53.7882H204.703ZM223.135 62.6715C222.27 62.5632 221.243 62.6174 220.162 62.6715C219.081 62.7799 218.054 62.8882 217.243 62.9424C216.379 62.9965 215.676 62.9965 215.135 62.9424C214.811 64.0257 214.541 64.2424 214.27 63.5382C214 62.834 213.946 62.2382 214.162 61.6965C214.379 61.1549 214.487 59.6382 214.487 57.1465C214.487 54.6549 214.379 53.1924 214.108 52.759C213.838 52.3257 213.784 52.109 214.108 52.1632C214.379 52.1632 214.703 52.2174 215.027 52.3257C215.352 52.434 216.162 52.3257 217.406 52.2174C218.649 52.0549 219.676 51.8924 220.595 51.784C221.46 51.6215 222.108 51.5132 222.487 51.3507C222.865 51.2424 223.243 51.2424 223.622 51.3507C224 51.459 224.325 51.6757 224.649 51.9465C224.919 52.2174 224.973 52.5424 224.703 52.8674C224.433 53.1924 224.379 54.7632 224.487 57.4715C224.595 60.234 224.649 61.9132 224.703 62.509C224.703 63.1049 224.649 63.7007 224.379 64.2965C224.108 64.8924 223.892 64.9465 223.73 64.4049C223.514 63.9174 223.406 63.3215 223.243 62.6174L223.135 62.6715ZM215.135 62.4549C217.081 62.3465 218.757 62.184 220.216 62.0215C221.622 61.859 222.703 61.9132 223.352 62.1299C223.514 61.6424 223.568 60.0174 223.46 57.2007C223.352 54.384 223.243 52.8674 223.081 52.5965C222.919 52.3257 222.541 52.2174 222.054 52.2715C221.514 52.2715 219.297 52.5424 215.352 52.9757C215.352 56.009 215.297 59.1507 215.135 62.509V62.4549ZM219.297 54.8174C220.379 54.6007 221.081 54.4382 221.406 54.2215C221.73 54.059 221.784 53.8965 221.514 53.734C221.243 53.5715 220.919 53.5174 220.541 53.6257C220.162 53.734 219.568 53.8965 218.811 54.059C218 54.2757 217.46 54.384 217.081 54.4382C216.703 54.4924 216.649 54.6007 216.973 54.7632C217.297 54.9257 217.838 54.9799 218.541 54.9257C218.649 55.359 218.757 55.9007 218.757 56.4965C218.216 56.6049 217.73 56.7132 217.352 56.8215C216.973 56.9299 216.919 57.0382 217.135 57.1465C217.406 57.309 217.946 57.3632 218.703 57.309V59.584C217.568 59.8007 216.703 59.909 216.216 59.909C215.73 59.909 215.676 60.0715 216 60.3424C216.324 60.6132 216.703 60.7215 217.189 60.6132C217.676 60.5049 218.108 60.4507 218.595 60.3424C219.081 60.234 219.676 60.1257 220.433 60.0715C221.135 59.9632 221.784 59.9632 222.379 59.9632C222.973 59.9632 223.081 59.8549 222.811 59.5299C222.541 59.2049 222.108 59.0965 221.568 59.2049C221.027 59.3132 220.27 59.4215 219.406 59.5299V57.1465C220 57.0382 220.541 56.9299 220.973 56.8215C221.46 56.7132 221.568 56.5507 221.297 56.334C221.081 56.1174 220.811 56.0632 220.541 56.1174C220.27 56.1715 219.892 56.2799 219.406 56.334C219.406 55.8465 219.514 55.5215 219.568 55.359C219.622 55.1424 219.568 54.9799 219.243 54.7632L219.297 54.8174ZM221.514 58.7715C221.892 59.0424 222.108 58.9882 222.162 58.6632C222.216 58.3382 222.162 58.0674 221.892 57.8507C221.622 57.634 221.297 57.4715 220.919 57.4174C220.541 57.3632 220.433 57.4715 220.649 57.8507C220.865 58.1757 221.135 58.5007 221.46 58.7174L221.514 58.7715Z" fill="#FBF9F6"/>
<path fill-rule="evenodd" clip-rule="evenodd" d="M232.866 52.65C233.298 52.65 233.623 52.65 233.893 52.4875C234.163 52.3792 234.433 52.4333 234.704 52.5958C234.974 52.7583 235.19 52.975 235.352 53.1917C235.514 53.4083 235.839 53.7875 236.379 54.3292C236.65 53.95 236.866 53.5167 237.028 53.0833C237.244 52.65 237.298 52.325 237.244 52.2167C237.244 52.1083 237.028 52.0542 236.65 52.1083C236.325 52.1083 236.055 52.1083 235.839 51.8917C235.623 51.7292 235.623 51.6208 235.893 51.6208C236.163 51.6208 236.433 51.6208 236.758 51.5125C237.082 51.4042 237.298 51.35 237.406 51.2958C237.514 51.2417 237.677 51.2958 237.947 51.2958C238.217 51.4042 238.433 51.5667 238.704 51.7833C238.974 52 238.92 52.2167 238.596 52.3792C238.271 52.5417 237.623 53.2458 236.596 54.6C236.92 54.925 237.298 55.3042 237.731 55.6833C238.163 56.0625 238.542 56.3875 238.92 56.6583C239.298 56.9292 239.677 57.1458 240.109 57.3625C240.542 57.5792 240.92 57.6875 241.244 57.7958C241.569 57.9042 241.406 58.0125 240.758 58.0667C240.163 58.1208 239.623 58.175 239.244 58.1208C238.866 58.1208 238.487 57.9042 238.217 57.5792C237.947 57.2542 237.569 56.8208 237.19 56.2792C236.812 55.7917 236.379 55.25 235.893 54.6542C235.406 54.0583 235.082 53.625 234.812 53.3542C233.839 55.0333 233.028 56.3333 232.379 57.2C231.731 58.0667 231.136 58.6625 230.65 59.0417C230.163 59.4208 229.677 59.6917 229.244 59.9083C228.812 60.125 228.92 59.9083 229.569 59.3125C230.217 58.7167 230.758 58.1208 231.298 57.525C231.785 56.9292 232.271 56.1708 232.758 55.4125C232.271 54.925 232.001 54.5458 231.839 54.2208C231.569 54.6 231.19 54.925 230.866 55.1417C230.487 55.3583 230.542 55.25 230.92 54.7083C231.352 54.1667 231.731 53.5167 232.109 52.7042C232.487 51.8917 232.65 51.4042 232.596 51.1333C232.596 50.8625 232.65 50.8083 232.974 50.9167C233.244 51.025 233.46 51.1333 233.623 51.2958C233.785 51.4583 233.785 51.5667 233.623 51.7292C233.46 51.8375 233.19 52.1625 232.812 52.7042L232.866 52.65ZM228.325 52.7042C228.65 52.7042 228.92 52.5958 229.136 52.5958C229.352 52.5958 229.406 52.65 229.352 52.9208C229.298 53.1917 229.298 53.5167 229.352 53.8417C229.352 54.1667 229.46 54.6 229.569 55.0333C229.677 55.4667 229.623 55.6833 229.46 55.6292C229.244 55.6292 229.028 55.575 228.812 55.5208C228.542 55.5208 228.596 55.575 228.812 55.7917C229.082 56.0083 229.352 56.225 229.623 56.6042C229.893 56.9292 230.109 57.0375 230.217 56.9292C230.325 56.8208 230.379 56.6042 230.433 56.3333C230.433 56.0625 230.379 55.575 230.163 54.8167C229.947 54.1125 229.947 53.5167 230.163 53.1375C230.379 52.7583 230.65 52.4875 230.974 52.325C231.352 52.1625 231.406 52 231.136 51.8375C230.866 51.675 230.65 51.5667 230.379 51.5125C230.109 51.4042 229.893 51.5125 229.677 51.7833C229.46 52.0542 229.19 52.2167 228.812 52.2708C228.433 52.325 228.109 52.2708 227.785 52.2708C227.46 52.2708 227.352 52.2708 227.514 52.5417C227.677 52.8125 227.785 53.1917 227.785 53.7333C227.785 54.2208 227.785 55.1958 227.785 56.4958C227.785 57.7958 227.677 58.9333 227.569 59.7458C227.46 60.5583 227.352 61.2083 227.298 61.5875C227.19 61.9667 227.298 62.4 227.514 62.8875C227.731 63.375 227.893 63.5375 228.001 63.375C228.109 63.2125 228.217 62.8875 228.271 62.4C228.271 61.9125 228.325 60.6667 228.379 58.6083C228.379 56.6042 228.379 54.6542 228.379 52.7583L228.325 52.7042ZM235.028 59.5292C235.406 59.4208 235.893 59.3125 236.487 59.2042C237.082 59.0958 237.406 58.9333 237.46 58.825C237.46 58.7167 237.46 58.5542 237.19 58.5C236.974 58.3917 236.704 58.3375 236.379 58.3917C236.055 58.3917 235.623 58.5542 235.082 58.7167C234.596 58.8792 234.001 59.0417 233.406 59.15C232.812 59.2583 232.325 59.3667 232.001 59.4208C231.677 59.475 231.677 59.5833 232.001 59.6917C232.325 59.8 233.028 59.8 234.109 59.6917C234.217 60.125 234.217 60.6667 234.217 61.3708C234.217 62.075 234.109 62.5083 234.001 62.6167C233.893 62.725 233.569 62.725 233.028 62.6167C232.487 62.5083 232.433 62.6167 232.92 62.8875C233.352 63.2125 233.677 63.5917 233.893 64.025C234.109 64.4583 234.325 64.5667 234.542 64.35C234.758 64.1333 234.92 63.8625 235.028 63.5375C235.136 63.2125 235.19 62.6708 235.136 61.8583C235.136 61.0458 235.136 60.5583 235.136 60.3417C235.19 60.125 235.136 59.8 235.028 59.4208V59.5292ZM236.974 60.6125C237.298 60.7208 237.677 60.8833 238.001 61.1C238.379 61.3167 238.596 61.6958 238.65 62.2375C238.704 62.725 238.65 62.9417 238.325 62.7792C238.055 62.6167 237.514 62.1833 236.758 61.4792C236.001 60.775 235.785 60.45 236.055 60.45C236.325 60.45 236.65 60.5042 236.92 60.6667L236.974 60.6125ZM235.46 56.4417C235.46 56.4417 234.65 56.55 233.839 56.7667C233.028 56.9833 232.758 57.2 233.136 57.3083C233.514 57.4167 233.947 57.4708 234.433 57.3083C234.92 57.2 235.298 57.0917 235.569 56.9833C235.839 56.875 235.947 56.7667 235.893 56.6042C235.893 56.4417 235.731 56.3875 235.406 56.3875L235.46 56.4417ZM231.893 60.775C232.001 61.1 232.001 61.425 231.893 61.6417C231.785 61.8583 231.677 62.1292 231.515 62.4C231.352 62.6708 231.19 62.8333 231.028 62.8875C230.866 62.9417 230.758 62.8875 230.704 62.6167C230.704 62.3458 230.704 62.075 230.974 61.75C231.19 61.425 231.352 61.1 231.569 60.775C231.731 60.45 231.839 60.5042 231.947 60.8292L231.893 60.775ZM232.055 53.95C232.055 53.95 232.65 54.2208 233.19 54.6542C233.406 54.275 233.569 53.8958 233.677 53.5708C233.785 53.2458 233.731 53.0833 233.514 53.0833C233.298 53.0833 233.028 53.0833 232.704 52.975C232.542 53.2458 232.325 53.5708 232.055 53.95ZM231.136 55.3042C230.866 55.1417 230.758 55.3042 230.92 55.7917C231.082 56.2792 231.244 56.6042 231.352 56.7125C231.46 56.8208 231.623 56.8208 231.731 56.6583C231.839 56.4958 231.839 56.2792 231.731 56.0083C231.623 55.7375 231.406 55.5208 231.082 55.3583L231.136 55.3042ZM247.893 59.15C246.812 59.2583 245.947 59.3667 245.406 59.3667L245.028 60.1792C244.542 61.0458 244.055 61.75 243.569 62.1833C243.082 62.6167 242.65 62.9417 242.163 63.1583C241.677 63.375 241.677 63.2667 242.163 62.8333C242.65 62.4542 243.082 62.0208 243.406 61.5333C243.731 61.0458 244.055 60.6125 244.271 60.125C244.487 59.6375 244.704 59.2042 244.812 58.6625C244.92 58.175 245.028 57.6333 245.082 57.0375C245.136 56.4417 245.082 56.0083 245.028 55.7917C244.92 55.575 244.974 55.4667 245.136 55.4667C245.352 55.4667 245.514 55.4667 245.623 55.5208C245.785 55.5208 246.109 55.5208 246.65 55.4125C247.19 55.3042 247.569 55.1958 247.893 55.0875C248.163 54.9792 248.433 54.925 248.65 55.0875C248.866 55.1958 249.082 55.3583 249.406 55.5208C249.677 55.7375 249.731 55.8458 249.569 56.0083C249.406 56.1167 249.244 56.3875 249.136 56.8208C249.028 57.2 248.866 57.6333 248.812 58.1208C248.704 58.5542 248.542 58.9333 248.325 59.2583C248.109 59.5833 247.947 59.5292 247.893 59.2042V59.15ZM253.352 50.6458C253.677 50.6458 254.055 50.8625 254.487 51.0792C254.92 51.35 255.028 51.6208 254.866 51.9458C254.704 52.2708 254.596 52.8125 254.487 53.625C254.433 54.3833 254.379 55.4125 254.379 56.7667C254.379 58.1208 254.379 59.2042 254.487 60.125C254.542 61.0458 254.596 61.75 254.65 62.3458C254.65 62.8875 254.65 63.375 254.433 63.8625C254.217 64.2958 254.055 64.6208 253.839 64.7833C253.623 64.9458 253.514 64.9458 253.352 64.675C253.244 64.4583 253.082 64.1875 252.866 63.9167C252.65 63.6458 252.379 63.375 252.001 62.9958C251.623 62.6167 251.677 62.5625 252.271 62.725C252.866 62.9417 253.244 62.9417 253.406 62.8333C253.569 62.725 253.677 61.6958 253.677 59.7458C253.677 57.7958 253.677 56.0625 253.677 54.4375C253.677 52.8125 253.514 51.7292 253.244 51.2417C252.974 50.7542 253.028 50.5375 253.298 50.6458H253.352ZM248.704 62.3458C248.974 61.8042 249.19 61.425 249.406 61.2083C249.623 60.9917 249.623 60.8292 249.406 60.7208C249.19 60.5583 248.974 60.45 248.758 60.2875C248.542 60.1792 248.271 60.125 248.001 60.2875C247.731 60.3958 247.569 60.45 247.406 60.5042C247.298 60.5042 246.974 60.6125 246.542 60.6667C246.055 60.7208 245.785 60.775 245.677 60.7208C245.569 60.6667 245.406 60.6667 245.19 60.6125C244.974 60.6125 244.92 60.6125 244.974 60.8833C245.082 61.1 245.136 61.3708 245.19 61.6958C245.19 62.0208 245.298 62.3458 245.298 62.8333C245.298 63.2667 245.406 63.5917 245.514 63.7C245.623 63.8083 245.731 63.7 245.839 63.2125C246.487 63.1042 247.028 63.05 247.406 63.05C247.839 63.05 248.217 63.05 248.596 62.9958C248.974 62.9958 248.974 62.7792 248.596 62.4L248.704 62.3458ZM247.028 51.5667C247.028 51.5667 247.298 51.1875 247.028 51.025C246.758 50.8625 246.542 50.7542 246.271 50.7542C246.055 50.7542 245.947 50.8083 246.001 51.0792C246.001 51.35 246.001 51.675 245.839 52.1083C245.677 52.5417 245.406 53.1375 244.974 53.8417C244.542 54.5458 244.001 55.25 243.352 55.9542C242.704 56.6583 242.163 57.2 241.731 57.5792C241.298 57.9583 241.352 58.0125 242.001 57.7417C242.596 57.4708 243.19 56.9833 243.785 56.4417C244.379 55.8458 244.812 55.3583 245.136 54.925C245.46 54.4917 245.785 54.1125 246.055 53.7333C246.487 54.2208 246.812 54.4917 247.028 54.6C247.244 54.7083 247.406 54.7083 247.514 54.5458C247.623 54.3833 247.623 54.1667 247.514 53.95C247.406 53.7333 247.244 53.5708 247.028 53.5167C246.812 53.5167 246.542 53.4083 246.271 53.4083C246.487 53.0292 246.758 52.4875 247.028 51.8917C247.514 52.2167 247.947 52.5417 248.325 52.8125C248.758 53.0833 249.028 53.2458 249.244 53.3C249.46 53.3542 249.569 53.3 249.623 53.1917C249.677 53.0292 249.623 52.8667 249.569 52.5958C249.46 52.3792 249.298 52.1625 249.028 52.0542C248.758 51.9458 248.542 51.8375 248.379 51.7833C248.163 51.7292 247.785 51.6208 247.19 51.5667H247.028ZM245.947 56.0083C245.947 56.4417 245.839 56.8208 245.839 57.1458C246.325 57.1458 246.65 57.0375 246.812 56.9833C246.974 56.9292 247.19 56.875 247.352 56.9292C247.569 56.9292 247.677 57.0375 247.731 57.2C247.785 57.3625 247.569 57.4708 247.136 57.525C246.65 57.6333 246.217 57.6333 245.785 57.525C245.677 57.9583 245.569 58.3917 245.46 58.8792C246.325 58.7708 247.19 58.6625 247.947 58.6083C248.109 58.0125 248.217 57.4167 248.271 56.8208C248.325 56.225 248.271 55.9 248.055 55.8458C247.839 55.7917 247.677 55.7375 247.46 55.7917C247.244 55.7917 246.758 55.9 245.893 56.0083H245.947ZM250.812 54.0583C250.542 54.0583 250.487 54.1667 250.704 54.5458C250.92 54.925 251.028 55.575 251.028 56.4958C251.028 57.4167 251.028 58.0667 250.92 58.3375C250.812 58.6083 250.92 59.0417 251.082 59.5292C251.298 60.0167 251.46 60.125 251.569 59.8C251.731 59.475 251.785 58.7167 251.785 57.4708C251.785 56.225 251.839 55.4125 252.001 55.0333C252.109 54.7083 252.055 54.4375 251.785 54.275C251.515 54.1125 251.19 54.0042 250.866 54.0042L250.812 54.0583ZM245.839 61.1C245.839 61.8583 245.893 62.4 245.893 62.6708C246.596 62.5625 247.298 62.5083 248.055 62.4C248.163 61.6958 248.217 61.2625 248.163 61.1C248.163 60.9375 247.947 60.8833 247.731 60.8833C247.515 60.8833 246.866 60.9375 245.839 61.1ZM264.163 53.8417C265.298 53.6792 266.163 53.5167 266.704 53.4083C267.244 53.3 267.785 53.2458 268.271 53.1917C268.758 53.1917 269.19 53.2458 269.46 53.5167C269.731 53.7875 269.839 53.95 269.785 54.0583C269.731 54.1667 269.406 54.1667 268.92 54.1125C268.379 54.0583 266.974 54.1125 264.758 54.275C265.244 54.5458 265.406 54.7083 265.244 54.8708C265.028 54.9792 264.65 55.3583 264.055 56.0083C265.028 55.7375 265.623 55.6833 265.785 55.7917C266.001 55.9 266.001 56.0083 265.893 56.1167C265.785 56.225 265.46 56.3333 264.92 56.4417C264.379 56.55 263.839 56.7125 263.244 56.875C263.514 57.0375 263.623 57.2 263.569 57.3083C263.569 57.4167 263.514 57.525 263.514 57.6333C264.325 57.4167 264.866 57.3083 265.19 57.2542C265.514 57.2542 265.785 57.2542 266.001 57.4708C266.217 57.6333 266.109 57.7958 265.623 57.85C265.136 57.9583 264.433 58.0667 263.514 58.2833V59.0958C264.596 58.8792 265.352 58.7167 265.893 58.5542C266.379 58.3917 266.866 58.3917 267.244 58.5542C267.623 58.6625 267.839 58.825 267.893 58.9875C267.947 59.15 267.785 59.2042 267.298 59.2583C266.866 59.2583 266.433 59.2583 266.001 59.3667C265.569 59.3667 264.758 59.5292 263.569 59.6917C264.758 60.7208 265.677 61.425 266.271 61.75C266.866 62.1292 267.46 62.4 268.055 62.5625C268.65 62.7792 269.244 62.8875 269.839 63.05C270.433 63.1583 270.379 63.2667 269.731 63.375C269.082 63.4833 268.487 63.5375 267.947 63.5917C267.406 63.6458 266.974 63.5917 266.704 63.3208C266.379 63.1042 265.839 62.5625 265.082 61.8042C264.271 60.9917 263.785 60.45 263.514 60.1792C263.514 62.1292 263.515 63.375 263.46 63.8625C263.46 64.35 263.352 64.7292 263.244 64.8917C263.136 65.1083 262.974 65 262.812 64.6208C262.596 64.2417 262.596 63.8083 262.704 63.3208C262.812 62.8333 262.866 61.8042 262.866 60.125C262.542 60.6125 262.163 61.0458 261.731 61.5333C261.298 62.0208 260.812 62.5083 260.163 62.9958C259.569 63.4833 258.974 63.8625 258.379 64.0792C257.785 64.2958 257.839 64.1875 258.433 63.7542C259.028 63.3208 259.731 62.6708 260.433 61.9667C261.136 61.2625 261.677 60.5583 262.001 59.9625C261.298 60.1792 260.65 60.3417 260.163 60.45C259.677 60.5583 259.298 60.6125 259.028 60.5042C258.758 60.3958 258.542 60.2875 258.433 60.1792C258.325 60.0167 258.433 59.9625 258.704 59.9083C258.974 59.9083 259.46 59.8542 260.001 59.7458C260.596 59.6375 261.514 59.475 262.758 59.2583V58.4458C261.839 58.6625 261.244 58.7708 260.974 58.7708C260.704 58.7708 260.487 58.7708 260.217 58.5542C259.947 58.3917 260.001 58.2833 260.271 58.2833C260.542 58.2833 260.866 58.175 261.136 58.1208C261.406 58.0667 261.947 57.9583 262.704 57.7958C262.704 57.525 262.596 57.3083 262.487 57.0375C261.947 57.1458 261.514 57.2 261.19 57.2542C260.92 57.2542 260.596 57.2542 260.271 57.1458C259.947 57.0375 260.001 56.9292 260.379 56.8208C260.758 56.7125 261.785 56.4958 263.352 56.1708C263.839 55.3583 264.055 54.7625 264.109 54.3833C262.596 54.6542 261.569 54.8167 260.974 54.8708C261.46 55.1958 261.731 55.4125 261.785 55.6833C261.893 55.9 261.839 56.1167 261.785 56.2792C261.677 56.4417 261.569 56.4417 261.46 56.2792C261.352 56.1167 261.19 55.9542 261.028 55.6833C260.866 55.4125 260.704 55.1958 260.65 54.9792C259.082 55.3042 258.163 55.5208 257.893 55.575C257.623 55.6292 257.352 55.6833 257.136 55.6292C256.92 55.6292 256.704 55.4667 256.487 55.3042C256.271 55.0875 256.325 54.9792 256.758 54.925C257.136 54.925 257.569 54.8708 258.001 54.8167C258.433 54.7625 259.569 54.5458 261.514 54.2208C261.406 53.2458 261.352 52.5958 261.244 52.325C261.136 52.0542 260.974 51.7833 260.758 51.5125C260.542 51.2417 260.704 51.1333 261.244 51.2417C261.839 51.35 262.055 51.5667 262.055 51.8375C262.055 52.1083 262.055 52.9208 262.109 54.1125L263.406 53.8417V52.1083C263.406 51.4042 263.406 50.9708 263.298 50.8625C263.244 50.7542 263.19 50.5917 263.136 50.4292C263.136 50.2667 263.244 50.2125 263.569 50.375C263.893 50.4833 264.163 50.6458 264.325 50.8083C264.487 50.9708 264.542 51.1333 264.433 51.2958C264.325 51.4583 264.217 51.7292 264.163 52.1083C264.109 52.4875 264.055 53.0292 264.001 53.7875L264.163 53.8417ZM266.433 51.025C266.433 51.025 266.163 51.025 266.163 51.2417C266.163 51.4042 266.055 51.675 265.731 52.1083C265.406 52.4875 265.136 52.8125 264.866 52.975C264.596 53.1917 264.758 53.1375 265.298 52.975C265.839 52.7583 266.217 52.5958 266.542 52.4333C266.866 52.2708 267.082 52.1625 267.298 52.0542C267.514 51.9458 267.46 51.7833 267.19 51.5125C266.92 51.2417 266.65 51.1333 266.433 51.0792V51.025ZM259.028 52.4875C258.542 52.3792 258.487 52.5417 259.028 53.0292C259.514 53.5167 259.839 53.7875 260.055 53.8417C260.271 53.8417 260.379 53.7875 260.379 53.5167C260.379 53.2458 260.379 53.0292 260.163 52.8667C259.947 52.7042 259.623 52.5958 259.028 52.4875ZM278.812 52.7042C278.812 52.3792 278.812 52.0542 278.758 51.6208C278.758 51.1875 278.596 50.8083 278.433 50.5375C278.271 50.2125 278.325 50.1042 278.704 50.2125C279.028 50.2667 279.352 50.375 279.677 50.5375C280.001 50.7 280.055 50.8625 279.947 51.025C279.839 51.2417 279.785 51.7292 279.731 52.5958C280.055 52.4875 280.379 52.4333 280.704 52.3792C281.028 52.3792 281.298 52.3792 281.515 52.65C281.731 52.8667 281.677 52.975 281.298 53.0833C280.974 53.1375 280.433 53.2458 279.623 53.3C279.623 54.9792 279.514 56.4417 279.514 57.5792C280.055 57.4708 280.65 57.4167 281.19 57.3625C281.785 57.3083 282.217 57.3625 282.542 57.6875C282.866 57.9583 282.758 58.1208 282.271 58.1208C281.785 58.1208 280.758 58.175 279.136 58.2833C280.001 59.15 280.866 59.9083 281.839 60.5042C282.812 61.1 283.677 61.4792 284.542 61.6958C285.406 61.9125 285.677 62.0208 285.406 62.1292C285.136 62.2375 284.704 62.2917 284.055 62.3458C283.46 62.4 282.92 62.3458 282.487 62.3458C282.055 62.2375 281.677 62.075 281.352 61.6958C281.028 61.3708 280.704 60.9917 280.379 60.5583L278.596 58.3375C277.839 58.4458 276.704 58.5542 275.244 58.7708C275.785 59.0958 275.947 59.3667 275.677 59.5833C275.406 59.8 275.136 60.125 274.812 60.5583C274.487 60.9917 273.947 61.4792 273.244 62.075C272.542 62.6708 271.839 63.05 271.19 63.2667C270.542 63.4833 270.542 63.375 271.19 62.9958C271.785 62.6167 272.542 61.9667 273.406 61.0458C274.271 60.125 274.758 59.3667 274.758 58.825C274.217 58.9333 273.785 58.9875 273.406 59.0958C273.082 59.2042 272.704 59.0958 272.379 58.825C272.001 58.5542 272.055 58.3917 272.379 58.3917C272.812 58.3917 273.785 58.2833 275.244 58.0667C275.244 56.7125 275.244 55.3042 275.19 53.8958C274.92 53.8958 274.65 54.0042 274.433 54.0042C274.217 54.0042 273.947 53.95 273.623 53.6792C273.298 53.4083 273.352 53.3 273.731 53.3C274.109 53.3 274.596 53.3 275.19 53.1917C275.19 52.8125 275.082 52.4875 275.082 52.325C275.082 52.1083 274.92 51.8917 274.812 51.675C274.65 51.4583 274.704 51.35 274.974 51.4042C275.244 51.4042 275.514 51.5125 275.785 51.6208C276.109 51.7292 276.217 51.8917 276.163 52.0542C276.163 52.2708 276.055 52.5958 276.055 53.1917C276.758 53.0833 277.677 52.975 278.866 52.8125L278.812 52.7042ZM277.839 60.9917C277.839 60.3958 277.947 60.0167 278.055 59.8542C278.163 59.6917 278.055 59.5292 277.839 59.4208C277.623 59.3125 277.298 59.2042 276.974 59.15C276.65 59.0958 276.542 59.2042 276.758 59.5292C276.974 59.8542 277.028 60.3958 277.028 61.1542C276.163 61.2625 275.515 61.3708 275.136 61.3708C274.758 61.3708 274.704 61.5333 275.028 61.75C275.352 61.9667 275.623 62.075 275.839 62.0208C276.055 62.0208 276.487 61.9125 277.028 61.8042V63.5917C276.055 63.7 275.244 63.7542 274.65 63.8083C274.055 63.8625 273.514 63.9167 273.082 63.9167C272.65 63.9167 272.65 64.0792 273.028 64.35C273.406 64.6208 273.839 64.7292 274.217 64.6208C274.65 64.5125 275.298 64.4583 276.271 64.35C277.19 64.2417 277.893 64.1875 278.379 64.1333C278.866 64.0792 279.569 64.025 280.487 64.0792C281.406 64.1333 281.947 64.0792 282.163 63.9708C282.379 63.8625 282.271 63.7 281.893 63.4292C281.515 63.1583 281.082 63.05 280.596 63.1042C280.109 63.1583 279.731 63.2125 279.406 63.2667C279.082 63.2667 278.542 63.375 277.839 63.4833C277.839 62.9958 277.839 62.4 277.893 61.6958C278.758 61.5875 279.298 61.4792 279.623 61.425C279.947 61.3708 279.947 61.2083 279.731 60.9917C279.514 60.775 279.19 60.7208 278.812 60.775C278.433 60.8833 278.163 60.9375 277.893 60.9917H277.839ZM278.812 53.3542C277.623 53.5167 276.704 53.6792 276.001 53.7875V54.7625C276.325 54.6542 276.704 54.6 277.082 54.4917C277.46 54.3833 277.785 54.4375 277.947 54.6C278.163 54.8167 278.001 54.925 277.514 55.0875C277.028 55.1958 276.487 55.25 275.947 55.1958V56.3333C276.433 56.225 276.812 56.1167 277.136 56.0083C277.46 55.9 277.731 55.9 277.947 56.1167C278.163 56.3333 278.001 56.4958 277.46 56.6583C276.866 56.8208 276.379 56.8208 275.947 56.6583V58.0125C276.433 57.9042 277.406 57.7958 278.758 57.6333V53.3542H278.812ZM292.217 56.9292C292.596 57.2 292.758 57.3625 292.65 57.525C292.542 57.6875 292.487 58.0125 292.433 58.5C293.136 58.3917 293.731 58.2833 294.217 58.175C294.704 58.0667 295.082 58.175 295.352 58.3917C295.677 58.6625 295.46 58.825 294.812 58.8792C294.163 58.9333 293.352 59.0417 292.433 59.15L292.325 62.6708C293.947 62.5625 295.082 62.4 295.839 62.3458C296.542 62.2375 297.136 62.3458 297.569 62.6167C298.001 62.8875 298.109 63.1042 297.893 63.2125C297.677 63.3208 297.19 63.375 296.433 63.3208C295.677 63.2667 294.596 63.3208 293.136 63.375C291.731 63.4833 290.65 63.5917 289.893 63.7C289.136 63.8083 288.596 63.9167 288.217 63.9708C287.839 64.0792 287.406 63.9708 287.028 63.5917C286.596 63.2667 286.704 63.1042 287.298 63.1583C287.893 63.1583 289.352 63.05 291.623 62.725V59.2583C290.812 59.3667 290.325 59.4208 290.109 59.475C289.893 59.475 289.623 59.475 289.298 59.2042C288.974 58.9875 289.028 58.8792 289.569 58.8792C290.109 58.8792 290.812 58.7708 291.677 58.6625C291.677 57.7958 291.623 57.2542 291.46 56.9833C290.866 56.9833 290.379 56.9833 290.001 56.7667C289.623 56.6042 289.677 56.4417 290.217 56.3875C290.704 56.2792 291.298 56.1708 292.001 56.0625C292.704 55.9542 293.244 55.7917 293.623 55.7375C294.055 55.6292 294.379 55.6833 294.65 55.8458C294.92 56.0625 294.866 56.225 294.433 56.3333C294.055 56.4958 293.298 56.6583 292.217 56.875V56.9292ZM292.65 52.1083C292.65 52.1083 292.974 51.7292 293.136 51.6208C293.298 51.5125 293.298 51.35 293.136 51.1875C292.974 51.025 292.704 50.8625 292.325 50.7C291.947 50.5375 291.785 50.6458 291.839 51.025C291.839 51.4042 291.623 52 291.082 52.7583C290.596 53.5708 289.839 54.4917 288.866 55.575C287.893 56.6583 286.92 57.525 285.947 58.175C284.974 58.825 285.028 58.9333 286.055 58.5C287.136 58.0667 288.163 57.3625 289.19 56.3333C290.217 55.3042 291.298 54.0042 292.487 52.4333C293.569 53.5708 294.379 54.4375 294.866 54.9792C295.352 55.5208 295.839 56.0625 296.379 56.6583C296.92 57.2 297.569 57.4708 298.379 57.3625C299.19 57.2542 299.785 57.2 300.217 57.1458C300.65 57.0917 300.487 56.9292 299.785 56.7125C299.028 56.4958 298.325 56.225 297.731 55.9C297.082 55.575 296.433 55.1417 295.731 54.6C295.028 54.0583 294.001 53.1917 292.704 52L292.65 52.1083ZM294.325 60.3958C294.325 60.3958 293.893 60.8833 293.514 61.2083C293.136 61.5333 293.136 61.6417 293.514 61.4792C293.839 61.3167 294.217 61.1542 294.65 60.9375C295.082 60.7208 295.46 60.6125 295.731 60.5042C296.055 60.45 296.109 60.2875 295.947 60.0708C295.785 59.8542 295.514 59.6917 295.136 59.5292C294.758 59.3667 294.596 59.4208 294.65 59.6375C294.65 59.8542 294.596 60.0708 294.379 60.2875L294.325 60.3958ZM288.974 60.6667C289.244 61.1 289.514 61.4792 289.785 61.75C290.055 62.075 290.325 62.0208 290.433 61.6958C290.596 61.3708 290.542 61.0458 290.271 60.8292C290.001 60.5583 289.677 60.3958 289.244 60.2333C288.812 60.125 288.704 60.2333 288.974 60.6667Z" fill="#FBF9F6"/>
<path fill-rule="evenodd" clip-rule="evenodd" d="M306.053 59.5294C306.702 60.071 306.864 60.4502 306.54 60.6669C306.216 60.8835 305.891 61.1544 305.567 61.4794C305.243 61.8044 304.918 62.1835 304.594 62.5085C304.27 62.8335 304.324 62.996 304.702 62.9419C305.08 62.9419 305.675 62.8335 306.378 62.7794C307.08 62.7252 307.999 62.671 309.026 62.5627C308.594 61.8044 308.27 61.2627 308.107 60.9377C307.891 60.6127 307.999 60.5044 308.324 60.6669C308.648 60.7752 309.08 61.046 309.621 61.4794C310.162 61.9127 310.486 62.346 310.594 62.9419C310.702 63.4835 310.702 63.9169 310.594 64.2419C310.486 64.5669 310.27 64.5127 309.945 64.0794C309.621 63.7002 309.405 63.321 309.189 63.0502C307.513 63.321 306.27 63.5377 305.405 63.7002C304.54 63.9169 303.891 64.0794 303.513 64.296C303.08 64.5127 302.864 64.4585 302.756 64.296C302.702 64.0794 302.648 63.8627 302.702 63.646C302.702 63.4294 302.864 63.2127 303.08 63.1044C303.297 62.996 303.783 62.5085 304.432 61.7502C305.08 60.9377 305.405 60.2877 305.405 59.8002C304.648 59.9085 304.053 60.0169 303.621 60.1252C303.189 60.2335 302.756 60.1252 302.324 59.8002C301.891 59.5294 301.945 59.3669 302.432 59.3669C302.972 59.3669 303.783 59.3127 304.864 59.1502C305.945 59.0419 306.972 58.8794 307.945 58.6627C308.918 58.446 309.621 58.3377 309.945 58.2835C310.27 58.2835 310.594 58.3377 310.918 58.6085C311.243 58.8794 311.189 59.0419 310.81 59.096C310.432 59.1502 309.945 59.2044 309.297 59.3127C308.648 59.3669 307.567 59.4752 305.999 59.6377L306.053 59.5294ZM307.134 51.7294C307.134 51.7294 307.351 51.3502 307.459 51.1877C307.567 51.0252 307.459 50.8627 307.08 50.5919C306.432 50.1585 306.162 50.1585 306.216 50.5377C306.27 50.9169 306.216 51.4044 305.891 52.0002C305.621 52.596 305.189 53.3002 304.594 54.1669C303.999 55.0335 303.297 55.7919 302.54 56.5502C301.783 57.2544 301.026 57.9044 300.324 58.446C299.621 58.9877 299.675 59.0419 300.594 58.6627C301.513 58.2294 302.324 57.7419 303.026 57.0919C303.729 56.4419 304.432 55.7377 305.026 54.9794C305.621 54.221 306.27 53.3544 306.918 52.271C307.891 53.5169 308.702 54.4919 309.351 55.3044C309.999 56.1169 310.54 56.7127 310.864 57.2002C311.243 57.6877 311.783 57.9044 312.486 57.9044C313.243 57.9044 313.891 57.9044 314.378 57.796C314.864 57.6877 314.756 57.5252 314.053 57.3085C313.297 57.0377 312.594 56.7127 311.837 56.2794C311.134 55.846 310.324 55.196 309.459 54.3835C308.594 53.5169 307.783 52.7044 307.026 51.8919L307.134 51.7294ZM306.432 56.2794C306.972 56.171 307.459 56.0085 307.837 55.9002C308.216 55.7919 308.54 55.9002 308.81 56.171C309.08 56.4419 308.648 56.7127 307.513 56.9294C306.378 57.146 305.675 57.2544 305.405 57.2002C305.134 57.2002 304.864 57.0919 304.594 56.9294C304.378 56.7669 304.486 56.6585 304.918 56.6044C305.351 56.496 305.837 56.3877 306.432 56.2794ZM187.189 61.696C186.972 62.6169 186.756 62.8335 186.432 62.2919C186.162 61.7502 186.107 61.1544 186.324 60.4502C186.54 59.746 186.594 58.7169 186.594 57.3085C186.594 55.9002 186.54 54.9794 186.432 54.546C186.324 54.0585 186.216 53.6794 186.053 53.3544C185.891 53.0294 185.945 52.921 186.27 52.9752C186.594 53.0835 186.864 53.1377 187.134 53.1919C187.405 53.1919 187.783 53.1919 188.378 53.0835C188.972 52.9752 189.513 52.8669 190.107 52.7585C190.702 52.596 191.134 52.4335 191.405 52.271C191.675 52.0544 191.999 52.0544 192.432 52.271C192.864 52.4335 193.243 52.6502 193.513 52.8669C193.783 53.0835 193.837 53.4627 193.513 53.896C193.243 54.3294 193.134 55.4669 193.189 57.2544C193.189 59.0419 193.243 60.396 193.297 61.1544C193.297 61.9669 193.189 62.671 192.864 63.321C192.54 63.9169 192.324 63.9169 192.107 63.2127C191.945 62.5085 191.783 62.0752 191.675 61.8585C191.567 61.6419 191.351 61.4794 190.972 61.4794C190.594 61.4794 189.999 61.4794 189.134 61.6419C188.27 61.7502 187.621 61.8044 187.189 61.7502V61.696ZM187.351 57.5252C187.243 58.771 187.189 60.0169 187.134 61.2085C188.216 61.2085 189.08 61.046 189.783 60.7752C190.486 60.5585 190.972 60.5585 191.243 60.8835C191.513 61.2085 191.729 61.3169 191.891 61.2627C192.107 61.2085 192.162 60.3419 192.162 58.6085C192.162 56.8752 192.162 55.5752 192.107 54.6002C192.107 53.6252 191.891 53.0835 191.567 53.0294C191.243 52.921 189.783 53.1919 187.134 53.7335C187.243 54.8169 187.351 55.9544 187.351 57.0919C187.837 57.0919 188.378 56.9294 189.08 56.6585C189.783 56.3877 190.324 56.3877 190.81 56.6585C191.297 56.9294 190.918 57.2002 189.783 57.4169C188.594 57.6335 187.837 57.6335 187.405 57.471L187.351 57.5252Z" fill="#FBF9F6"/>
</g>
<defs>
<clipPath id="clip0_269_930">
<rect width="400" height="65" fill="white"/>
</clipPath>
</defs>
</svg>
