<svg width="299" height="49" viewBox="0 0 299 49" fill="none" xmlns="http://www.w3.org/2000/svg">
<g clip-path="url(#clip0_473_1897)">
<path fill-rule="evenodd" clip-rule="evenodd" d="M117.298 4.10633C117.863 4.10633 118.51 4.18685 119.197 4.30762C120.005 4.46865 121.298 4.79071 122.752 5.67637H114.631V8.41388C115.075 8.73594 115.52 8.97749 115.964 9.17878C120.651 11.2722 126.025 8.13208 127.439 7.24642C127.399 7.00487 127.318 6.64255 127.157 6.23998C126.227 3.70376 123.843 2.49603 123.197 2.17397C122.631 1.85191 121.257 1.24805 119.439 1.24805C118.389 1.24805 117.54 1.48959 117.136 1.61036C115.803 2.01294 115.399 2.41551 114.631 2.77783V4.10633C115.277 4.10633 116.207 4.02582 117.298 4.10633Z" fill="#D08910"/>
<path fill-rule="evenodd" clip-rule="evenodd" d="M91.1946 20.1285V25.6841H101.498C101.498 27.697 101.458 30.1124 101.458 31.8032C100.932 31.8032 100.771 31.8032 100.407 31.8032C95.1947 31.8435 90.0228 31.8032 84.8105 31.8032C84.4469 31.8032 84.0428 31.8032 83.5176 31.8032V3.09961H101.296C101.296 5.31377 101.296 7.16562 101.296 9.13824H91.1946V14.0899H100.124V20.1285H91.1542H91.1946Z" fill="#003642"/>
<path fill-rule="evenodd" clip-rule="evenodd" d="M123.115 14.0092C121.701 14.0092 118.832 14.0092 117.418 14.0092H114.63V8.37314V2.77734C114.428 2.85786 114.186 2.93837 113.903 3.01889C113.256 3.17992 113.014 3.13966 110.751 3.0994C109.903 3.0994 108.569 3.0994 106.953 3.0994V31.9238C109.458 31.9238 112.004 31.9238 114.549 31.9238V20.0881H123.075C123.075 19.6452 123.075 19.2829 123.075 18.9609C123.075 17.8337 123.075 16.6662 123.075 15.539C123.075 14.6131 123.075 15.0961 123.075 14.0494L123.115 14.0092Z" fill="#003642"/>
<path fill-rule="evenodd" clip-rule="evenodd" d="M56.9316 3.09961H64.447C64.447 3.38141 64.4875 3.66321 64.4875 3.94502C64.4875 15.9015 64.4875 27.8177 64.4875 39.7742C64.4875 42.2702 62.4672 44.9674 60.2449 45.8933C59.1943 46.3362 58.1842 46.6985 56.9316 47.1816V3.09961Z" fill="#003642"/>
<path d="M77.9411 3.09961H70.5469V31.6824H77.9411V3.09961Z" fill="#003642"/>
<path fill-rule="evenodd" clip-rule="evenodd" d="M45.0915 30.4355C46.5865 31.0394 48.0815 31.603 49.5361 32.2471C51.5968 33.2133 53.3342 34.6626 54.6272 36.5144C56.2838 38.9701 57.3343 41.5869 55.4353 44.7672C54.8696 44.4854 54.1019 44.3244 53.6574 43.8413C52.122 42.3115 50.6674 40.7012 49.2533 39.0507C48.728 38.4468 48.4451 37.6014 48.0815 36.917C47.2734 38.3663 49.2937 42.4725 52.7685 46.3373C52.1624 46.7801 48.8088 45.4919 47.1926 44.2036C43.1116 40.822 42.1823 36.7157 45.0915 30.4355Z" fill="#003642"/>
<path fill-rule="evenodd" clip-rule="evenodd" d="M19.6775 46.3764C20.0816 45.8128 20.5664 45.2492 20.8897 44.6454C21.5362 43.4376 22.1422 42.2299 22.6271 40.9819C22.9099 40.217 23.112 39.3716 23.112 38.5665C23.112 37.4795 22.8695 36.4328 22.6675 35.3459C22.3847 33.8161 21.5362 32.6084 20.324 31.6422C19.233 30.7565 18.0209 30.1526 16.5663 30.2332C16.4047 30.2332 16.243 30.2332 16.041 29.9916C16.6067 29.7903 17.132 29.4683 17.6976 29.3475C19.0714 29.1059 20.4048 29.3072 21.6978 29.7903C23.2736 30.3942 26.6272 30.7565 27.8394 28.9852C28.4455 28.0593 29.0111 27.0126 29.2132 25.9256C29.496 24.4763 29.4556 22.9465 29.496 21.457C29.496 20.7726 29.3748 20.0883 29.294 19.4039C29.294 19.2026 29.3344 19.0013 29.5364 18.7598C29.8597 19.8065 30.3445 20.8532 30.4657 21.9401C30.7082 24.2348 30.8294 26.5295 30.789 28.8241C30.789 31.2396 30.1829 33.5745 29.0516 35.7082C28.0414 37.6405 26.9909 39.5729 25.6979 41.3442C24.2029 43.3571 22.3039 45.0077 20.122 46.3362C20.0007 46.4167 19.8391 46.3764 19.7179 46.4167L19.6775 46.3764Z" fill="#003642"/>
<path fill-rule="evenodd" clip-rule="evenodd" d="M32.3236 33.5747C32.3236 34.8629 32.2024 36.1511 32.3236 37.4394C32.5257 39.0899 32.7277 40.7405 33.253 42.3105C34.0207 44.4442 35.4349 46.135 37.6167 47.0609L37.5359 47.3427H22.5859C24.9699 45.6922 27.1113 43.8403 28.7276 41.3846C30.3034 38.9692 31.1115 36.2719 31.7984 33.4941C31.96 33.4941 32.0812 33.5747 32.2428 33.6149L32.3236 33.5747Z" fill="#003642"/>
<path fill-rule="evenodd" clip-rule="evenodd" d="M4.76654 13.4062C7.06964 14.0906 9.29194 14.936 10.8273 16.9087C12.0395 18.4384 12.0395 20.25 11.7567 22.2226C10.4637 21.9811 9.61518 21.1357 8.80708 20.2903C7.99897 19.4449 7.31208 18.519 6.50397 17.4723C6.46356 18.7605 6.94843 19.7669 7.59491 20.6929C8.2414 21.5785 9.0091 22.4239 9.696 23.2693C8.80708 23.5914 5.9787 22.4239 4.64532 20.6526C3.27154 18.8008 3.63519 15.2581 4.76654 13.4465V13.4062Z" fill="#003642"/>
<path fill-rule="evenodd" clip-rule="evenodd" d="M33.3744 27.5764C33.4552 27.2141 33.6168 26.731 33.9401 26.2077C34.9098 24.6779 36.4856 24.1143 37.0513 23.9532C38.6271 23.4299 39.9605 23.8325 41.4959 23.9532C42.304 24.0338 43.0717 24.3961 43.8798 24.6376C44.3243 25.5635 42.6272 28.3816 41.0514 29.388C38.7887 30.8775 35.0714 30.2737 33.9805 29.0659C36.324 29.0659 38.4655 28.7036 39.9605 26.731C39.6776 26.731 39.2332 26.8115 38.7079 26.9726C37.8998 27.2141 37.4149 27.6167 37.1725 27.7777C36.5664 28.1803 35.4755 28.3816 33.334 27.6167L33.3744 27.5764Z" fill="#003642"/>
<path fill-rule="evenodd" clip-rule="evenodd" d="M36.0412 16.2642C36.4048 14.3721 37.2129 12.641 36.324 10.7489C35.8391 12.6813 35.8391 14.6539 34.2633 16.0227C31.9198 13.4462 32.9299 10.0243 36.324 7.16602C37.4553 7.93091 38.1018 9.09838 38.5059 10.3866C39.1524 12.4397 38.2231 14.6942 36.0412 16.3045V16.2642Z" fill="#003642"/>
<path fill-rule="evenodd" clip-rule="evenodd" d="M3.5957 25.845C5.13111 24.9996 6.70692 24.7178 8.36354 24.7983C10.1818 24.8788 11.2323 25.9658 12.2021 27.4956C11.3535 28.1397 10.3838 27.8579 9.49489 27.8176C8.56557 27.8176 7.67665 27.4956 6.78773 27.3345C6.74732 27.4151 6.70692 27.4956 6.62611 27.5761C7.313 27.9787 7.99989 28.502 8.72719 28.7838C9.49489 29.0656 10.3838 29.1461 11.1919 29.4279C9.41408 30.2733 7.59584 30.7162 5.89881 29.5487C4.64624 28.7033 3.75732 27.4956 3.5957 25.8853V25.845Z" fill="#003642"/>
<path fill-rule="evenodd" clip-rule="evenodd" d="M32.7691 8.53516C31.1124 5.59636 30.7892 5.19378 29.9003 4.87172C30.5064 6.24048 31.072 7.56898 31.7589 9.13902C31.3145 9.21953 30.9912 9.38056 30.7488 9.30005C29.0518 8.81696 28.1628 7.56898 27.7588 5.99893C27.5568 5.11327 27.5164 4.2276 27.4355 3.30168C27.4355 3.01988 27.5568 2.73808 27.6376 2.41602C29.4558 2.49653 31.0316 2.89911 32.1226 4.30812C33.0519 5.51584 32.9307 6.96511 32.7287 8.57542L32.7691 8.53516Z" fill="#003642"/>
<path fill-rule="evenodd" clip-rule="evenodd" d="M18.343 17.6738C18.7874 18.4387 19.0703 19.1231 19.5551 19.6464C20.8481 21.0152 22.2219 22.2632 23.5149 23.5917C24.3634 24.4773 25.1715 25.4033 26.1412 26.4902C23.9593 26.9331 22.3431 26.2889 20.9289 25.1215C19.1511 23.5917 17.6157 19.4452 18.343 17.6738Z" fill="#003642"/>
<path fill-rule="evenodd" clip-rule="evenodd" d="M26.1826 11.9171C26.1018 12.2391 26.0614 12.6015 26.1018 13.004C26.1422 14.4936 26.8695 15.5805 27.2736 16.1039C26.9099 16.0233 25.8594 15.661 25.0917 14.6546C24.4048 13.7287 24.324 12.7625 24.2836 12.2794C24.2836 11.9976 24.2432 11.6755 24.2836 11.273C24.4452 10.3068 25.0109 9.66266 25.3341 9.38086C27.4756 10.347 28.7686 11.7963 29.1322 12.8027C29.4151 13.5676 29.3343 14.8156 29.2939 15.0572C29.2939 15.1377 29.2534 15.2182 29.2534 15.2182C29.1726 15.4597 29.1322 15.5805 29.0918 15.6208C28.9302 15.7818 27.7989 15.2987 27.1524 14.252C26.9503 13.8897 26.7483 13.4469 26.4251 12.6015C26.3443 12.3197 26.2634 12.1184 26.1826 11.9573V11.9171Z" fill="#003642"/>
<path fill-rule="evenodd" clip-rule="evenodd" d="M19.1115 17.7949C20.8085 18.5598 22.5864 19.2442 24.2834 20.0896C26.1016 21.0155 27.233 23.1894 26.7885 25.3633C26.1824 25.5646 19.0711 18.439 19.1115 17.7949Z" fill="#003642"/>
<path fill-rule="evenodd" clip-rule="evenodd" d="M19.2328 0.000340016C19.4752 0.0405975 18.9904 1.44961 19.7177 3.58326C20.0409 4.50918 20.2833 4.71047 20.7682 5.75716C21.1319 6.56231 21.6167 7.77004 21.8996 9.4206C21.3743 9.25957 20.5662 8.93751 19.7177 8.25313C19.556 8.13236 18.6671 7.36747 18.1823 6.32077C16.8489 3.50274 18.8692 -0.0399175 19.2328 0.000340016Z" fill="#003642"/>
<path fill-rule="evenodd" clip-rule="evenodd" d="M12.2011 5.5957C12.0799 6.11905 11.9991 6.88394 12.1607 7.76961C12.3628 8.85656 12.888 9.46042 13.3729 10.4266C13.7769 11.1915 14.2214 12.3187 14.4638 13.929L14.2618 14.09C14.181 14.1303 14.1002 14.2108 14.0598 14.2511C13.3325 13.6472 12.4436 13.2044 11.9587 12.4395C11.4334 11.6343 11.2314 10.9097 11.1506 10.4669C10.7061 8.2527 12.0799 5.87751 12.2415 5.5957H12.2011Z" fill="#003642"/>
<path fill-rule="evenodd" clip-rule="evenodd" d="M36.5254 21.1352C36.2021 19.8469 36.7678 19.0015 37.4143 18.3977C38.2224 17.673 39.0305 17.2302 39.5962 16.9887C41.4548 16.264 43.2327 16.5458 44.0812 16.7068C42.6266 16.9887 41.6569 17.5523 41.0508 17.9951C40.2831 18.599 40.0407 19.0418 39.2325 19.6859C38.2224 20.4911 37.2123 20.8936 36.485 21.1352H36.5254Z" fill="#003642"/>
<path fill-rule="evenodd" clip-rule="evenodd" d="M22.7479 8.97742C22.3843 7.68918 21.9802 6.68275 21.6166 5.91785C21.0105 4.62961 20.6064 4.18678 20.2024 3.09983C19.7579 1.8921 19.6771 0.80515 19.6367 0C19.8792 0.402575 20.3236 1.0467 20.8893 1.77133C21.7378 2.81803 22.0206 2.89854 22.5459 3.66343C23.1116 4.46858 23.6369 5.39451 23.556 6.48146C23.556 7.04506 23.354 7.64893 22.9904 8.25279C22.9096 8.37356 22.9096 8.49434 22.7479 8.97742Z" fill="#003642"/>
<path fill-rule="evenodd" clip-rule="evenodd" d="M15.1919 13.5672C14.3434 11.192 13.4949 8.89735 12.6868 6.60267C12.6464 6.44164 12.7272 6.24035 12.7676 6.03906C13.7373 7.20653 14.7071 8.25323 15.5556 9.38044C16.4041 10.5076 16.2425 12.5608 15.1919 13.5672Z" fill="#003642"/>
<path fill-rule="evenodd" clip-rule="evenodd" d="M44.2835 16.9492C44.2835 16.9492 43.3137 20.1698 41.0914 21.2165C39.9601 21.7399 38.8691 21.7399 38.8691 21.7399C38.3035 21.7399 37.859 21.6593 37.5762 21.5788C38.1014 21.4178 38.9096 21.0957 39.7581 20.4516C40.7278 19.727 40.9702 19.1231 41.9804 18.318C42.4652 17.9557 43.1925 17.4323 44.3239 16.9895L44.2835 16.9492Z" fill="#003642"/>
<path fill-rule="evenodd" clip-rule="evenodd" d="M19.6769 46.377C19.5564 46.417 19.6368 46.377 19.6769 46.377V46.377Z" fill="#003642"/>
<path d="M135.863 3.50195V33.5339H133.559V3.50195H135.863Z" fill="#231815"/>
<path fill-rule="evenodd" clip-rule="evenodd" d="M140.206 14.8962L141.216 14.7351C141.216 15.4195 141.378 15.8623 141.58 16.1039C141.782 16.3454 142.105 16.4662 142.469 16.4662C142.752 16.4662 142.994 16.3857 143.196 16.2649C143.398 16.1441 143.56 15.9429 143.641 15.7416C143.722 15.5 143.762 15.1377 143.762 14.6546V8.65625H144.893V14.5741C144.893 15.2987 144.812 15.8623 144.651 16.2649C144.489 16.6675 144.206 16.9493 143.843 17.1908C143.479 17.3921 143.035 17.5129 142.509 17.5129C141.742 17.5129 141.176 17.3116 140.772 16.8688C140.368 16.4259 140.166 15.7818 140.206 14.8962ZM150.752 16.5467C150.348 16.8688 149.984 17.1103 149.621 17.2714C149.257 17.3921 148.853 17.4726 148.449 17.4726C147.762 17.4726 147.237 17.3116 146.873 16.9493C146.509 16.6272 146.307 16.1844 146.307 15.6611C146.307 15.339 146.388 15.0572 146.509 14.8156C146.631 14.5741 146.833 14.3728 147.075 14.2118C147.318 14.0508 147.56 13.93 147.843 13.8495C148.045 13.8092 148.368 13.7287 148.772 13.6884C149.621 13.6079 150.267 13.4469 150.671 13.3261C150.671 13.1651 150.671 13.0846 150.671 13.0443C150.671 12.6015 150.59 12.3197 150.388 12.1184C150.106 11.8769 149.702 11.7561 149.176 11.7561C148.691 11.7561 148.328 11.8366 148.085 12.0379C147.843 12.1989 147.681 12.521 147.56 12.9638L146.509 12.8028C146.59 12.3599 146.752 11.9976 146.954 11.7158C147.156 11.434 147.479 11.2327 147.883 11.0717C148.287 10.9107 148.772 10.8302 149.297 10.8302C149.823 10.8302 150.267 10.9107 150.59 11.0314C150.914 11.1522 151.156 11.3132 151.318 11.5145C151.479 11.7158 151.601 11.9574 151.641 12.2392C151.641 12.4405 151.681 12.7625 151.681 13.2053V14.6144C151.681 15.6208 151.681 16.2247 151.762 16.5065C151.803 16.7883 151.883 17.0298 152.005 17.2714H150.914C150.792 17.0298 150.752 16.7883 150.712 16.4662L150.752 16.5467ZM150.671 14.2118C150.267 14.3728 149.702 14.4936 148.934 14.6144C148.489 14.6949 148.207 14.7351 148.004 14.8156C147.843 14.8962 147.681 15.0169 147.6 15.178C147.52 15.339 147.439 15.5 147.439 15.7013C147.439 15.9831 147.56 16.2247 147.762 16.4259C147.964 16.6272 148.287 16.7078 148.691 16.7078C149.095 16.7078 149.459 16.6272 149.782 16.4259C150.106 16.2649 150.348 16.0234 150.469 15.7013C150.59 15.4598 150.631 15.0975 150.631 14.6546V14.252L150.671 14.2118ZM153.378 19.7673V11.0314H154.348V11.8769C154.591 11.5548 154.833 11.3132 155.116 11.1522C155.399 10.9912 155.762 10.9107 156.166 10.9107C156.692 10.9107 157.177 11.0314 157.581 11.3132C157.985 11.595 158.308 11.9976 158.51 12.4807C158.712 13.0041 158.833 13.5274 158.833 14.1313C158.833 14.7754 158.712 15.339 158.51 15.8623C158.267 16.3857 157.944 16.7883 157.5 17.0298C157.055 17.3116 156.611 17.4324 156.126 17.4324C155.762 17.4324 155.439 17.3519 155.197 17.1908C154.914 17.0298 154.671 16.8688 154.51 16.6272V19.6868H153.459L153.378 19.7673ZM154.348 14.252C154.348 15.0572 154.51 15.6611 154.833 16.0234C155.156 16.4259 155.56 16.587 156.005 16.587C156.449 16.587 156.853 16.3857 157.217 15.9831C157.54 15.5805 157.702 14.9767 157.702 14.1313C157.702 13.2859 157.54 12.7223 157.217 12.3197C156.894 11.9171 156.49 11.7158 156.045 11.7158C155.601 11.7158 155.197 11.9171 154.873 12.3599C154.51 12.8028 154.348 13.4066 154.348 14.2118V14.252ZM164.167 16.5467C163.763 16.8688 163.399 17.1103 163.035 17.2714C162.672 17.3921 162.268 17.4726 161.864 17.4726C161.177 17.4726 160.651 17.3116 160.288 16.9493C159.924 16.6272 159.722 16.1844 159.722 15.6611C159.722 15.339 159.803 15.0572 159.924 14.8156C160.045 14.5741 160.247 14.3728 160.49 14.2118C160.732 14.0508 160.975 13.93 161.257 13.8495C161.459 13.8092 161.783 13.7287 162.187 13.6884C163.035 13.6079 163.682 13.4469 164.086 13.3261C164.086 13.1651 164.086 13.0846 164.086 13.0443C164.086 12.6015 164.005 12.3197 163.803 12.1184C163.52 11.8769 163.116 11.7561 162.591 11.7561C162.106 11.7561 161.742 11.8366 161.5 12.0379C161.257 12.1989 161.096 12.521 160.975 12.9638L159.924 12.8028C160.005 12.3599 160.167 11.9976 160.409 11.7158C160.611 11.434 160.934 11.2327 161.338 11.0717C161.742 10.9107 162.227 10.8302 162.752 10.8302C163.278 10.8302 163.722 10.9107 164.045 11.0314C164.369 11.1522 164.611 11.3132 164.773 11.5145C164.934 11.7158 165.056 11.9574 165.096 12.2392C165.096 12.4405 165.136 12.7625 165.136 13.2053V14.6144C165.136 15.6208 165.136 16.2247 165.217 16.5065C165.258 16.7883 165.338 17.0298 165.46 17.2714H164.369C164.247 17.0298 164.207 16.7883 164.167 16.4662V16.5467ZM164.086 14.2118C163.722 14.3728 163.116 14.4936 162.348 14.6144C161.904 14.6949 161.621 14.7351 161.419 14.8156C161.257 14.8962 161.096 15.0169 161.015 15.178C160.934 15.339 160.853 15.5 160.853 15.7013C160.853 15.9831 160.975 16.2247 161.177 16.4259C161.379 16.6272 161.702 16.7078 162.106 16.7078C162.51 16.7078 162.874 16.6272 163.197 16.4259C163.52 16.2649 163.763 16.0234 163.884 15.7013C164.005 15.4598 164.045 15.0975 164.045 14.6546V14.252L164.086 14.2118ZM166.833 17.3519V11.0314H167.803V11.9171C168.248 11.2327 168.934 10.8704 169.783 10.8704C170.147 10.8704 170.51 10.9509 170.834 11.0717C171.157 11.1925 171.399 11.3938 171.561 11.595C171.722 11.8366 171.844 12.0781 171.884 12.4002C171.884 12.6015 171.924 12.9638 171.924 13.4469V17.3116H170.874V13.4872C170.874 13.0443 170.874 12.7223 170.753 12.521C170.672 12.3197 170.51 12.1184 170.308 11.9976C170.106 11.8769 169.864 11.7963 169.581 11.7963C169.137 11.7963 168.732 11.9574 168.409 12.2392C168.086 12.521 167.924 13.0846 167.924 13.8897V17.3116H166.874L166.833 17.3519ZM177.177 17.3519V8.65625H178.309V17.3519H177.177ZM180.208 17.3519V11.0314H181.177V11.9171C181.622 11.2327 182.309 10.8704 183.157 10.8704C183.521 10.8704 183.884 10.9509 184.208 11.0717C184.531 11.1925 184.773 11.3938 184.935 11.595C185.097 11.8366 185.218 12.0781 185.258 12.4002C185.258 12.6015 185.299 12.9638 185.299 13.4469V17.3116H184.248V13.4872C184.248 13.0443 184.248 12.7223 184.127 12.521C184.046 12.3197 183.884 12.1184 183.682 11.9976C183.48 11.8769 183.238 11.7963 182.955 11.7963C182.511 11.7963 182.107 11.9574 181.783 12.2392C181.46 12.521 181.299 13.0846 181.299 13.8897V17.3116H180.248L180.208 17.3519ZM189.218 16.3857L189.38 17.3116C189.097 17.3921 188.814 17.3921 188.572 17.3921C188.208 17.3921 187.885 17.3116 187.683 17.1908C187.481 17.0701 187.319 16.909 187.238 16.7078C187.157 16.5065 187.117 16.1039 187.117 15.4598V11.8366H186.349V10.9912H187.117V9.42114L188.167 8.77702V10.9912H189.218V11.8366H188.167V15.5403C188.167 15.8623 188.167 16.0234 188.208 16.1441C188.208 16.2247 188.289 16.3052 188.369 16.3454C188.45 16.3857 188.572 16.4259 188.733 16.4259C188.854 16.4259 189.016 16.426 189.178 16.3857H189.218ZM194.552 15.2987L195.642 15.4598C195.481 16.1039 195.158 16.587 194.673 16.9493C194.188 17.3116 193.622 17.4726 192.895 17.4726C192.006 17.4726 191.279 17.1908 190.713 16.6272C190.188 16.0636 189.905 15.2585 189.905 14.252C189.905 13.2456 190.188 12.3599 190.713 11.7963C191.238 11.1925 191.966 10.9107 192.814 10.9107C193.663 10.9107 194.309 11.1925 194.834 11.7561C195.36 12.3197 195.642 13.1248 195.642 14.1715C195.642 14.252 195.642 14.3326 195.642 14.4533H190.996C190.996 15.1377 191.238 15.6611 191.562 16.0234C191.925 16.3857 192.329 16.587 192.854 16.587C193.259 16.587 193.582 16.4662 193.824 16.2649C194.107 16.0636 194.309 15.7416 194.471 15.2585L194.552 15.2987ZM191.077 13.6079H194.552C194.511 13.0846 194.39 12.682 194.147 12.4002C193.824 11.9976 193.38 11.7963 192.854 11.7963C192.37 11.7963 191.966 11.9574 191.642 12.2794C191.319 12.6015 191.117 13.0443 191.077 13.6079ZM196.976 17.3519V11.0314H197.905V11.9976C198.148 11.5548 198.39 11.273 198.592 11.112C198.794 10.9509 199.037 10.9107 199.279 10.9107C199.643 10.9107 200.006 11.0314 200.37 11.2327L200.006 12.1989C199.764 12.0379 199.481 11.9976 199.239 11.9976C198.996 11.9976 198.794 12.0781 198.632 12.1989C198.43 12.3197 198.309 12.521 198.228 12.8028C198.107 13.1651 198.067 13.6079 198.067 14.0508V17.3519H197.016H196.976ZM201.057 17.3519V11.0314H202.027V11.9171C202.471 11.2327 203.158 10.8704 204.006 10.8704C204.37 10.8704 204.734 10.9509 205.057 11.0717C205.38 11.1925 205.623 11.3938 205.744 11.595C205.905 11.8366 206.027 12.0781 206.067 12.4002C206.067 12.6015 206.107 12.9638 206.107 13.4469V17.3116H205.057V13.4872C205.057 13.0443 205.057 12.7223 204.936 12.521C204.855 12.3197 204.693 12.1184 204.491 11.9976C204.289 11.8769 204.047 11.7963 203.764 11.7963C203.319 11.7963 202.915 11.9574 202.592 12.2392C202.269 12.521 202.107 13.0846 202.107 13.8897V17.3116H201.057V17.3519ZM211.805 16.5467C211.401 16.8688 211.037 17.1103 210.673 17.2714C210.31 17.3921 209.906 17.4726 209.501 17.4726C208.815 17.4726 208.289 17.3116 207.926 16.9493C207.562 16.6272 207.36 16.1844 207.36 15.6611C207.36 15.339 207.441 15.0572 207.562 14.8156C207.683 14.5741 207.885 14.3728 208.128 14.2118C208.37 14.0508 208.613 13.93 208.895 13.8495C209.097 13.8092 209.421 13.7287 209.825 13.6884C210.673 13.6079 211.32 13.4469 211.724 13.3261C211.724 13.1651 211.724 13.0846 211.724 13.0443C211.724 12.6015 211.643 12.3197 211.441 12.1184C211.158 11.8769 210.754 11.7561 210.229 11.7561C209.744 11.7561 209.38 11.8366 209.138 12.0379C208.895 12.1989 208.734 12.521 208.613 12.9638L207.562 12.8028C207.643 12.3599 207.804 11.9976 208.007 11.7158C208.209 11.434 208.532 11.2327 208.936 11.0717C209.34 10.9107 209.825 10.8302 210.35 10.8302C210.875 10.8302 211.32 10.9107 211.643 11.0314C211.966 11.1522 212.209 11.3132 212.37 11.5145C212.532 11.7158 212.653 11.9574 212.694 12.2392C212.694 12.4405 212.734 12.7625 212.734 13.2053V14.6144C212.734 15.6208 212.734 16.2247 212.815 16.5065C212.855 16.7883 212.936 17.0298 213.057 17.2714H211.966C211.845 17.0298 211.805 16.7883 211.764 16.4662L211.805 16.5467ZM211.724 14.2118C211.32 14.3728 210.754 14.4936 209.986 14.6144C209.542 14.6949 209.259 14.7351 209.057 14.8156C208.895 14.8962 208.734 15.0169 208.653 15.178C208.572 15.339 208.491 15.5 208.491 15.7013C208.491 15.9831 208.613 16.2247 208.815 16.4259C209.017 16.6272 209.34 16.7078 209.744 16.7078C210.148 16.7078 210.512 16.6272 210.835 16.4259C211.158 16.2649 211.401 16.0234 211.522 15.7013C211.643 15.4598 211.683 15.0975 211.683 14.6546V14.252L211.724 14.2118ZM216.774 16.3857L216.936 17.3116C216.653 17.3921 216.37 17.3921 216.128 17.3921C215.764 17.3921 215.441 17.3116 215.239 17.1908C215.037 17.0701 214.875 16.909 214.795 16.7078C214.714 16.5065 214.673 16.1039 214.673 15.4598V11.8366H213.906V10.9912H214.673V9.42114L215.724 8.77702V10.9912H216.774V11.8366H215.724V15.5403C215.724 15.8623 215.724 16.0234 215.764 16.1441C215.764 16.2247 215.845 16.3052 215.926 16.3454C216.007 16.3857 216.128 16.4259 216.29 16.4259C216.411 16.4259 216.572 16.426 216.734 16.3857H216.774ZM217.825 9.86398V8.65625H218.876V9.86398H217.825ZM217.825 17.3519V11.0314H218.876V17.3519H217.825ZM220.128 14.2118C220.128 13.0443 220.451 12.1989 221.098 11.6353C221.623 11.1522 222.27 10.9509 223.037 10.9509C223.886 10.9509 224.573 11.2327 225.138 11.7963C225.664 12.3599 225.946 13.1248 225.946 14.1313C225.946 14.9364 225.825 15.5805 225.583 16.0234C225.34 16.5065 224.977 16.8285 224.532 17.1103C224.088 17.3519 223.563 17.5129 223.037 17.5129C222.148 17.5129 221.462 17.2311 220.936 16.6675C220.411 16.1039 220.128 15.2987 220.128 14.2118ZM221.219 14.2118C221.219 15.0169 221.381 15.6208 221.744 16.0234C222.108 16.4259 222.552 16.6272 223.078 16.6272C223.603 16.6272 224.047 16.4259 224.371 16.0234C224.734 15.6208 224.896 15.0169 224.896 14.1715C224.896 13.4066 224.734 12.8028 224.371 12.4002C224.007 11.9976 223.603 11.7963 223.078 11.7963C222.552 11.7963 222.108 11.9976 221.744 12.4002C221.381 12.8028 221.219 13.4066 221.219 14.2118ZM227.239 17.3519V11.0314H228.169V11.9171C228.613 11.2327 229.3 10.8704 230.149 10.8704C230.512 10.8704 230.876 10.9509 231.199 11.0717C231.522 11.1925 231.765 11.3938 231.886 11.595C232.048 11.8366 232.169 12.0781 232.209 12.4002C232.209 12.6015 232.25 12.9638 232.25 13.4469V17.3116H231.199V13.4872C231.199 13.0443 231.199 12.7223 231.078 12.521C230.997 12.3197 230.836 12.1184 230.634 11.9976C230.432 11.8769 230.189 11.7963 229.906 11.7963C229.462 11.7963 229.058 11.9574 228.734 12.2392C228.411 12.521 228.25 13.0846 228.25 13.8897V17.3116H227.199L227.239 17.3519ZM238.028 16.5467C237.624 16.8688 237.26 17.1103 236.896 17.2714C236.533 17.3921 236.129 17.4726 235.725 17.4726C235.038 17.4726 234.512 17.3116 234.149 16.9493C233.785 16.6272 233.583 16.1844 233.583 15.6611C233.583 15.339 233.664 15.0572 233.785 14.8156C233.906 14.5741 234.108 14.3728 234.351 14.2118C234.593 14.0508 234.836 13.93 235.119 13.8495C235.321 13.8092 235.644 13.7287 236.048 13.6884C236.896 13.6079 237.543 13.4469 237.947 13.3261C237.947 13.1651 237.947 13.0846 237.947 13.0443C237.947 12.6015 237.866 12.3197 237.664 12.1184C237.381 11.8769 236.977 11.7561 236.452 11.7561C235.967 11.7561 235.603 11.8366 235.361 12.0379C235.119 12.1989 234.957 12.521 234.836 12.9638L233.785 12.8028C233.866 12.3599 234.028 11.9976 234.27 11.7158C234.472 11.434 234.795 11.2327 235.199 11.0717C235.603 10.9107 236.088 10.8302 236.614 10.8302C237.139 10.8302 237.583 10.9107 237.907 11.0314C238.23 11.1522 238.472 11.3132 238.634 11.5145C238.795 11.7158 238.917 11.9574 238.957 12.2392C238.957 12.4405 238.997 12.7625 238.997 13.2053V14.6144C238.997 15.6208 238.997 16.2247 239.078 16.5065C239.119 16.7883 239.199 17.0298 239.321 17.2714H238.23C238.109 17.0298 238.068 16.7883 238.028 16.4662V16.5467ZM237.947 14.2118C237.543 14.3728 236.977 14.4936 236.209 14.6144C235.765 14.6949 235.482 14.7351 235.28 14.8156C235.119 14.8962 234.957 15.0169 234.876 15.178C234.795 15.339 234.714 15.5 234.714 15.7013C234.714 15.9831 234.836 16.2247 235.038 16.4259C235.24 16.6272 235.563 16.7078 235.967 16.7078C236.371 16.7078 236.735 16.6272 237.058 16.4259C237.381 16.2649 237.624 16.0234 237.745 15.7013C237.866 15.4598 237.907 15.0975 237.907 14.6546V14.252L237.947 14.2118ZM240.654 17.3519V8.65625H241.705V17.3519H240.654ZM140.812 30.9187V22.223H147.035V23.2295H141.984V25.8865H146.712V26.8929H141.984V29.872H147.237V30.8784H140.812V30.9187ZM148.691 30.9187V24.5982H149.621V25.4839C150.065 24.7995 150.752 24.4372 151.601 24.4372C151.964 24.4372 152.328 24.5177 152.651 24.6385C152.974 24.7593 153.217 24.9605 153.338 25.1618C153.5 25.3631 153.621 25.6449 153.661 25.967C153.661 26.1683 153.702 26.5306 153.702 27.0137V30.8784H152.651V27.0539C152.651 26.6111 152.651 26.289 152.53 26.0878C152.449 25.8865 152.287 25.6852 152.085 25.5644C151.883 25.4436 151.641 25.3631 151.358 25.3631C150.914 25.3631 150.51 25.5241 150.186 25.8059C149.863 26.0878 149.702 26.6514 149.702 27.4565V30.8784H148.651L148.691 30.9187ZM157.702 29.9927L157.863 30.9187C157.581 30.9992 157.298 30.9992 157.055 30.9992C156.692 30.9992 156.368 30.9187 156.166 30.7979C155.964 30.6771 155.803 30.5161 155.722 30.3148C155.641 30.1135 155.601 29.7109 155.601 29.0668V25.4436H154.833V24.5982H155.601V23.0282L156.651 22.3841V24.5982H157.702V25.4436H156.651V29.1473C156.651 29.4694 156.651 29.6304 156.692 29.7512C156.692 29.8317 156.772 29.9122 156.853 29.9525C156.934 29.9927 157.055 30.033 157.217 30.033C157.338 30.033 157.5 30.033 157.661 29.9927H157.702ZM158.752 30.9187V24.5982H159.722V25.5644C159.964 25.1216 160.207 24.8398 160.409 24.6787C160.611 24.5177 160.853 24.4775 161.096 24.4775C161.459 24.4775 161.823 24.5982 162.187 24.7995L161.823 25.7657C161.581 25.6047 161.298 25.5644 161.055 25.5644C160.813 25.5644 160.611 25.6449 160.449 25.7657C160.247 25.8865 160.126 26.0878 160.045 26.3293C159.924 26.6916 159.884 27.1344 159.884 27.5773V30.8784H158.833L158.752 30.9187ZM167.076 28.9058L168.167 29.0668C168.005 29.7109 167.682 30.194 167.197 30.5563C166.753 30.9187 166.147 31.0797 165.419 31.0797C164.53 31.0797 163.803 30.7979 163.278 30.2343C162.752 29.6707 162.47 28.8655 162.47 27.8591C162.47 26.8526 162.752 25.967 163.278 25.4034C163.803 24.7995 164.53 24.5177 165.379 24.5177C166.227 24.5177 166.874 24.7995 167.399 25.3631C167.924 25.9267 168.207 26.7319 168.207 27.7786C168.207 27.8591 168.207 27.9396 168.207 28.0604H163.561C163.561 28.7447 163.803 29.2681 164.126 29.6304C164.49 29.9927 164.894 30.194 165.419 30.194C165.823 30.194 166.147 30.0732 166.389 29.872C166.672 29.6707 166.874 29.3486 167.035 28.8655L167.076 28.9058ZM163.601 27.1747H167.076C167.035 26.6514 166.914 26.2488 166.672 25.967C166.349 25.5644 165.904 25.3631 165.379 25.3631C164.894 25.3631 164.49 25.5241 164.167 25.8462C163.843 26.1683 163.641 26.6111 163.601 27.1747ZM169.5 33.3341V24.5982H170.47V25.4436C170.712 25.1216 170.955 24.88 171.238 24.719C171.52 24.558 171.884 24.4775 172.288 24.4775C172.813 24.4775 173.298 24.5982 173.702 24.88C174.106 25.1618 174.43 25.5644 174.632 26.0475C174.834 26.5708 174.955 27.0942 174.955 27.6981C174.955 28.3422 174.834 28.9058 174.632 29.4291C174.389 29.9525 174.066 30.355 173.622 30.5966C173.177 30.8784 172.733 30.9992 172.248 30.9992C171.884 30.9992 171.561 30.9187 171.318 30.7576C171.036 30.5966 170.793 30.4356 170.632 30.194V33.2536H169.581L169.5 33.3341ZM170.47 27.8188C170.47 28.624 170.632 29.2278 170.955 29.5902C171.278 29.9927 171.682 30.1538 172.127 30.1538C172.571 30.1538 173.015 29.9525 173.339 29.5499C173.662 29.1473 173.824 28.5435 173.824 27.6981C173.824 26.8526 173.662 26.289 173.339 25.8865C173.015 25.4839 172.611 25.2826 172.167 25.2826C171.722 25.2826 171.318 25.4839 170.995 25.9267C170.632 26.3696 170.47 26.9734 170.47 27.7786V27.8188ZM176.207 30.9187V24.5982H177.137V25.5644C177.379 25.1216 177.622 24.8398 177.824 24.6787C178.026 24.5177 178.268 24.4775 178.511 24.4775C178.874 24.4775 179.238 24.5982 179.602 24.7995L179.238 25.7657C178.995 25.6047 178.713 25.5644 178.47 25.5644C178.228 25.5644 178.026 25.6449 177.864 25.7657C177.662 25.8865 177.541 26.0878 177.46 26.3293C177.339 26.6916 177.298 27.1344 177.298 27.5773V30.8784H176.248L176.207 30.9187ZM184.531 28.9058L185.622 29.0668C185.46 29.7109 185.137 30.194 184.652 30.5563C184.208 30.9187 183.602 31.0797 182.874 31.0797C181.985 31.0797 181.258 30.7979 180.692 30.2343C180.167 29.6707 179.884 28.8655 179.884 27.8591C179.884 26.8526 180.167 25.967 180.692 25.4034C181.218 24.7995 181.945 24.5177 182.794 24.5177C183.642 24.5177 184.289 24.7995 184.814 25.3631C185.339 25.9267 185.622 26.7319 185.622 27.7786C185.622 27.8591 185.622 27.9396 185.622 28.0604H180.975C180.975 28.7447 181.218 29.2681 181.541 29.6304C181.905 29.9927 182.309 30.194 182.834 30.194C183.238 30.194 183.561 30.0732 183.804 29.872C184.087 29.6707 184.289 29.3486 184.45 28.8655L184.531 28.9058ZM181.056 27.1747H184.531C184.491 26.6514 184.369 26.2488 184.127 25.967C183.804 25.5644 183.359 25.3631 182.834 25.3631C182.349 25.3631 181.945 25.5241 181.622 25.8462C181.299 26.1683 181.097 26.6111 181.056 27.1747ZM186.996 30.9187V24.5982H187.925V25.4839C188.369 24.7995 189.056 24.4372 189.905 24.4372C190.269 24.4372 190.632 24.5177 190.955 24.6385C191.279 24.7593 191.521 24.9605 191.642 25.1618C191.804 25.3631 191.925 25.6449 191.966 25.967C191.966 26.1683 192.006 26.5306 192.006 27.0137V30.8784H190.955V27.0539C190.955 26.6111 190.955 26.289 190.834 26.0878C190.753 25.8865 190.592 25.6852 190.39 25.5644C190.188 25.4436 189.945 25.3631 189.662 25.3631C189.218 25.3631 188.814 25.5241 188.491 25.8059C188.167 26.0878 188.006 26.6514 188.006 27.4565V30.8784H186.955L186.996 30.9187ZM197.946 28.9058L199.037 29.0668C198.875 29.7109 198.552 30.194 198.067 30.5563C197.582 30.9187 197.016 31.0797 196.289 31.0797C195.4 31.0797 194.673 30.7979 194.147 30.2343C193.622 29.6707 193.339 28.8655 193.339 27.8591C193.339 26.8526 193.622 25.967 194.147 25.4034C194.673 24.7995 195.4 24.5177 196.249 24.5177C197.097 24.5177 197.744 24.7995 198.269 25.3631C198.794 25.9267 199.077 26.7319 199.077 27.7786C199.077 27.8591 199.077 27.9396 199.077 28.0604H194.43C194.43 28.7447 194.673 29.2681 194.996 29.6304C195.36 29.9927 195.764 30.194 196.289 30.194C196.693 30.194 197.016 30.0732 197.259 29.872C197.542 29.6707 197.744 29.3486 197.905 28.8655L197.946 28.9058ZM194.471 27.1747H197.946C197.905 26.6514 197.784 26.2488 197.542 25.967C197.218 25.5644 196.774 25.3631 196.249 25.3631C195.764 25.3631 195.36 25.5241 195.036 25.8462C194.713 26.1683 194.511 26.6111 194.471 27.1747ZM204.491 30.9187V29.9927C204.006 30.7174 203.36 31.0797 202.511 31.0797C202.148 31.0797 201.784 30.9992 201.501 30.8784C201.178 30.7174 200.936 30.5563 200.774 30.355C200.612 30.1538 200.491 29.872 200.451 29.5499C200.41 29.3486 200.37 29.0266 200.37 28.5435V24.6385H201.42V28.1409C201.42 28.7045 201.42 29.0668 201.501 29.2681C201.582 29.5499 201.703 29.7512 201.905 29.9122C202.107 30.0732 202.39 30.1538 202.713 30.1538C203.037 30.1538 203.319 30.0732 203.602 29.9122C203.885 29.7512 204.087 29.5096 204.208 29.2278C204.33 28.946 204.37 28.5435 204.37 27.9799V24.5982H205.421V30.9187H204.491ZM207.118 30.9187V24.5982H208.047V25.5644C208.289 25.1216 208.532 24.8398 208.734 24.6787C208.936 24.5177 209.178 24.4775 209.421 24.4775C209.784 24.4775 210.148 24.5982 210.512 24.7995L210.148 25.7657C209.906 25.6047 209.623 25.5644 209.38 25.5644C209.138 25.5644 208.936 25.6449 208.774 25.7657C208.572 25.8865 208.451 26.0878 208.37 26.3293C208.249 26.6916 208.209 27.1344 208.209 27.5773V30.8784H207.158L207.118 30.9187ZM210.714 29.0266L211.764 28.8655C211.805 29.3084 212.007 29.6304 212.249 29.8317C212.532 30.0732 212.896 30.1538 213.38 30.1538C213.865 30.1538 214.229 30.0732 214.471 29.872C214.714 29.6707 214.835 29.4291 214.835 29.1876C214.835 28.946 214.714 28.7447 214.512 28.624C214.35 28.5435 213.987 28.4227 213.421 28.2617C212.653 28.0604 212.128 27.8993 211.805 27.7383C211.522 27.5773 211.279 27.376 211.118 27.1344C210.956 26.8929 210.875 26.6111 210.875 26.289C210.875 26.0072 210.956 25.7657 211.077 25.5241C211.199 25.2826 211.36 25.0813 211.603 24.9203C211.764 24.7995 212.007 24.6787 212.289 24.5982C212.572 24.5177 212.855 24.4775 213.219 24.4775C213.704 24.4775 214.148 24.558 214.512 24.6787C214.875 24.8398 215.158 25.0008 215.32 25.2423C215.482 25.4839 215.603 25.806 215.684 26.2085L214.633 26.3696C214.593 26.0475 214.471 25.7657 214.229 25.6047C213.987 25.4034 213.704 25.3229 213.259 25.3229C212.774 25.3229 212.451 25.4034 212.209 25.5644C212.007 25.7254 211.885 25.9267 211.885 26.128C211.885 26.2488 211.926 26.4098 212.007 26.4903C212.087 26.6111 212.209 26.6916 212.411 26.7721C212.532 26.7721 212.815 26.8929 213.34 27.0539C214.067 27.2552 214.593 27.4163 214.916 27.537C215.199 27.6578 215.441 27.8591 215.603 28.1006C215.764 28.3422 215.845 28.6642 215.845 29.0266C215.845 29.3889 215.724 29.7109 215.522 30.033C215.32 30.355 215.037 30.5966 214.633 30.7576C214.229 30.9187 213.825 30.9992 213.3 30.9992C212.492 30.9992 211.885 30.8381 211.441 30.4758C211.037 30.1538 210.754 29.6304 210.633 28.9863L210.714 29.0266ZM217.179 30.9187V22.223H218.229V25.3631C218.714 24.7995 219.32 24.4775 220.088 24.4775C220.532 24.4775 220.936 24.558 221.3 24.7593C221.623 24.9605 221.866 25.2021 222.027 25.5241C222.189 25.8462 222.229 26.3293 222.229 26.9332V30.9187H221.179V26.9332C221.179 26.4098 221.057 26.0072 220.855 25.7657C220.613 25.5241 220.29 25.4034 219.886 25.4034C219.562 25.4034 219.28 25.4839 218.997 25.6449C218.714 25.8059 218.512 26.0475 218.391 26.3293C218.269 26.6111 218.229 27.0137 218.229 27.4968V30.9187H217.179ZM223.886 23.4308V22.223H224.936V23.4308H223.886ZM223.886 30.9187V24.5982H224.936V30.9187H223.886ZM226.593 33.3341V24.5982H227.563V25.4436C227.805 25.1216 228.048 24.88 228.33 24.719C228.613 24.558 228.977 24.4775 229.381 24.4775C229.906 24.4775 230.391 24.5982 230.795 24.88C231.199 25.1618 231.522 25.5644 231.724 26.0475C231.926 26.5708 232.048 27.0942 232.048 27.6981C232.048 28.3422 231.926 28.9058 231.724 29.4291C231.482 29.9525 231.159 30.355 230.714 30.5966C230.27 30.8784 229.825 30.9992 229.341 30.9992C228.977 30.9992 228.654 30.9187 228.411 30.7576C228.128 30.5966 227.886 30.4356 227.724 30.194V33.2536H226.674L226.593 33.3341ZM227.563 27.8188C227.563 28.624 227.724 29.2278 228.048 29.5902C228.371 29.9927 228.775 30.1538 229.219 30.1538C229.664 30.1538 230.108 29.9525 230.431 29.5499C230.755 29.1473 230.916 28.5435 230.916 27.6981C230.916 26.8526 230.755 26.289 230.431 25.8865C230.108 25.4839 229.704 25.2826 229.26 25.2826C228.815 25.2826 228.411 25.4839 228.088 25.9267C227.724 26.3696 227.563 26.9734 227.563 27.7786V27.8188ZM236.816 30.9187V22.223H242.634V23.2295H237.987V25.9267H242.028V26.9332H237.987V30.8784H236.856L236.816 30.9187ZM243.604 27.7786C243.604 26.6111 243.927 25.7657 244.573 25.2021C245.099 24.719 245.745 24.5177 246.553 24.5177C247.402 24.5177 248.089 24.7995 248.654 25.3631C249.18 25.9267 249.462 26.6916 249.462 27.6981C249.462 28.5032 249.341 29.1473 249.099 29.5902C248.856 30.0732 248.493 30.3953 248.048 30.6771C247.604 30.9187 247.079 31.0797 246.553 31.0797C245.664 31.0797 244.977 30.7979 244.452 30.2343C243.927 29.6707 243.644 28.8655 243.644 27.7786H243.604ZM244.654 27.7786C244.654 28.5837 244.816 29.1876 245.179 29.5902C245.543 29.9927 245.988 30.194 246.513 30.194C247.038 30.194 247.483 29.9927 247.806 29.5902C248.169 29.1876 248.331 28.5837 248.331 27.7383C248.331 26.9734 248.169 26.3696 247.806 25.967C247.442 25.5644 247.038 25.3631 246.513 25.3631C245.988 25.3631 245.543 25.5644 245.179 25.967C244.816 26.3696 244.654 26.9734 244.654 27.7786ZM254.756 30.9187V29.9927C254.271 30.7174 253.624 31.0797 252.776 31.0797C252.412 31.0797 252.048 30.9992 251.766 30.8784C251.442 30.7174 251.2 30.5563 251.038 30.355C250.877 30.1538 250.796 29.872 250.715 29.5499C250.675 29.3486 250.634 29.0266 250.634 28.5435V24.6385H251.685V28.1409C251.685 28.7045 251.685 29.0668 251.766 29.2681C251.846 29.5499 251.968 29.7512 252.17 29.9122C252.372 30.0732 252.654 30.1538 252.978 30.1538C253.301 30.1538 253.584 30.0732 253.867 29.9122C254.149 29.7512 254.352 29.5096 254.473 29.2278C254.594 28.946 254.634 28.5435 254.634 27.9799V24.5982H255.685V30.9187H254.756ZM257.422 30.9187V24.5982H258.352V25.4839C258.796 24.7995 259.483 24.4372 260.332 24.4372C260.695 24.4372 261.059 24.5177 261.382 24.6385C261.705 24.7593 261.948 24.9605 262.069 25.1618C262.231 25.3631 262.352 25.6449 262.392 25.967C262.392 26.1683 262.433 26.5306 262.433 27.0137V30.8784H261.382V27.0539C261.382 26.6111 261.382 26.289 261.261 26.0878C261.18 25.8865 261.018 25.6852 260.816 25.5644C260.614 25.4436 260.372 25.3631 260.089 25.3631C259.645 25.3631 259.241 25.5241 258.917 25.8059C258.594 26.0878 258.432 26.6514 258.432 27.4565V30.8784H257.382L257.422 30.9187Z" fill="#003642"/>
<path fill-rule="evenodd" clip-rule="evenodd" d="M268.129 30.9183V30.1131C267.725 30.717 267.159 31.0391 266.391 31.0391C265.907 31.0391 265.422 30.9183 265.018 30.6365C264.614 30.3547 264.29 29.9924 264.048 29.469C263.805 28.9859 263.725 28.4223 263.725 27.7782C263.725 27.1341 263.846 26.5705 264.048 26.0874C264.25 25.564 264.573 25.2017 264.977 24.9199C265.381 24.6381 265.866 24.5173 266.351 24.5173C266.715 24.5173 267.078 24.5979 267.361 24.7589C267.644 24.9199 267.886 25.1212 268.088 25.403V22.2629H269.139V30.9585H268.169L268.129 30.9183ZM264.816 27.7782C264.816 28.5833 264.977 29.1872 265.341 29.5898C265.664 29.9924 266.068 30.1936 266.553 30.1936C267.038 30.1936 267.402 29.9924 267.725 29.63C268.048 29.2677 268.21 28.6639 268.21 27.899C268.21 27.0536 268.048 26.4094 267.725 26.0069C267.402 25.6043 266.997 25.403 266.513 25.403C266.028 25.403 265.664 25.6043 265.341 25.9666C265.018 26.3692 264.856 26.973 264.856 27.7782H264.816ZM274.917 30.1534C274.513 30.4754 274.149 30.717 273.786 30.878C273.422 30.9988 273.018 31.0793 272.614 31.0793C271.927 31.0793 271.402 30.9183 271.038 30.556C270.674 30.2339 270.472 29.7911 270.472 29.2677C270.472 28.9457 270.553 28.6639 270.674 28.4223C270.796 28.1808 270.998 27.9795 271.24 27.8185C271.482 27.6574 271.725 27.5366 272.008 27.4561C272.21 27.4159 272.533 27.3354 272.937 27.2951C273.786 27.1743 274.432 27.0536 274.836 26.9328C274.836 26.7718 274.836 26.6912 274.836 26.651C274.836 26.2081 274.755 25.9263 274.553 25.7251C274.27 25.4835 273.866 25.3627 273.341 25.3627C272.856 25.3627 272.493 25.4433 272.25 25.6445C272.008 25.8056 271.846 26.1276 271.725 26.5705L270.674 26.4094C270.755 25.9666 270.917 25.6043 271.159 25.3225C271.361 25.0407 271.684 24.8394 272.089 24.6784C272.493 24.5173 272.977 24.4368 273.503 24.4368C274.028 24.4368 274.472 24.5173 274.796 24.6381C275.119 24.7589 275.361 24.9199 275.523 25.1212C275.685 25.3225 275.806 25.564 275.846 25.8458C275.846 26.0471 275.887 26.3692 275.887 26.812V28.221C275.887 29.2275 275.887 29.8313 275.967 30.1131C276.008 30.3949 276.089 30.6365 276.21 30.878H275.119C274.998 30.6365 274.957 30.3949 274.917 30.0729V30.1534ZM274.836 27.7782C274.432 27.9392 273.866 28.06 273.099 28.1808C272.654 28.2613 272.371 28.3015 272.169 28.3821C271.967 28.4626 271.846 28.5833 271.765 28.7444C271.684 28.9054 271.604 29.0664 271.604 29.2677C271.604 29.5495 271.725 29.7911 271.927 29.9924C272.129 30.1936 272.452 30.2742 272.856 30.2742C273.26 30.2742 273.624 30.1936 273.947 29.9924C274.27 29.8313 274.513 29.5898 274.634 29.2677C274.755 29.0262 274.796 28.6639 274.796 28.221V27.8185L274.836 27.7782ZM279.846 29.9924L280.008 30.9183C279.725 30.9988 279.442 30.9988 279.2 30.9988C278.836 30.9988 278.513 30.9183 278.311 30.7975C278.109 30.6767 277.947 30.5157 277.866 30.3144C277.786 30.1131 277.745 29.7106 277.745 29.0664V25.4433H276.978V24.5979H277.745V23.0278L278.796 22.3837V24.5979H279.846V25.4433H278.796V29.1469C278.796 29.469 278.796 29.63 278.836 29.7508C278.836 29.8313 278.917 29.9118 278.998 29.9521C279.079 29.9924 279.2 30.0326 279.362 30.0326C279.483 30.0326 279.644 30.0326 279.806 29.9924H279.846ZM280.937 23.4304V22.2227H281.988V23.4304H280.937ZM280.937 30.9183V24.5979H281.988V30.9183H280.937ZM283.24 27.7782C283.24 26.6107 283.564 25.7653 284.21 25.2017C284.735 24.7186 285.382 24.5173 286.19 24.5173C287.039 24.5173 287.725 24.7991 288.291 25.3627C288.816 25.9263 289.099 26.6912 289.099 27.6977C289.099 28.5028 288.978 29.1469 288.736 29.5898C288.493 30.0729 288.129 30.3949 287.685 30.6767C287.241 30.9183 286.715 31.0793 286.19 31.0793C285.301 31.0793 284.614 30.7975 284.089 30.2339C283.564 29.6703 283.281 28.8651 283.281 27.7782H283.24ZM284.291 27.7782C284.291 28.5833 284.453 29.1872 284.816 29.5898C285.18 29.9924 285.624 30.1936 286.15 30.1936C286.675 30.1936 287.119 29.9924 287.443 29.5898C287.806 29.1872 287.968 28.5833 287.968 27.7379C287.968 26.973 287.806 26.3692 287.443 25.9666C287.079 25.564 286.675 25.3627 286.15 25.3627C285.624 25.3627 285.18 25.564 284.816 25.9666C284.453 26.3692 284.291 26.973 284.291 27.7782ZM290.352 30.9183V24.5979H291.281V25.4835C291.726 24.7991 292.412 24.4368 293.261 24.4368C293.625 24.4368 293.988 24.5173 294.311 24.6381C294.635 24.7589 294.877 24.9602 294.998 25.1615C295.16 25.3627 295.281 25.6445 295.322 25.9666C295.322 26.1679 295.362 26.5302 295.362 27.0133V30.878H294.311V27.0536C294.311 26.6107 294.271 26.2887 294.19 26.0874C294.109 25.8861 293.948 25.6848 293.746 25.564C293.544 25.4433 293.301 25.3627 293.019 25.3627C292.574 25.3627 292.17 25.5238 291.847 25.8056C291.524 26.0874 291.362 26.651 291.362 27.4561V30.878H290.311L290.352 30.9183Z" fill="#003642"/>
<path fill-rule="evenodd" clip-rule="evenodd" d="M68.2039 43.2776C67.7998 42.9555 67.7594 42.8348 68.0827 42.8348C68.4059 42.8348 69.0524 42.8348 69.9817 42.7543C70.9111 42.6737 71.9212 42.553 72.9717 42.3919C74.0223 42.2309 74.9516 42.0699 75.8001 41.9491C76.6082 41.7881 77.2951 41.8686 77.7396 42.1101C78.2244 42.3517 78.4265 42.553 78.3861 42.714C78.3457 42.875 78.1032 42.9555 77.7396 42.9153C77.3355 42.9153 76.7294 42.875 75.9617 42.875C75.194 42.875 74.3051 42.875 73.4162 42.9958C72.5273 43.0763 71.7596 43.1568 71.1131 43.2776C70.507 43.3984 69.9817 43.4789 69.5373 43.5997C69.0928 43.6802 68.6888 43.5997 68.2443 43.3179L68.2039 43.2776ZM80.568 43.3581C81.2144 43.1166 81.6589 42.9958 81.9417 42.9153C81.9417 44.6464 81.9417 45.6931 81.9417 46.0151C81.9417 46.3372 81.8205 46.4982 81.6589 46.4982C81.4973 46.4982 81.2549 46.4177 80.9316 46.2969C80.6084 46.1761 80.568 46.2567 80.8508 46.4579C81.0932 46.6592 81.2953 46.8605 81.4165 47.0618C81.5377 47.2228 81.6185 47.4241 81.6993 47.5852C81.7801 47.7462 81.9013 47.7059 82.1438 47.4644C82.3458 47.2228 82.467 46.941 82.5478 46.6995C82.6286 46.4579 82.6286 46.0554 82.6286 45.532C82.6286 45.0087 82.6286 44.284 82.5882 43.3984C82.5882 42.5127 82.5882 41.8686 82.5882 41.466C82.5882 41.0634 82.5882 40.7816 82.6286 40.6609C82.6286 40.5401 82.7498 40.4193 82.8711 40.2985C82.9923 40.1778 82.9519 40.057 82.7498 39.896C82.5478 39.7349 82.3862 39.6544 82.265 39.6142C82.1438 39.6142 82.0226 39.6142 81.9013 39.6947C81.7801 39.7752 81.4165 39.896 80.77 40.057C81.5781 39.0908 82.1842 38.5272 82.467 38.3259C82.7903 38.1246 82.7094 37.9234 82.1842 37.6818C81.7397 37.4805 81.5377 37.4805 81.5781 37.6416C81.6185 37.8026 81.5781 38.0039 81.5377 38.2454C81.4569 38.487 81.0932 39.0908 80.4467 40.057C80.1639 40.057 79.9619 40.057 79.8407 40.057C79.7194 40.057 79.679 40.1375 79.8003 40.2985C79.8811 40.4596 79.9619 40.6609 80.0023 40.8219C80.0023 40.9829 80.0427 41.2647 80.0831 41.5868C80.0831 41.9491 80.0831 42.4322 80.0831 43.1166C79.1134 43.3581 78.4265 43.5191 78.1436 43.5594C77.8204 43.5594 77.7396 43.6802 77.8608 43.801C77.982 43.9217 78.1436 44.0425 78.3052 44.123C78.4669 44.2035 78.6285 44.2035 78.7497 44.123C78.8709 44.0425 79.3154 43.8815 80.0831 43.6399C80.0023 44.2035 79.8407 44.7671 79.6386 45.2905C79.4366 45.8138 79.275 46.2164 79.073 46.4579C78.8709 46.6995 78.7093 46.941 78.5477 47.1826C78.3861 47.3839 78.3457 47.5046 78.3861 47.5046C78.4265 47.5046 78.5477 47.4241 78.7093 47.3034C78.8709 47.1826 79.073 46.9813 79.3558 46.6592C79.6386 46.3774 79.9215 45.8943 80.2043 45.2502C80.4871 44.6061 80.6084 44.0022 80.6488 43.3581H80.568ZM85.7398 45.4113C86.1035 45.8138 86.4671 46.1359 86.9116 46.3774C87.3561 46.5787 88.0026 46.8203 88.8107 47.0216C89.1339 47.1021 89.1743 47.1423 89.0127 47.2228C88.8107 47.3034 88.5682 47.3436 88.2854 47.3839C88.0026 47.4241 87.6793 47.4644 87.3561 47.5046C87.0328 47.5046 86.75 47.3839 86.4267 47.1021C86.1439 46.8203 85.7803 46.4177 85.3762 45.9346C85.053 46.2969 84.7297 46.619 84.3661 46.8605C84.0024 47.1021 83.7196 47.2631 83.3963 47.3436C83.1135 47.4241 82.8307 47.4644 82.5882 47.4644C82.3458 47.4644 82.3458 47.4241 82.5882 47.3034C82.8307 47.1826 83.2347 47.0216 83.6792 46.6995C84.1236 46.4177 84.5681 45.9749 84.9317 45.4515C84.7297 45.21 84.5277 44.9684 84.2449 44.7269C83.962 44.4451 83.7196 44.284 83.4771 44.1633C83.2347 44.0425 83.1539 43.962 83.3155 43.9217C83.4771 43.8815 83.5984 43.8412 83.7196 43.8815C83.8408 43.8815 84.0428 44.0425 84.3257 44.284L85.1742 45.0489C85.3762 44.6866 85.4974 44.2438 85.5378 43.801C85.6186 43.3581 85.5378 43.1166 85.457 43.1166C85.3762 43.1166 85.1742 43.1166 84.9317 43.2373C84.7297 43.3179 84.5277 43.3984 84.3257 43.4386C84.164 43.4789 83.962 43.4386 83.8004 43.2776C83.6388 43.1166 83.6388 43.0361 83.8812 43.0361C84.1236 43.0361 84.4065 42.9555 84.6893 42.875C84.9721 42.7945 85.2146 42.6737 85.3762 42.5932C85.5378 42.5127 85.6994 42.4725 85.8611 42.5127C86.0631 42.553 86.2247 42.6335 86.4267 42.714C86.5884 42.7945 86.6288 42.9153 86.5076 43.0763C86.3863 43.2373 86.2651 43.5997 86.1439 44.0828C86.0227 44.5658 85.9015 45.0489 85.6994 45.4918L85.7398 45.4113ZM84.4873 39.5739C84.9721 39.4531 85.255 39.3726 85.3762 39.3726C85.4974 39.3726 85.5378 39.5739 85.5378 39.9765C85.5378 40.3791 85.5378 40.8219 85.5378 41.2647C85.5378 41.7076 85.8207 41.9491 86.3055 42.0296C87.0732 42.0296 87.5581 41.9088 87.8005 41.7881C88.043 41.6673 88.043 41.5465 87.8813 41.3855C87.6793 41.2245 87.4773 41.2245 87.2753 41.305C87.0732 41.3855 86.7904 41.4258 86.4671 41.4258C86.1439 41.4258 85.9823 41.1842 86.0227 40.7816C86.0227 40.3791 86.0631 40.057 86.1439 39.8557C86.2247 39.6544 86.3055 39.4934 86.4671 39.3726C86.6288 39.2519 86.5884 39.1713 86.3863 39.0506C86.1843 38.9298 86.0227 38.8493 85.9015 38.809C85.7803 38.7688 85.6186 38.809 85.457 38.8895C85.2954 38.97 85.0934 39.0908 84.8105 39.1311C84.5277 39.2116 84.3257 39.2519 84.164 39.2116C84.0024 39.2116 83.8812 39.2116 83.7196 39.2116C83.558 39.2116 83.558 39.2921 83.6388 39.4129C83.7196 39.5337 83.8004 39.6947 83.8408 39.8557C83.8812 40.0167 83.8812 40.3388 83.8408 40.8219C83.8004 41.305 83.7196 41.6673 83.5984 41.9491C83.4771 42.2309 83.3155 42.4725 83.1539 42.6737C82.9923 42.875 83.0327 42.9153 83.3155 42.7945C83.558 42.6737 83.8004 42.4725 83.962 42.2309C84.1236 41.9894 84.2449 41.6673 84.3257 41.2245C84.4065 40.7816 84.4469 40.2583 84.4873 39.5739ZM81.9821 42.5932C81.7397 42.6737 81.2549 42.7543 80.6084 42.9153V40.3388C80.972 40.2583 81.2953 40.1778 81.4973 40.1375C81.6993 40.1375 81.8609 40.1375 81.9013 40.3388C81.9417 40.4998 81.9821 41.2245 81.9821 42.553V42.5932ZM81.2953 44.0022C81.6589 44.1633 81.7397 44.4048 81.6185 44.7269C81.4569 45.0489 81.2952 44.9282 81.0124 44.3646C80.6488 43.8412 80.7296 43.7204 81.2953 44.0022ZM80.972 41.5465C80.972 41.5465 80.8104 41.305 80.77 41.1842C80.7296 41.0634 80.8912 41.0634 81.2144 41.1842C81.5781 41.2647 81.6993 41.5063 81.6589 41.8283C81.6185 42.1504 81.3761 42.0699 81.0124 41.5868L80.972 41.5465ZM92.0431 43.7204C92.0431 44.0828 92.0835 44.3243 92.1643 44.4451C92.2451 44.5658 92.3259 44.5256 92.4067 44.3646C92.4876 44.1633 92.5684 43.962 92.6088 43.7607C92.6088 43.5594 92.6088 43.3179 92.6088 43.0763C92.6088 42.8348 92.6088 42.3919 92.6088 41.6673C92.6088 40.9829 92.6492 40.4998 92.6896 40.2583C92.73 40.0167 92.8108 39.8155 92.8916 39.6947C92.9724 39.5739 92.9724 39.4531 92.8108 39.3324C92.6492 39.2116 92.4876 39.0908 92.2855 38.9701C92.0835 38.8493 91.8815 38.8493 91.6794 38.9701C91.4774 39.0908 91.1138 39.2116 90.6289 39.2921C90.144 39.3726 89.74 39.4129 89.4975 39.3726C89.2147 39.3324 89.1339 39.3726 89.2551 39.5739C89.3763 39.7752 89.4571 40.057 89.4571 40.4193C89.4571 40.7816 89.4975 41.305 89.4975 41.9491C89.4975 42.5932 89.4976 43.0361 89.3763 43.3179C89.2955 43.5997 89.3359 43.9217 89.4571 44.284C89.6188 44.6464 89.74 44.5256 89.9016 43.962C90.3057 43.962 90.6289 43.8815 90.8713 43.8815C91.1138 43.8815 91.4774 43.801 92.0027 43.6802L92.0431 43.7204ZM96.6493 40.9024C97.2554 40.7816 97.6998 40.7011 97.9423 40.6609C98.1847 40.6206 98.4271 40.6206 98.6292 40.6609C98.8312 40.6609 98.9524 40.7816 99.0332 40.8622C99.114 40.9829 99.0332 41.0634 98.8312 41.144C98.6292 41.2245 97.9019 41.3452 96.6493 41.5868C96.6493 43.1568 96.6493 44.3646 96.7301 45.21C96.8109 46.0554 96.7301 46.6592 96.5685 47.1021C96.4069 47.5046 96.2453 47.7864 96.124 47.867C95.9624 47.9877 95.8412 47.867 95.6392 47.5852C95.4776 47.3034 95.1543 46.9813 94.7503 46.6995C94.3462 46.4177 94.3866 46.2969 94.9119 46.3774C95.4371 46.4579 95.7604 46.4579 95.8412 46.4579C95.9624 46.4579 96.0432 46.2164 96.0432 45.6931C96.0432 45.1697 96.0432 44.2035 96.0432 42.714C95.518 43.3984 95.0331 43.962 94.5078 44.4048C93.9825 44.8476 93.5785 45.1294 93.2148 45.2905C92.8512 45.4515 92.7704 45.4112 93.0128 45.21C93.2553 45.0087 93.5381 44.7269 93.8613 44.4048C94.1846 44.0828 94.5482 43.6399 94.9927 43.0361C95.4371 42.4725 95.6796 42.0296 95.8412 41.6673C95.1139 41.8283 94.5482 41.9088 94.1846 41.9491C93.8209 41.9491 93.5381 41.9491 93.2957 41.8686C93.0532 41.7881 93.0532 41.7076 93.2148 41.6673C93.4169 41.627 93.6593 41.5868 93.9421 41.5063C94.225 41.466 94.9523 41.305 96.0836 41.0634C96.0836 40.2583 96.0836 39.6947 96.0432 39.2921C96.0432 38.8895 95.922 38.5675 95.7604 38.2857C95.5988 38.0039 95.6796 37.9234 96.0432 38.0039C96.3665 38.0844 96.6493 38.2052 96.8513 38.3259C97.0534 38.487 97.0938 38.6077 96.9321 38.7688C96.7705 38.9298 96.6897 39.2116 96.6897 39.6142C96.6897 40.0167 96.6493 40.4596 96.6493 40.9024ZM89.9824 40.9024V39.6544C89.9824 39.6544 90.4269 39.6544 90.7501 39.5739C91.0734 39.4934 91.3158 39.4934 91.5178 39.4934C91.7198 39.4934 91.8411 39.5739 91.9219 39.6947C92.0027 39.8155 92.0027 40.0167 92.0027 40.2583V43.3581C91.7603 43.2776 91.3966 43.2776 90.9521 43.4386C90.5077 43.5997 90.144 43.6802 89.9016 43.6802V42.553C90.2248 42.553 90.5481 42.5127 90.9117 42.3919C91.2754 42.3114 91.437 42.1504 91.3562 42.0296C91.2754 41.8686 91.0734 41.8686 90.7905 41.9894C90.4673 42.1101 90.2248 42.1906 89.942 42.2309V41.2245C90.5077 41.2245 90.9117 41.1842 91.1542 41.0634C91.3966 40.9829 91.437 40.8622 91.3158 40.7816C91.1542 40.7011 90.9521 40.6609 90.6693 40.7816C90.3865 40.8622 90.144 40.9024 89.9824 40.9024ZM90.3461 44.5256C90.1036 44.4451 90.0228 44.5256 90.0228 44.6866C90.0228 44.8476 89.9824 45.0892 89.8208 45.371C89.6592 45.6528 89.4976 45.9346 89.2551 46.2164C89.0127 46.4982 88.8107 46.7397 88.6086 46.941C88.4066 47.1423 88.4066 47.2228 88.5278 47.2228C88.6894 47.2228 88.9319 47.0618 89.2955 46.78C89.6592 46.4982 89.9824 46.1761 90.3057 45.8138C90.5885 45.4515 90.8309 45.2502 90.9521 45.1697C91.0734 45.0892 91.0734 44.9684 90.9521 44.8476C90.8309 44.7269 90.6289 44.6061 90.3461 44.5256ZM91.5986 44.6061C91.8815 44.6866 92.1643 44.8476 92.3663 45.0489C92.6088 45.2502 92.73 45.4515 92.7704 45.6528C92.7704 45.8541 92.7704 46.0554 92.6896 46.2164C92.6088 46.3774 92.4876 46.4177 92.3663 46.3372C92.2451 46.2567 92.0835 46.0554 91.8815 45.7736C91.6794 45.4918 91.5178 45.21 91.3562 44.8879C91.1946 44.5658 91.2754 44.4451 91.5582 44.5658L91.5986 44.6061ZM100.649 46.8203C100.488 47.6254 100.286 47.8267 100.084 47.4241C99.8413 46.9813 99.8413 46.5787 99.9626 46.1761C100.124 45.7736 100.205 45.0489 100.286 43.962C100.367 42.875 100.367 41.7881 100.367 40.7414C100.367 39.6947 100.286 39.0506 100.165 38.809C100.043 38.5675 100.084 38.487 100.326 38.5675C100.569 38.648 100.811 38.7285 101.054 38.7688C101.296 38.809 102.185 38.7688 103.68 38.5675C105.175 38.3662 106.064 38.2454 106.306 38.1246C106.549 38.0039 106.831 38.0039 107.074 38.1246C107.357 38.2052 107.599 38.3662 107.801 38.5675C108.044 38.7688 108.044 38.9298 107.882 39.0908C107.72 39.2519 107.64 39.6947 107.64 40.4193C107.64 41.144 107.64 41.9491 107.72 42.7543C107.761 43.5997 107.842 44.4048 107.882 45.2502C107.963 46.0554 107.922 46.7397 107.882 47.1826C107.801 47.6657 107.68 47.9877 107.478 48.2293C107.276 48.4708 107.114 48.3903 106.993 47.9877L106.71 47.1423C106.71 47.1423 106.468 46.8203 106.185 46.78C105.902 46.7397 105.336 46.7397 104.488 46.78L100.649 46.941V46.8203ZM100.649 46.4177C103.195 46.2969 104.771 46.1761 105.417 46.0956C106.064 46.0151 106.468 46.0956 106.67 46.2567C106.872 46.4579 106.993 46.4177 107.034 46.1761C107.114 45.9346 107.114 45.2502 107.114 44.1633C107.114 43.0763 107.074 41.9894 106.993 40.9427C106.912 39.896 106.872 39.2116 106.831 38.9701C106.791 38.7285 106.468 38.6077 105.862 38.6882C105.256 38.7688 104.367 38.8493 103.195 38.9298C102.023 39.0506 101.256 39.0908 100.973 39.0908C100.892 41.7881 100.811 44.2035 100.69 46.4177H100.649ZM104.892 41.1037C104.892 40.5401 104.973 40.1778 105.054 40.057C105.134 39.9362 105.054 39.8155 104.852 39.6947C104.609 39.5739 104.407 39.4934 104.124 39.4531C103.882 39.4129 103.841 39.5337 104.003 39.8155C104.165 40.0973 104.286 40.5803 104.286 41.2245C103.639 41.305 103.114 41.3855 102.67 41.4258C102.225 41.466 101.862 41.5063 101.538 41.466C101.256 41.466 101.215 41.5465 101.458 41.7478C101.7 41.9491 101.942 41.9894 102.185 41.9491C102.427 41.9088 103.155 41.7881 104.286 41.627C104.286 43.0361 104.286 43.8815 104.205 44.1633C104.124 44.4451 104.003 44.6061 103.841 44.6061C103.68 44.6061 103.437 44.5658 103.114 44.4853C102.791 44.4048 102.831 44.4853 103.235 44.8074C103.639 45.0892 103.882 45.371 103.922 45.7333C104.003 46.0956 104.205 46.0554 104.528 45.6528C104.892 45.2502 105.013 44.7269 104.973 44.123C104.932 43.5191 104.892 42.6737 104.892 41.627C105.417 41.5465 105.943 41.5465 106.387 41.5465C106.831 41.5465 106.953 41.466 106.71 41.2245C106.468 40.9829 106.266 40.9024 106.023 40.9829C105.781 41.0634 105.417 41.1037 104.892 41.1842V41.1037ZM102.346 42.714C102.549 43.0763 102.791 43.3581 102.953 43.5594C103.155 43.7607 103.276 43.7607 103.397 43.5997C103.478 43.4386 103.518 43.2373 103.397 42.9958C103.316 42.7543 103.074 42.553 102.67 42.4322C102.266 42.2712 102.144 42.4322 102.346 42.7543V42.714ZM115.882 40.6206C116.327 40.5401 116.69 40.4193 116.973 40.3791C117.256 40.2985 117.499 40.3791 117.701 40.4998C117.903 40.6609 117.822 40.8219 117.377 40.9427C116.973 41.1037 116.448 41.1842 115.842 41.305V42.9555C117.094 42.7543 117.943 42.6335 118.347 42.5932C118.751 42.5127 119.074 42.553 119.357 42.5932C119.64 42.6737 119.802 42.7945 119.923 42.9958C120.044 43.1971 119.923 43.2776 119.478 43.2373C119.074 43.2373 118.549 43.2373 117.903 43.2776C117.256 43.3179 116.327 43.3984 115.155 43.5594C115.519 43.9217 115.599 44.123 115.478 44.2035C115.357 44.284 115.155 44.4853 114.913 44.7671C114.67 45.0489 114.468 45.2502 114.347 45.4515C114.185 45.6528 114.226 45.7333 114.428 45.6931C114.63 45.6931 115.519 45.5723 117.014 45.4113C116.812 45.0489 116.65 44.7671 116.529 44.5256C116.367 44.284 116.408 44.2035 116.65 44.284C116.852 44.3646 117.135 44.5256 117.418 44.7671C117.701 45.0087 117.943 45.3307 118.185 45.6528C118.428 46.0151 118.468 46.3372 118.387 46.7397C118.307 47.1021 118.145 47.1826 117.943 46.9813C117.741 46.78 117.499 46.3774 117.175 45.7736C115.559 46.0554 114.508 46.2969 113.983 46.4579C113.458 46.619 113.094 46.8203 112.852 46.9813C112.609 47.1423 112.488 47.0618 112.488 46.6592C112.488 46.2567 112.609 46.0151 112.852 45.9346C113.094 45.8541 113.296 45.7736 113.458 45.6125C113.62 45.4918 113.862 45.2502 114.185 44.8879C114.468 44.5256 114.67 44.123 114.751 43.6399C114.064 43.7607 113.579 43.8815 113.256 43.962C112.973 44.0425 112.69 43.962 112.407 43.7607C112.125 43.5594 112.165 43.4386 112.569 43.4386C112.973 43.4386 113.862 43.2776 115.195 42.9958V41.4258C114.67 41.5063 114.266 41.4258 113.983 41.3452C113.7 41.2245 113.7 41.1037 113.983 41.0634C114.306 40.9829 114.711 40.9024 115.155 40.7816C115.155 40.218 115.155 39.6947 115.155 39.2116C115.155 38.7285 115.074 38.3259 114.913 38.0844C114.751 37.8026 114.832 37.7221 115.115 37.7623C115.397 37.8026 115.68 37.9234 115.923 38.0844C116.165 38.2454 116.246 38.4467 116.084 38.6882C115.923 38.9298 115.842 39.5739 115.842 40.6609L115.882 40.6206ZM111.68 44.0022C112.286 42.7543 112.327 42.4725 111.842 43.2373C111.316 43.962 110.953 44.4853 110.71 44.7671C110.468 45.0489 110.266 45.21 110.064 45.2905C109.862 45.371 109.821 45.532 109.943 45.8541C110.064 46.1359 110.226 46.4177 110.428 46.6995C110.63 46.941 110.791 46.8203 110.872 46.3372C110.953 45.8138 111.195 45.0892 111.64 44.0425L111.68 44.0022ZM111.963 40.057C112.367 40.4596 112.609 40.4998 112.65 40.1375C112.69 39.7752 112.609 39.4934 112.327 39.2921C112.084 39.0908 111.801 38.97 111.559 38.9298C111.276 38.9298 111.195 39.0506 111.316 39.2921C111.438 39.5337 111.64 39.8155 111.963 40.057ZM110.387 42.0699C110.185 41.8283 110.023 41.5868 109.943 41.3855C109.862 41.1842 110.024 41.144 110.428 41.2245C110.832 41.305 111.074 41.466 111.195 41.7076C111.316 41.9088 111.316 42.1504 111.195 42.3517C111.074 42.553 110.791 42.4725 110.347 42.0699H110.387ZM124.287 41.5868C124.489 41.144 124.65 40.7414 124.852 40.3388C125.014 39.9362 125.176 39.6544 125.337 39.4934C125.499 39.3324 125.499 39.1713 125.297 39.0103C125.095 38.8493 124.852 38.6882 124.489 38.5272C124.125 38.3662 124.004 38.4467 124.125 38.809C124.246 39.1713 124.206 39.6142 124.004 40.1778C123.802 40.7414 123.479 41.4258 123.034 42.3114C122.59 43.1971 122.064 43.962 121.499 44.6464C120.933 45.3307 120.367 45.8943 119.802 46.3372C119.236 46.78 119.196 46.9008 119.721 46.6995C120.246 46.4982 120.731 46.2164 121.175 45.8541C121.62 45.4918 122.105 44.9684 122.59 44.3243C123.074 43.6802 123.6 42.875 124.165 41.8686C124.691 42.6737 125.297 43.4789 125.984 44.3646C126.63 45.2502 127.115 45.8541 127.357 46.1761C127.6 46.4982 127.964 46.6995 128.408 46.7397C128.852 46.78 129.418 46.7398 130.105 46.6995C130.751 46.619 130.792 46.4579 130.145 46.2567C129.499 46.0554 128.933 45.8138 128.408 45.4918C127.883 45.21 127.196 44.6464 126.388 43.8412C125.58 43.0361 124.893 42.3114 124.327 41.627L124.287 41.5868ZM153.015 39.9765C153.823 39.8155 154.389 39.6947 154.752 39.5337C155.116 39.4129 155.48 39.4531 155.803 39.6947C156.126 39.9362 156.045 40.057 155.52 40.1375C154.995 40.218 154.146 40.3388 153.015 40.5401V41.3452C153.54 41.9894 154.106 42.553 154.591 43.0361C155.116 43.5594 155.682 43.962 156.288 44.3243C156.894 44.6866 157.419 44.9282 157.904 45.0892C158.389 45.2502 158.51 45.3307 158.348 45.371C158.146 45.4113 157.823 45.4515 157.298 45.532C156.773 45.5723 156.409 45.532 156.166 45.532C155.924 45.532 155.682 45.3307 155.48 45.0489C155.278 44.8074 154.995 44.4048 154.631 43.9217C154.267 43.4386 153.742 42.714 153.055 41.8283V45.0087C153.621 44.9282 153.985 44.8476 154.187 44.7671C154.348 44.6866 154.591 44.7671 154.874 45.0087C155.156 45.2502 155.035 45.4113 154.51 45.4515C153.985 45.4515 153.5 45.532 153.015 45.6125C153.015 46.4579 153.015 47.1826 152.934 47.7864C152.853 48.3903 152.732 48.4708 152.49 48.1085C152.247 47.7462 152.166 47.4241 152.288 47.1423C152.368 46.9008 152.449 46.4177 152.49 45.7333C152.005 45.8138 151.641 45.8541 151.358 45.9346C151.075 46.0151 150.833 45.9346 150.55 45.7333C150.267 45.532 150.308 45.4113 150.631 45.4113C150.954 45.4113 151.56 45.3307 152.49 45.1697C152.49 44.0425 152.53 42.9153 152.53 41.7881C152.166 42.553 151.762 43.2373 151.358 43.8412C150.954 44.4451 150.51 45.0087 149.984 45.532C149.5 46.0554 149.015 46.4177 148.489 46.6592C148.005 46.9008 148.045 46.7397 148.651 46.2164C149.257 45.6931 149.863 44.9684 150.51 44.0425C151.156 43.1166 151.722 42.0296 152.166 40.8219C151.399 41.0232 150.914 41.1842 150.671 41.1842C150.469 41.1842 150.146 41.144 149.782 40.9024C149.419 40.7011 149.5 40.5803 149.984 40.5401C150.469 40.5401 151.318 40.3791 152.49 40.0973C152.49 38.9298 152.368 38.1649 152.086 37.8831C151.803 37.561 152.086 37.5208 152.853 37.7221C153.217 37.8428 153.379 38.0039 153.257 38.2052C153.136 38.4064 153.096 39.0103 153.096 39.9765H153.015ZM166.793 46.5787C166.147 46.4982 165.379 46.5385 164.571 46.5787C163.763 46.6592 162.995 46.7397 162.389 46.78C161.742 46.8203 161.217 46.8203 160.813 46.78C160.571 47.5852 160.369 47.7462 160.167 47.2228C159.965 46.6995 159.924 46.2567 160.086 45.8541C160.247 45.4515 160.328 44.3243 160.328 42.4725C160.328 40.6206 160.247 39.5337 160.045 39.2116C159.843 38.8895 159.803 38.7285 160.045 38.7688C160.247 38.7688 160.49 38.809 160.732 38.8895C160.975 38.97 161.581 38.8895 162.51 38.809C163.439 38.6882 164.207 38.5675 164.894 38.487C165.541 38.3662 166.025 38.2857 166.308 38.1649C166.591 38.0844 166.874 38.0844 167.157 38.1649C167.44 38.2454 167.682 38.4064 167.924 38.6077C168.126 38.809 168.167 39.0506 167.965 39.2921C167.763 39.5337 167.722 40.7011 167.803 42.714C167.884 44.7671 167.924 46.0151 167.965 46.4579C167.965 46.9008 167.924 47.3436 167.722 47.7864C167.52 48.2293 167.359 48.2695 167.238 47.867C167.076 47.5046 166.995 47.0618 166.874 46.5385L166.793 46.5787ZM160.813 46.4177C162.268 46.3372 163.52 46.2164 164.611 46.0956C165.662 45.9749 166.47 46.0151 166.955 46.1761C167.076 45.8138 167.116 44.6061 167.036 42.5127C166.955 40.4193 166.874 39.2921 166.753 39.0908C166.631 38.8895 166.349 38.809 165.985 38.8493C165.581 38.8493 163.924 39.0506 160.975 39.3726C160.975 41.627 160.934 43.962 160.813 46.4579V46.4177ZM163.924 40.7414C164.732 40.5803 165.258 40.4596 165.5 40.2985C165.743 40.1778 165.783 40.057 165.581 39.9362C165.379 39.8155 165.136 39.7752 164.854 39.8557C164.571 39.9362 164.126 40.057 163.561 40.1778C162.955 40.3388 162.551 40.4193 162.268 40.4596C161.985 40.4998 161.944 40.5803 162.187 40.7011C162.429 40.8219 162.833 40.8622 163.359 40.8219C163.439 41.144 163.52 41.5465 163.52 41.9894C163.116 42.0699 162.753 42.1504 162.47 42.2309C162.187 42.3114 162.146 42.3919 162.308 42.4725C162.51 42.5932 162.914 42.6335 163.48 42.5932V44.284C162.631 44.4451 161.985 44.5256 161.621 44.5256C161.258 44.5256 161.217 44.6464 161.46 44.8476C161.702 45.0489 161.985 45.1294 162.349 45.0489C162.712 44.9684 163.035 44.9282 163.399 44.8476C163.763 44.7671 164.207 44.6866 164.773 44.6464C165.298 44.5658 165.783 44.5658 166.227 44.5658C166.672 44.5658 166.753 44.4853 166.551 44.2438C166.349 44.0022 166.025 43.9217 165.621 44.0022C165.217 44.0828 164.652 44.1633 164.005 44.2438V42.4725C164.45 42.3919 164.854 42.3114 165.177 42.2309C165.541 42.1504 165.621 42.0296 165.419 41.8686C165.258 41.7076 165.056 41.6673 164.854 41.7076C164.652 41.7478 164.369 41.8283 164.005 41.8686C164.005 41.5063 164.086 41.2647 164.126 41.144C164.167 40.9829 164.126 40.8622 163.884 40.7011L163.924 40.7414ZM165.581 43.6802C165.864 43.8815 166.025 43.8412 166.066 43.5997C166.106 43.3581 166.066 43.1568 165.864 42.9958C165.662 42.8348 165.419 42.714 165.136 42.6737C164.854 42.6335 164.773 42.714 164.934 42.9958C165.096 43.2373 165.298 43.4789 165.541 43.6399L165.581 43.6802Z" fill="#003642"/>
<path fill-rule="evenodd" clip-rule="evenodd" d="M174.067 39.1308C174.39 39.1308 174.632 39.1308 174.834 39.0101C175.036 38.9296 175.238 38.9698 175.44 39.0906C175.642 39.2114 175.804 39.3724 175.925 39.5334C176.046 39.6944 176.289 39.9762 176.693 40.3788C176.895 40.097 177.057 39.775 177.178 39.4529C177.339 39.1308 177.38 38.8893 177.339 38.8088C177.339 38.7283 177.178 38.688 176.895 38.7283C176.652 38.7283 176.45 38.7283 176.289 38.5672C176.127 38.4465 176.127 38.3659 176.329 38.3659C176.531 38.3659 176.733 38.366 176.976 38.2854C177.218 38.2049 177.38 38.1647 177.461 38.1244C177.541 38.0841 177.663 38.1244 177.865 38.1244C178.067 38.2049 178.228 38.3257 178.43 38.4867C178.632 38.6478 178.592 38.8088 178.349 38.9296C178.107 39.0503 177.622 39.5737 176.854 40.5801C177.097 40.8217 177.38 41.1035 177.703 41.3853C178.026 41.6671 178.309 41.9086 178.592 42.1099C178.875 42.3112 179.158 42.4722 179.481 42.6332C179.804 42.7943 180.087 42.8748 180.329 42.9553C180.572 43.0358 180.451 43.1163 179.966 43.1566C179.521 43.1969 179.117 43.2371 178.834 43.1968C178.552 43.1968 178.269 43.0358 178.067 42.7943C177.865 42.5527 177.582 42.2307 177.299 41.8281C177.016 41.4658 176.693 41.0632 176.329 40.6204C175.966 40.1775 175.723 39.8555 175.521 39.6542C174.794 40.9022 174.188 41.8684 173.703 42.5125C173.218 43.1566 172.774 43.5994 172.41 43.8812C172.046 44.163 171.683 44.3643 171.359 44.5254C171.036 44.6864 171.117 44.5253 171.602 44.0825C172.087 43.6397 172.491 43.1969 172.895 42.754C173.258 42.3112 173.622 41.7476 173.986 41.184C173.622 40.8217 173.42 40.5399 173.299 40.2983C173.097 40.5801 172.814 40.8217 172.572 40.9827C172.289 41.1437 172.329 41.0632 172.612 40.6606C172.935 40.2581 173.218 39.775 173.501 39.1711C173.784 38.5672 173.905 38.2049 173.864 38.0036C173.864 37.8023 173.905 37.7621 174.147 37.8426C174.349 37.9231 174.511 38.0036 174.632 38.1244C174.753 38.2452 174.753 38.3257 174.632 38.4465C174.511 38.527 174.309 38.7685 174.026 39.1711L174.067 39.1308ZM170.672 39.1711C170.915 39.1711 171.117 39.0906 171.279 39.0906C171.44 39.0906 171.481 39.1308 171.44 39.3321C171.4 39.5334 171.4 39.775 171.44 40.0165C171.44 40.2581 171.521 40.5801 171.602 40.9022C171.683 41.2242 171.642 41.3853 171.521 41.345C171.359 41.345 171.198 41.3047 171.036 41.2645C170.834 41.2645 170.874 41.3047 171.036 41.4658C171.238 41.6268 171.44 41.7878 171.642 42.0696C171.844 42.3112 172.006 42.3917 172.087 42.3112C172.167 42.2307 172.208 42.0696 172.248 41.8684C172.248 41.6671 172.208 41.3047 172.046 40.7411C171.885 40.2178 171.885 39.775 172.046 39.4932C172.208 39.2114 172.41 39.0101 172.652 38.8893C172.935 38.7685 172.976 38.6478 172.774 38.527C172.572 38.4062 172.41 38.3257 172.208 38.2854C172.006 38.2049 171.844 38.2854 171.683 38.4867C171.521 38.688 171.319 38.8088 171.036 38.849C170.753 38.8893 170.511 38.849 170.268 38.849C170.026 38.849 169.945 38.849 170.066 39.0503C170.188 39.2516 170.268 39.5334 170.268 39.936C170.268 40.2983 170.268 41.0229 170.268 41.9891C170.268 42.9553 170.188 43.8007 170.107 44.4046C170.026 45.0084 169.945 45.4915 169.905 45.7733C169.824 46.0551 169.905 46.3772 170.066 46.7395C170.228 47.1018 170.349 47.2226 170.43 47.1018C170.511 46.9811 170.592 46.7395 170.632 46.3772C170.632 46.0149 170.672 45.089 170.713 43.5592C170.713 42.0696 170.713 40.6204 170.713 39.2114L170.672 39.1711ZM175.683 44.2435C175.966 44.163 176.329 44.0825 176.774 44.002C177.218 43.9215 177.461 43.8007 177.501 43.7202C177.501 43.6397 177.501 43.5189 177.299 43.4787C177.137 43.3981 176.935 43.3579 176.693 43.3981C176.45 43.3981 176.127 43.5189 175.723 43.6397C175.359 43.7605 174.915 43.8812 174.471 43.9617C174.026 44.0423 173.662 44.1228 173.42 44.163C173.178 44.2033 173.178 44.2838 173.42 44.3643C173.662 44.4448 174.188 44.4448 174.996 44.3643C175.077 44.6864 175.077 45.089 175.077 45.6123C175.077 46.1356 174.996 46.4577 174.915 46.5382C174.834 46.6187 174.592 46.6187 174.188 46.5382C173.784 46.4577 173.743 46.5382 174.107 46.7395C174.43 46.9811 174.673 47.2629 174.834 47.5849C174.996 47.907 175.157 47.9875 175.319 47.8265C175.481 47.6654 175.602 47.4641 175.683 47.2226C175.764 46.9811 175.804 46.5785 175.764 45.9746C175.764 45.3708 175.764 45.0084 175.764 44.8474C175.804 44.6864 175.764 44.4448 175.683 44.163V44.2435ZM177.137 45.0487C177.38 45.1292 177.663 45.25 177.905 45.411C178.188 45.572 178.349 45.8538 178.39 46.2564C178.43 46.6187 178.39 46.7798 178.147 46.659C177.945 46.5382 177.541 46.2162 176.976 45.6928C176.41 45.1695 176.248 44.9279 176.45 44.9279C176.652 44.9279 176.895 44.9682 177.097 45.089L177.137 45.0487ZM176.006 41.9489C176.006 41.9489 175.4 42.0294 174.794 42.1904C174.188 42.3514 173.986 42.5125 174.269 42.593C174.551 42.6735 174.875 42.7138 175.238 42.593C175.602 42.5125 175.885 42.432 176.087 42.3514C176.289 42.2709 176.37 42.1904 176.329 42.0696C176.329 41.9489 176.208 41.9086 175.966 41.9086L176.006 41.9489ZM173.339 45.1695C173.42 45.411 173.42 45.6526 173.339 45.8136C173.258 45.9746 173.178 46.1759 173.056 46.3772C172.935 46.5785 172.814 46.6993 172.693 46.7395C172.572 46.7798 172.491 46.7395 172.45 46.5382C172.45 46.3369 172.45 46.1356 172.652 45.8941C172.814 45.6526 172.935 45.411 173.097 45.1695C173.218 44.9279 173.299 44.9682 173.38 45.2097L173.339 45.1695ZM173.46 40.097C173.46 40.097 173.905 40.2983 174.309 40.6204C174.471 40.3386 174.592 40.0568 174.673 39.8152C174.753 39.5737 174.713 39.4529 174.551 39.4529C174.39 39.4529 174.188 39.4529 173.945 39.3724C173.824 39.5737 173.662 39.8152 173.46 40.097ZM172.774 41.1035C172.572 40.9827 172.491 41.1035 172.612 41.4658C172.733 41.8281 172.854 42.0696 172.935 42.1502C173.016 42.2307 173.137 42.2307 173.218 42.1099C173.299 41.9891 173.299 41.8281 173.218 41.6268C173.137 41.4255 172.976 41.2645 172.733 41.1437L172.774 41.1035ZM185.299 43.9617C184.491 44.0423 183.845 44.1228 183.441 44.1228L183.158 44.7266C182.794 45.3708 182.43 45.8941 182.067 46.2162C181.703 46.5382 181.38 46.7798 181.016 46.9408C180.653 47.1018 180.653 47.0213 181.016 46.6993C181.38 46.4175 181.703 46.0954 181.946 45.7331C182.188 45.3708 182.43 45.0487 182.592 44.6864C182.754 44.3241 182.915 44.002 182.996 43.5994C183.077 43.2371 183.158 42.8345 183.198 42.3917C183.239 41.9489 183.198 41.6268 183.158 41.4658C183.077 41.3047 183.117 41.2242 183.239 41.2242C183.4 41.2242 183.521 41.2242 183.602 41.2645C183.723 41.2645 183.966 41.2645 184.37 41.184C184.774 41.1035 185.057 41.0229 185.299 40.9424C185.501 40.8619 185.703 40.8217 185.865 40.9424C186.027 41.0229 186.188 41.1437 186.431 41.2645C186.633 41.4255 186.673 41.506 186.552 41.6268C186.431 41.7073 186.309 41.9086 186.229 42.2307C186.148 42.5125 186.027 42.8345 185.986 43.1968C185.905 43.5189 185.784 43.8007 185.622 44.0423C185.461 44.2838 185.34 44.2435 185.299 44.002V43.9617ZM189.38 37.6413C189.623 37.6413 189.905 37.8023 190.229 37.9634C190.552 38.1647 190.633 38.3659 190.512 38.6075C190.39 38.849 190.309 39.2516 190.229 39.8555C190.188 40.4191 190.148 41.184 190.148 42.1904C190.148 43.1968 190.148 44.002 190.229 44.6864C190.269 45.3708 190.309 45.8941 190.35 46.3369C190.35 46.7395 190.35 47.1018 190.188 47.4641C190.027 47.7862 189.905 48.0278 189.744 48.1485C189.582 48.2693 189.501 48.2693 189.38 48.068C189.299 47.907 189.178 47.7057 189.017 47.5044C188.855 47.3031 188.653 47.1018 188.37 46.82C188.087 46.5382 188.128 46.498 188.572 46.6187C189.017 46.7798 189.299 46.7798 189.421 46.6993C189.542 46.6187 189.623 45.8538 189.623 44.4046C189.623 42.9553 189.623 41.6671 189.623 40.4593C189.623 39.2516 189.501 38.4465 189.299 38.0841C189.097 37.7218 189.138 37.5608 189.34 37.6413H189.38ZM185.905 46.3369C186.107 45.9344 186.269 45.6526 186.431 45.4915C186.592 45.3305 186.592 45.2097 186.431 45.1292C186.269 45.0084 186.107 44.9279 185.946 44.8072C185.784 44.7266 185.582 44.6864 185.38 44.8072C185.178 44.8877 185.057 44.9279 184.936 44.9682C184.855 44.9682 184.612 45.0487 184.289 45.089C183.925 45.1292 183.723 45.1695 183.643 45.1292C183.562 45.089 183.441 45.089 183.279 45.0487C183.117 45.0487 183.077 45.0487 183.117 45.25C183.198 45.411 183.239 45.6123 183.279 45.8538C183.279 46.0954 183.36 46.3369 183.36 46.6993C183.36 47.0213 183.441 47.2629 183.521 47.3434C183.602 47.4239 183.683 47.3434 183.764 46.9811C184.249 46.9005 184.653 46.8603 184.936 46.8603C185.259 46.8603 185.542 46.8603 185.824 46.82C186.107 46.82 186.107 46.659 185.824 46.3772L185.905 46.3369ZM184.653 38.3257C184.653 38.3257 184.855 38.0439 184.653 37.9231C184.451 37.8023 184.289 37.7218 184.087 37.7218C183.925 37.7218 183.845 37.7621 183.885 37.9634C183.885 38.1647 183.885 38.4062 183.764 38.7283C183.643 39.0503 183.441 39.4932 183.117 40.0165C182.794 40.5399 182.39 41.0632 181.905 41.5865C181.42 42.1099 181.016 42.5125 180.693 42.7943C180.37 43.0761 180.41 43.1163 180.895 42.915C181.339 42.7138 181.784 42.3514 182.228 41.9489C182.673 41.506 182.996 41.1437 183.239 40.8217C183.481 40.4996 183.723 40.2178 183.925 39.936C184.249 40.2983 184.491 40.4996 184.653 40.5801C184.814 40.6606 184.936 40.6606 185.016 40.5399C185.097 40.4191 185.097 40.2581 185.016 40.097C184.936 39.936 184.814 39.8152 184.653 39.775C184.491 39.775 184.289 39.6944 184.087 39.6944C184.249 39.4126 184.451 39.0101 184.653 38.5672C185.016 38.8088 185.34 39.0503 185.622 39.2516C185.946 39.4529 186.148 39.5737 186.309 39.6139C186.471 39.6542 186.552 39.6139 186.592 39.5334C186.633 39.4126 186.592 39.2919 186.552 39.0906C186.471 38.9296 186.35 38.7685 186.148 38.688C185.946 38.6075 185.784 38.527 185.663 38.4867C185.501 38.4465 185.218 38.366 184.774 38.3257H184.653ZM183.845 41.6268C183.845 41.9489 183.764 42.2307 183.764 42.4722C184.127 42.4722 184.37 42.3917 184.491 42.3514C184.612 42.3112 184.774 42.2709 184.895 42.3112C185.057 42.3112 185.138 42.3917 185.178 42.5125C185.218 42.6332 185.057 42.7138 184.734 42.754C184.37 42.8345 184.047 42.8345 183.723 42.754C183.643 43.0761 183.562 43.3981 183.481 43.7605C184.127 43.6799 184.774 43.5994 185.34 43.5592C185.461 43.1163 185.542 42.6735 185.582 42.2307C185.622 41.7878 185.582 41.5463 185.42 41.506C185.259 41.4658 185.138 41.4255 184.976 41.4658C184.814 41.4658 184.451 41.5463 183.804 41.6268H183.845ZM187.481 40.1775C187.279 40.1775 187.239 40.2581 187.4 40.5399C187.562 40.8217 187.643 41.3047 187.643 41.9891C187.643 42.6735 187.643 43.1566 187.562 43.3579C187.481 43.5592 187.562 43.8812 187.683 44.2435C187.845 44.6059 187.966 44.6864 188.047 44.4448C188.168 44.2033 188.208 43.6397 188.208 42.7138C188.208 41.7878 188.249 41.184 188.37 40.9022C188.451 40.6606 188.41 40.4593 188.208 40.3386C188.006 40.2178 187.764 40.1373 187.522 40.1373L187.481 40.1775ZM183.764 45.411C183.764 45.9746 183.804 46.3772 183.804 46.5785C184.329 46.498 184.855 46.4577 185.42 46.3772C185.501 45.8538 185.542 45.5318 185.501 45.411C185.501 45.2902 185.34 45.25 185.178 45.25C185.016 45.25 184.532 45.2902 183.764 45.411ZM197.461 40.0165C198.31 39.8957 198.956 39.775 199.36 39.6944C199.764 39.6139 200.168 39.5737 200.532 39.5334C200.896 39.5334 201.219 39.5737 201.421 39.775C201.623 39.9763 201.704 40.097 201.663 40.1775C201.623 40.2581 201.381 40.2581 201.017 40.2178C200.613 40.1775 199.562 40.2178 197.906 40.3386C198.269 40.5399 198.391 40.6606 198.269 40.7814C198.108 40.8619 197.825 41.1437 197.38 41.6268C198.108 41.4255 198.552 41.3853 198.673 41.4658C198.835 41.5463 198.835 41.6268 198.754 41.7073C198.673 41.7878 198.431 41.8684 198.027 41.9489C197.623 42.0294 197.219 42.1502 196.774 42.2709C196.976 42.3917 197.057 42.5125 197.017 42.593C197.017 42.6735 196.976 42.754 196.976 42.8345C197.582 42.6735 197.987 42.593 198.229 42.5527C198.471 42.5527 198.673 42.5527 198.835 42.7138C198.997 42.8345 198.916 42.9553 198.552 42.9956C198.189 43.0761 197.663 43.1566 196.976 43.3176V43.9215C197.784 43.7605 198.35 43.6397 198.754 43.5189C199.118 43.3981 199.482 43.3981 199.764 43.5189C200.047 43.5994 200.209 43.7202 200.249 43.841C200.29 43.9617 200.168 44.002 199.805 44.0423C199.482 44.0423 199.158 44.0423 198.835 44.1228C198.512 44.1228 197.906 44.2435 197.017 44.3643C197.906 45.1292 198.593 45.6526 199.037 45.8941C199.482 46.1759 199.926 46.3772 200.37 46.498C200.815 46.659 201.259 46.7395 201.704 46.8603C202.148 46.9408 202.108 47.0213 201.623 47.1018C201.138 47.1823 200.694 47.2226 200.29 47.2629C199.886 47.3031 199.562 47.2629 199.36 47.0616C199.118 46.9005 198.714 46.498 198.148 45.9344C197.542 45.3305 197.178 44.9279 196.976 44.7266C196.976 46.1759 196.976 47.1018 196.936 47.4641C196.936 47.8265 196.855 48.1083 196.774 48.229C196.694 48.3901 196.572 48.3096 196.451 48.0278C196.289 47.746 196.289 47.4239 196.37 47.0616C196.451 46.6993 196.492 45.9344 196.492 44.6864C196.249 45.0487 195.966 45.3708 195.643 45.7331C195.32 46.0954 194.956 46.4577 194.471 46.82C194.027 47.1823 193.582 47.4641 193.138 47.6252C192.693 47.7862 192.734 47.7057 193.178 47.3836C193.623 47.0616 194.148 46.5785 194.673 46.0551C195.199 45.5318 195.603 45.0084 195.845 44.5656C195.32 44.7266 194.835 44.8474 194.471 44.9279C194.108 45.0084 193.825 45.0487 193.623 44.9682C193.421 44.8877 193.259 44.8071 193.178 44.7266C193.097 44.6059 193.178 44.5656 193.38 44.5254C193.582 44.5254 193.946 44.4851 194.35 44.4046C194.794 44.3241 195.481 44.2033 196.411 44.0423V43.4384C195.724 43.5994 195.279 43.6799 195.077 43.6799C194.875 43.6799 194.714 43.6799 194.512 43.5189C194.31 43.3981 194.35 43.3176 194.552 43.3176C194.754 43.3176 194.997 43.2371 195.199 43.1968C195.401 43.1566 195.805 43.0761 196.37 42.9553C196.37 42.754 196.289 42.593 196.209 42.3917C195.805 42.4722 195.481 42.5125 195.239 42.5527C195.037 42.5527 194.794 42.5527 194.552 42.4722C194.31 42.3917 194.35 42.3112 194.633 42.2307C194.916 42.1502 195.683 41.9891 196.855 41.7476C197.219 41.1437 197.38 40.7009 197.421 40.4191C196.289 40.6204 195.522 40.7411 195.077 40.7814C195.441 41.0229 195.643 41.184 195.683 41.3853C195.764 41.5463 195.724 41.7073 195.683 41.8281C195.603 41.9489 195.522 41.9489 195.441 41.8281C195.36 41.7073 195.239 41.5865 195.118 41.3853C194.997 41.184 194.875 41.0229 194.835 40.8619C193.663 41.1035 192.976 41.2645 192.774 41.3047C192.572 41.345 192.37 41.3853 192.209 41.345C192.047 41.345 191.885 41.2242 191.724 41.1035C191.562 40.9424 191.602 40.8619 191.926 40.8217C192.209 40.8217 192.532 40.7814 192.855 40.7411C193.178 40.7009 194.027 40.5399 195.481 40.2983C195.401 39.5737 195.36 39.0906 195.279 38.8893C195.199 38.688 195.077 38.4867 194.916 38.2854C194.754 38.0841 194.875 38.0036 195.279 38.0841C195.724 38.1647 195.885 38.3257 195.885 38.527C195.885 38.7283 195.885 39.3321 195.926 40.2178L196.896 40.0165V38.7283C196.896 38.2049 196.896 37.8829 196.815 37.8023C196.774 37.7218 196.734 37.6011 196.694 37.4803C196.694 37.3595 196.774 37.3193 197.017 37.44C197.259 37.5205 197.461 37.6413 197.582 37.7621C197.704 37.8829 197.744 38.0036 197.663 38.1244C197.582 38.2452 197.502 38.4465 197.461 38.7283C197.421 39.0101 197.38 39.4126 197.34 39.9763L197.461 40.0165ZM199.158 37.9231C199.158 37.9231 198.956 37.9231 198.956 38.0841C198.956 38.2049 198.875 38.4062 198.633 38.7283C198.391 39.0101 198.189 39.2516 197.987 39.3724C197.784 39.5334 197.906 39.4932 198.31 39.3724C198.714 39.2114 198.997 39.0906 199.239 38.9698C199.482 38.849 199.643 38.7685 199.805 38.688C199.966 38.6075 199.926 38.4867 199.724 38.2854C199.522 38.0841 199.32 38.0036 199.158 37.9634V37.9231ZM193.623 39.0101C193.259 38.9296 193.219 39.0503 193.623 39.4126C193.986 39.775 194.229 39.9762 194.39 40.0165C194.552 40.0165 194.633 39.9763 194.633 39.775C194.633 39.5737 194.633 39.4126 194.471 39.2919C194.31 39.1711 194.067 39.0906 193.623 39.0101ZM208.411 39.1711C208.411 38.9296 208.411 38.688 208.371 38.3659C208.371 38.0439 208.249 37.7621 208.128 37.5608C208.007 37.3193 208.047 37.2387 208.33 37.3193C208.573 37.3595 208.815 37.44 209.058 37.5608C209.3 37.6816 209.34 37.8023 209.26 37.9231C209.179 38.0841 209.138 38.4465 209.098 39.0906C209.34 39.0101 209.583 38.9698 209.825 38.9296C210.068 38.9296 210.27 38.9296 210.431 39.1308C210.593 39.2919 210.553 39.3724 210.27 39.4529C210.027 39.4932 209.623 39.5737 209.017 39.6139C209.017 40.8619 208.936 41.9489 208.936 42.7943C209.34 42.7138 209.785 42.6735 210.189 42.6332C210.633 42.593 210.957 42.6332 211.199 42.8748C211.442 43.0761 211.361 43.1968 210.997 43.1968C210.633 43.1968 209.866 43.2371 208.654 43.3176C209.3 43.9617 209.947 44.5253 210.674 44.9682C211.401 45.411 212.048 45.6928 212.694 45.8538C213.341 46.0149 213.543 46.0954 213.341 46.1759C213.139 46.2564 212.815 46.2967 212.33 46.3369C211.886 46.3772 211.482 46.3369 211.159 46.3369C210.835 46.2564 210.553 46.1357 210.31 45.8538C210.068 45.6123 209.825 45.3305 209.583 45.0084L208.249 43.3579C207.684 43.4384 206.835 43.5189 205.744 43.6799C206.148 43.9215 206.27 44.1228 206.068 44.2838C205.866 44.4448 205.664 44.6864 205.421 45.0084C205.179 45.3305 204.775 45.6928 204.249 46.1356C203.724 46.5785 203.199 46.8603 202.714 47.0213C202.229 47.1823 202.229 47.1018 202.714 46.82C203.158 46.5382 203.724 46.0551 204.371 45.3708C205.017 44.6864 205.381 44.1228 205.381 43.7202C204.977 43.8007 204.653 43.841 204.371 43.9215C204.128 44.002 203.845 43.9215 203.603 43.7202C203.32 43.5189 203.36 43.3981 203.603 43.3981C203.926 43.3981 204.653 43.3176 205.744 43.1566C205.744 42.1502 205.744 41.1035 205.704 40.0568C205.502 40.0568 205.3 40.1373 205.138 40.1373C204.977 40.1373 204.775 40.097 204.532 39.8957C204.29 39.6944 204.33 39.6139 204.613 39.6139C204.896 39.6139 205.259 39.6139 205.704 39.5334C205.704 39.2516 205.623 39.0101 205.623 38.8893C205.623 38.7283 205.502 38.5672 205.421 38.4062C205.3 38.2452 205.34 38.1647 205.542 38.2049C205.744 38.2049 205.946 38.2854 206.148 38.3659C206.391 38.4465 206.472 38.5672 206.431 38.688C206.431 38.849 206.35 39.0906 206.35 39.5334C206.876 39.4529 207.563 39.3724 208.452 39.2516L208.411 39.1711ZM207.684 45.3305C207.684 44.8877 207.765 44.6059 207.845 44.4851C207.926 44.3643 207.845 44.2435 207.684 44.163C207.522 44.0825 207.28 44.002 207.037 43.9617C206.795 43.9215 206.714 44.002 206.876 44.2435C207.037 44.4851 207.078 44.8877 207.078 45.4513C206.431 45.5318 205.946 45.6123 205.664 45.6123C205.381 45.6123 205.34 45.7331 205.583 45.8941C205.825 46.0551 206.027 46.1356 206.189 46.0954C206.35 46.0954 206.674 46.0149 207.078 45.9344V47.2629C206.35 47.3434 205.744 47.3836 205.3 47.4239C204.855 47.4641 204.451 47.5044 204.128 47.5044C203.805 47.5044 203.805 47.6252 204.088 47.8265C204.371 48.0278 204.694 48.1083 204.977 48.0278C205.3 47.9472 205.785 47.907 206.512 47.8265C207.199 47.746 207.724 47.7057 208.088 47.6654C208.452 47.6252 208.977 47.5849 209.664 47.6252C210.351 47.6654 210.755 47.6252 210.916 47.5447C211.078 47.4641 210.997 47.3434 210.714 47.1421C210.431 46.9408 210.108 46.8603 209.744 46.9005C209.381 46.9408 209.098 46.9811 208.856 47.0213C208.613 47.0213 208.209 47.1018 207.684 47.1823C207.684 46.82 207.684 46.3772 207.724 45.8538C208.371 45.7733 208.775 45.6928 209.017 45.6526C209.26 45.6123 209.26 45.4915 209.098 45.3305C208.936 45.1695 208.694 45.1292 208.411 45.1695C208.128 45.25 207.926 45.2902 207.724 45.3305H207.684ZM208.411 39.6542C207.522 39.775 206.835 39.8957 206.31 39.9763V40.7009C206.552 40.6204 206.835 40.5801 207.118 40.4996C207.401 40.4191 207.643 40.4593 207.765 40.5801C207.926 40.7411 207.805 40.8217 207.441 40.9424C207.078 41.0229 206.674 41.0632 206.27 41.0229V41.8684C206.633 41.7878 206.916 41.7073 207.159 41.6268C207.401 41.5463 207.603 41.5463 207.765 41.7073C207.926 41.8684 207.805 41.9891 207.401 42.1099C206.957 42.2307 206.593 42.2307 206.27 42.1099V43.1163C206.633 43.0358 207.361 42.9553 208.371 42.8345V39.6542H208.411ZM218.432 42.3112C218.714 42.5125 218.836 42.6332 218.755 42.754C218.674 42.8748 218.634 43.1163 218.593 43.4787C219.119 43.3981 219.563 43.3176 219.927 43.2371C220.29 43.1566 220.573 43.2371 220.775 43.3981C221.018 43.5994 220.856 43.7202 220.371 43.7605C219.886 43.8007 219.28 43.8812 218.593 43.9617L218.512 46.5785C219.725 46.498 220.573 46.3772 221.139 46.3369C221.664 46.2564 222.109 46.3369 222.432 46.5382C222.755 46.7395 222.836 46.9005 222.674 46.9811C222.513 47.0616 222.149 47.1018 221.583 47.0616C221.018 47.0213 220.209 47.0616 219.119 47.1018C218.068 47.1823 217.26 47.2629 216.694 47.3434C216.129 47.4239 215.724 47.5044 215.442 47.5447C215.159 47.6252 214.836 47.5447 214.553 47.2629C214.229 47.0213 214.31 46.9005 214.755 46.9408C215.199 46.9408 216.29 46.8603 217.987 46.6187V44.0423C217.381 44.1228 217.017 44.163 216.856 44.2033C216.694 44.2033 216.492 44.2033 216.25 44.002C216.007 43.841 216.048 43.7605 216.452 43.7605C216.856 43.7605 217.381 43.6799 218.028 43.5994C218.028 42.9553 217.987 42.5527 217.866 42.3514C217.422 42.3514 217.058 42.3514 216.775 42.1904C216.492 42.0696 216.533 41.9489 216.937 41.9086C217.3 41.8281 217.745 41.7476 218.27 41.6671C218.795 41.5866 219.199 41.4658 219.482 41.4255C219.805 41.345 220.048 41.3853 220.25 41.506C220.452 41.6671 220.412 41.7878 220.088 41.8684C219.805 41.9891 219.24 42.1099 218.432 42.2709V42.3112ZM218.755 38.7283C218.755 38.7283 218.997 38.4465 219.119 38.3659C219.24 38.2854 219.24 38.1647 219.119 38.0439C218.997 37.9231 218.795 37.8023 218.512 37.6816C218.23 37.5608 218.108 37.6413 218.149 37.9231C218.149 38.2049 217.987 38.6478 217.583 39.2114C217.219 39.8152 216.654 40.4996 215.927 41.3047C215.199 42.1099 214.472 42.754 213.745 43.2371C213.017 43.7202 213.058 43.8007 213.825 43.4787C214.634 43.1566 215.401 42.6332 216.169 41.8684C216.937 41.1035 217.745 40.1373 218.634 38.9698C219.442 39.8152 220.048 40.4593 220.412 40.8619C220.775 41.2645 221.139 41.6671 221.543 42.1099C221.947 42.5125 222.432 42.7138 223.038 42.6332C223.644 42.5527 224.088 42.5125 224.412 42.4722C224.735 42.432 224.614 42.3112 224.088 42.1502C223.523 41.9891 222.997 41.7878 222.553 41.5463C222.068 41.3047 221.583 40.9827 221.058 40.5801C220.533 40.1775 219.765 39.5334 218.795 38.6478L218.755 38.7283ZM220.007 44.8877C220.007 44.8877 219.684 45.25 219.401 45.4915C219.119 45.7331 219.119 45.8136 219.401 45.6928C219.644 45.572 219.927 45.4513 220.25 45.2902C220.573 45.1292 220.856 45.0487 221.058 44.9682C221.3 44.9279 221.341 44.8072 221.22 44.6461C221.098 44.4851 220.896 44.3643 220.614 44.2435C220.331 44.1228 220.209 44.163 220.25 44.3241C220.25 44.4851 220.209 44.6461 220.048 44.8072L220.007 44.8877ZM216.007 45.089C216.209 45.411 216.411 45.6928 216.613 45.8941C216.815 46.1356 217.017 46.0954 217.098 45.8538C217.219 45.6123 217.179 45.3708 216.977 45.2097C216.775 45.0084 216.533 44.8877 216.209 44.7669C215.886 44.6864 215.805 44.7669 216.007 45.089Z" fill="#003642"/>
<path fill-rule="evenodd" clip-rule="evenodd" d="M228.774 44.2428C229.259 44.6454 229.38 44.9272 229.138 45.0882C228.895 45.2493 228.653 45.4506 228.41 45.6921C228.168 45.9337 227.925 46.2155 227.683 46.457C227.441 46.6985 227.481 46.8193 227.764 46.7791C228.047 46.7791 228.491 46.6985 229.016 46.6583C229.542 46.618 230.229 46.5778 230.996 46.4973C230.673 45.9337 230.431 45.5311 230.309 45.2895C230.148 45.048 230.229 44.9675 230.471 45.0882C230.713 45.1688 231.037 45.37 231.441 45.6921C231.845 46.0142 232.087 46.3362 232.168 46.7791C232.249 47.1816 232.249 47.5037 232.168 47.7452C232.087 47.9868 231.926 47.9465 231.683 47.6245C231.441 47.3427 231.279 47.0609 231.118 46.8596C229.865 47.0609 228.936 47.2219 228.289 47.3427C227.643 47.5037 227.158 47.6245 226.875 47.7855C226.552 47.9465 226.39 47.9063 226.309 47.7855C226.269 47.6245 226.228 47.4634 226.269 47.3024C226.269 47.1414 226.39 46.9803 226.552 46.8998C226.713 46.8193 227.077 46.457 227.562 45.8934C228.047 45.2895 228.289 44.8064 228.289 44.4441C227.723 44.5246 227.279 44.6052 226.956 44.6857C226.633 44.7662 226.309 44.6857 225.986 44.4441C225.663 44.2428 225.703 44.1221 226.067 44.1221C226.471 44.1221 227.077 44.0818 227.885 43.961C228.693 43.8805 229.461 43.7597 230.188 43.5987C230.915 43.4377 231.441 43.3572 231.683 43.3169C231.926 43.3169 232.168 43.3572 232.41 43.5585C232.653 43.7597 232.613 43.8805 232.33 43.9208C232.047 43.961 231.683 44.0013 231.198 44.0818C230.713 44.1221 229.905 44.2026 228.734 44.3234L228.774 44.2428ZM229.582 38.4458C229.582 38.4458 229.744 38.1639 229.825 38.0432C229.905 37.9224 229.825 37.8016 229.542 37.6003C229.057 37.2783 228.855 37.2783 228.895 37.5601C228.936 37.8419 228.895 38.2042 228.653 38.647C228.451 39.0899 228.128 39.6132 227.683 40.2573C227.239 40.9015 226.713 41.4651 226.148 42.0287C225.582 42.552 225.016 43.0351 224.491 43.4377C223.966 43.8403 224.006 43.8805 224.693 43.5987C225.38 43.2767 225.986 42.9143 226.511 42.4312C227.037 41.9482 227.562 41.4248 228.006 40.8612C228.451 40.2976 228.936 39.6535 229.42 38.8483C230.148 39.7742 230.754 40.4989 231.239 41.1027C231.724 41.7066 232.128 42.1494 232.37 42.5118C232.653 42.8741 233.057 43.0351 233.582 43.0351C234.148 43.0351 234.633 43.0351 234.996 42.9546C235.36 42.8741 235.279 42.7533 234.754 42.5923C234.188 42.391 233.663 42.1494 233.097 41.8274C232.572 41.5053 231.966 41.0222 231.32 40.4184C230.673 39.7743 230.067 39.1704 229.501 38.5665L229.582 38.4458ZM229.057 41.8274C229.461 41.7469 229.825 41.6261 230.107 41.5456C230.39 41.4651 230.633 41.5456 230.835 41.7469C231.037 41.9482 230.713 42.1494 229.865 42.3105C229.016 42.4715 228.491 42.552 228.289 42.5118C228.087 42.5118 227.885 42.4312 227.683 42.3105C227.521 42.1897 227.602 42.1092 227.925 42.0689C228.249 41.9884 228.612 41.9079 229.057 41.8274ZM139.923 45.8531C139.761 46.5375 139.599 46.6985 139.357 46.296C139.155 45.8934 139.114 45.4506 139.276 44.9272C139.438 44.4039 139.478 43.639 139.478 42.5923C139.478 41.5456 139.438 40.8612 139.357 40.5391C139.276 40.1768 139.195 39.895 139.074 39.6535C138.953 39.4119 138.993 39.3314 139.236 39.3717C139.478 39.4522 139.68 39.4924 139.882 39.5327C140.084 39.5327 140.367 39.5327 140.811 39.4522C141.256 39.3717 141.66 39.2912 142.104 39.2106C142.549 39.0899 142.872 38.9691 143.074 38.8483C143.276 38.6873 143.519 38.6873 143.842 38.8483C144.165 38.9691 144.448 39.1301 144.65 39.2912C144.852 39.4522 144.892 39.734 144.65 40.0561C144.448 40.3781 144.367 41.2235 144.408 42.552C144.408 43.8805 144.448 44.887 144.488 45.4506C144.488 46.0544 144.408 46.5778 144.165 47.0609C143.923 47.5037 143.761 47.5037 143.599 46.9803C143.478 46.457 143.357 46.1349 143.276 45.9739C143.195 45.8129 143.034 45.6921 142.751 45.6921C142.468 45.6921 142.024 45.6921 141.377 45.8129C140.731 45.8934 140.246 45.9336 139.923 45.8934V45.8531ZM140.044 42.7533C139.963 43.6792 139.923 44.6052 139.882 45.4908C140.69 45.4908 141.337 45.37 141.862 45.1688C142.387 45.0077 142.751 45.0077 142.953 45.2493C143.155 45.4908 143.317 45.5713 143.438 45.5311C143.599 45.4908 143.64 44.8467 143.64 43.5585C143.64 42.2702 143.64 41.304 143.599 40.5794C143.599 39.8548 143.438 39.4522 143.195 39.4119C142.953 39.3314 141.862 39.5327 139.882 39.9353C139.963 40.7404 140.044 41.5858 140.044 42.4312C140.407 42.4312 140.811 42.3105 141.337 42.1092C141.862 41.9079 142.266 41.9079 142.63 42.1092C142.993 42.3105 142.71 42.5118 141.862 42.6728C140.973 42.8338 140.407 42.8338 140.084 42.713L140.044 42.7533Z" fill="#003642"/>
</g>
<defs>
<clipPath id="clip0_473_1897">
<rect width="299" height="48.309" fill="white"/>
</clipPath>
</defs>
</svg>
